roundedultracondensed-thin-italic.ufo
<glyph name="exclam" format="2">
  <advance height="1920" width="275"/>
  <unicode hex="0021"/>
  <outline>
    <contour>
      <point x="19.0" y="-3.0" type="curve" smooth="yes"/>
      <point x="15.0" y="-3.0" type="line" smooth="yes"/>
      <point x="2.0" y="-3.0"/>
      <point x="-5.0" y="6.0"/>
      <point x="-2.0" y="18.0" type="curve" smooth="yes"/>
      <point x="38.0" y="192.0" type="line" smooth="yes"/>
      <point x="41.0" y="204.0"/>
      <point x="52.0" y="213.0"/>
      <point x="65.0" y="213.0" type="curve" smooth="yes"/>
      <point x="69.0" y="213.0" type="line" smooth="yes"/>
      <point x="82.0" y="213.0"/>
      <point x="87.0" y="204.0"/>
      <point x="84.0" y="192.0" type="curve" smooth="yes"/>
      <point x="44.0" y="18.0" type="line" smooth="yes"/>
      <point x="41.0" y="6.0"/>
      <point x="32.0" y="-3.0"/>
    </contour>
    <contour>
      <point x="221.0" y="950.0" type="curve" smooth="yes"/>
      <point x="333.0" y="1435.0" type="line" smooth="yes"/>
      <point x="335.0" y="1444.0"/>
      <point x="341.0" y="1453.0"/>
      <point x="351.0" y="1453.0" type="curve" smooth="yes"/>
      <point x="353.0" y="1453.0" type="line" smooth="yes"/>
      <point x="363.0" y="1453.0"/>
      <point x="365.0" y="1444.0"/>
      <point x="363.0" y="1435.0" type="curve" smooth="yes"/>
      <point x="251.0" y="950.0" type="line" smooth="yes"/>
      <point x="249.0" y="943.0"/>
      <point x="230.0" y="857.0"/>
      <point x="228.0" y="850.0" type="curve" smooth="yes"/>
      <point x="130.0" y="440.0" type="line" smooth="yes"/>
      <point x="128.0" y="433.0"/>
      <point x="123.0" y="427.0"/>
      <point x="116.0" y="427.0" type="curve" smooth="yes"/>
      <point x="115.0" y="427.0" type="line" smooth="yes"/>
      <point x="108.0" y="427.0"/>
      <point x="106.0" y="433.0"/>
      <point x="108.0" y="440.0" type="curve" smooth="yes"/>
      <point x="200.0" y="850.0" type="line" smooth="yes"/>
      <point x="202.0" y="857.0"/>
      <point x="219.0" y="943.0"/>
    </contour>
  </outline>
</glyph>
<glyph name="numbersign" format="2">
  <advance height="1920" width="502"/>
  <unicode hex="0023"/>
  <outline>
    <contour>
      <point x="68.0" y="485.0" type="curve" smooth="yes"/>
      <point x="383.0" y="485.0" type="line" smooth="yes"/>
      <point x="392.0" y="485.0"/>
      <point x="397.0" y="479.0"/>
      <point x="395.0" y="471.0" type="curve" smooth="yes"/>
      <point x="394.0" y="469.0" type="line" smooth="yes"/>
      <point x="392.0" y="461.0"/>
      <point x="385.0" y="455.0"/>
      <point x="376.0" y="455.0" type="curve" smooth="yes"/>
      <point x="61.0" y="455.0" type="line" smooth="yes"/>
      <point x="47.0" y="455.0"/>
      <point x="42.0" y="460.0"/>
      <point x="44.0" y="469.0" type="curve" smooth="yes"/>
      <point x="45.0" y="471.0" type="line" smooth="yes"/>
      <point x="47.0" y="480.0"/>
      <point x="54.0" y="485.0"/>
    </contour>
    <contour>
      <point x="228.0" y="1025.0" type="curve" smooth="yes"/>
      <point x="548.0" y="1025.0" type="line" smooth="yes"/>
      <point x="557.0" y="1025.0"/>
      <point x="561.0" y="1019.0"/>
      <point x="559.0" y="1011.0" type="curve" smooth="yes"/>
      <point x="559.0" y="1009.0" type="line" smooth="yes"/>
      <point x="557.0" y="1001.0"/>
      <point x="550.0" y="995.0"/>
      <point x="541.0" y="995.0" type="curve" smooth="yes"/>
      <point x="221.0" y="995.0" type="line" smooth="yes"/>
      <point x="207.0" y="995.0"/>
      <point x="204.0" y="1002.0"/>
      <point x="206.0" y="1009.0" type="curve" smooth="yes"/>
      <point x="206.0" y="1011.0" type="line" smooth="yes"/>
      <point x="208.0" y="1018.0"/>
      <point x="214.0" y="1025.0"/>
    </contour>
    <contour>
      <point x="594.0" y="1403.0" type="curve" smooth="yes"/>
      <point x="596.0" y="1403.0" type="line" smooth="yes"/>
      <point x="607.0" y="1403.0"/>
      <point x="607.0" y="1393.0"/>
      <point x="604.0" y="1385.0" type="curve" smooth="yes"/>
      <point x="129.0" y="22.0" type="line" smooth="yes"/>
      <point x="124.0" y="8.0"/>
      <point x="116.0" y="-3.0"/>
      <point x="106.0" y="-3.0" type="curve" smooth="yes"/>
      <point x="104.0" y="-3.0" type="line" smooth="yes"/>
      <point x="94.0" y="-3.0"/>
      <point x="94.0" y="8.0"/>
      <point x="99.0" y="22.0" type="curve" smooth="yes"/>
      <point x="574.0" y="1385.0" type="line" smooth="yes"/>
      <point x="577.0" y="1393.0"/>
      <point x="583.0" y="1403.0"/>
    </contour>
    <contour>
      <point x="469.0" y="1403.0" type="curve" smooth="yes"/>
      <point x="471.0" y="1403.0" type="line" smooth="yes"/>
      <point x="480.0" y="1403.0"/>
      <point x="483.0" y="1397.0"/>
      <point x="479.0" y="1384.0" type="curve" smooth="yes"/>
      <point x="4.0" y="22.0" type="line" smooth="yes"/>
      <point x="-1.0" y="8.0"/>
      <point x="-10.0" y="-3.0"/>
      <point x="-19.0" y="-3.0" type="curve" smooth="yes"/>
      <point x="-21.0" y="-3.0" type="line" smooth="yes"/>
      <point x="-30.0" y="-3.0"/>
      <point x="-31.0" y="8.0"/>
      <point x="-26.0" y="22.0" type="curve" smooth="yes"/>
      <point x="449.0" y="1384.0" type="line" smooth="yes"/>
      <point x="453.0" y="1397.0"/>
      <point x="460.0" y="1403.0"/>
    </contour>
  </outline>
</glyph>
<glyph name="ampersand" format="2">
  <advance height="1920" width="555"/>
  <unicode hex="0026"/>
  <outline>
    <contour>
      <point x="354.0" y="21.0" type="curve" smooth="yes"/>
      <point x="334.0" y="1036.0" type="line" smooth="yes"/>
      <point x="332.0" y="1126.0"/>
      <point x="326.0" y="1175.0"/>
      <point x="341.0" y="1241.0" type="curve" smooth="yes"/>
      <point x="362.0" y="1331.0"/>
      <point x="418.0" y="1405.0"/>
      <point x="522.0" y="1405.0" type="curve" smooth="yes"/>
      <point x="626.0" y="1405.0"/>
      <point x="654.0" y="1336.0"/>
      <point x="630.0" y="1231.0" type="curve" smooth="yes"/>
      <point x="598.0" y="1094.0"/>
      <point x="506.0" y="1013.0"/>
      <point x="343.0" y="948.0" type="curve" smooth="yes"/>
      <point x="202.0" y="892.0"/>
      <point x="144.0" y="826.0"/>
      <point x="116.0" y="704.0" type="curve" smooth="yes"/>
      <point x="107.0" y="665.0"/>
      <point x="103.0" y="570.0"/>
      <point x="106.0" y="503.0" type="curve" smooth="yes"/>
      <point x="115.0" y="236.0" type="line" smooth="yes"/>
      <point x="119.0" y="107.0"/>
      <point x="107.0" y="25.0"/>
      <point x="177.0" y="25.0" type="curve" smooth="yes"/>
      <point x="293.0" y="25.0"/>
      <point x="449.0" y="354.0"/>
      <point x="519.0" y="638.0" type="curve" smooth="yes"/>
      <point x="521.0" y="646.0"/>
      <point x="527.0" y="651.0"/>
      <point x="533.0" y="651.0" type="curve" smooth="yes"/>
      <point x="534.0" y="651.0" type="line" smooth="yes"/>
      <point x="540.0" y="651.0"/>
      <point x="543.0" y="645.0"/>
      <point x="541.0" y="636.0" type="curve" smooth="yes"/>
      <point x="469.0" y="341.0"/>
      <point x="314.0" y="-5.0"/>
      <point x="170.0" y="-5.0" type="curve" smooth="yes"/>
      <point x="82.0" y="-5.0"/>
      <point x="88.0" y="75.0"/>
      <point x="83.0" y="249.0" type="curve" smooth="yes"/>
      <point x="77.0" y="489.0" type="line" smooth="yes"/>
      <point x="75.0" y="578.0"/>
      <point x="73.0" y="646.0"/>
      <point x="86.0" y="704.0" type="curve" smooth="yes"/>
      <point x="122.0" y="858.0"/>
      <point x="208.0" y="916.0"/>
      <point x="345.0" y="975.0" type="curve" smooth="yes"/>
      <point x="497.0" y="1041.0"/>
      <point x="570.0" y="1099.0"/>
      <point x="599.0" y="1226.0" type="curve" smooth="yes"/>
      <point x="622.0" y="1326.0"/>
      <point x="598.0" y="1375.0"/>
      <point x="515.0" y="1375.0" type="curve" smooth="yes"/>
      <point x="437.0" y="1375.0"/>
      <point x="388.0" y="1316.0"/>
      <point x="371.0" y="1241.0" type="curve" smooth="yes"/>
      <point x="357.0" y="1181.0"/>
      <point x="364.0" y="1087.0"/>
      <point x="365.0" y="1056.0" type="curve" smooth="yes"/>
      <point x="384.0" y="21.0" type="line" smooth="yes"/>
      <point x="384.0" y="5.0"/>
      <point x="376.0" y="-3.0"/>
      <point x="368.0" y="-3.0" type="curve" smooth="yes"/>
      <point x="366.0" y="-3.0" type="line" smooth="yes"/>
      <point x="358.0" y="-3.0"/>
      <point x="354.0" y="5.0"/>
    </contour>
  </outline>
</glyph>
<glyph name="quotesingle" format="2">
  <advance height="1920" width="275"/>
  <unicode hex="0027"/>
  <outline>
    <contour>
      <point x="233.0" y="927.0" type="curve" smooth="yes"/>
      <point x="231.0" y="927.0" type="line" smooth="yes"/>
      <point x="224.0" y="927.0"/>
      <point x="221.0" y="933.0"/>
      <point x="223.0" y="940.0" type="curve" smooth="yes"/>
      <point x="269.0" y="1150.0" type="line" smooth="yes"/>
      <point x="278.0" y="1187.0"/>
      <point x="280.0" y="1203.0"/>
      <point x="286.0" y="1230.0" type="curve" smooth="yes"/>
      <point x="326.0" y="1405.0" type="line" smooth="yes"/>
      <point x="328.0" y="1414.0"/>
      <point x="335.0" y="1423.0"/>
      <point x="345.0" y="1423.0" type="curve" smooth="yes"/>
      <point x="347.0" y="1423.0" type="line" smooth="yes"/>
      <point x="357.0" y="1423.0"/>
      <point x="358.0" y="1414.0"/>
      <point x="356.0" y="1405.0" type="curve" smooth="yes"/>
      <point x="316.0" y="1230.0" type="line" smooth="yes"/>
      <point x="310.0" y="1203.0"/>
      <point x="306.0" y="1187.0"/>
      <point x="297.0" y="1150.0" type="curve" smooth="yes"/>
      <point x="247.0" y="940.0" type="line" smooth="yes"/>
      <point x="245.0" y="933.0"/>
      <point x="240.0" y="927.0"/>
    </contour>
  </outline>
</glyph>
<glyph name="parenright" format="2">
  <advance height="2048" width="294"/>
  <unicode hex="0029"/>
  <outline>
    <contour>
      <point x="145.0" y="26.0" type="line" smooth="yes"/>
      <point x="98.0" y="-176.0"/>
      <point x="31.0" y="-336.0"/>
      <point x="-115.0" y="-364.0" type="curve" smooth="yes"/>
      <point x="-119.0" y="-365.0"/>
      <point x="-123.0" y="-362.0"/>
      <point x="-122.0" y="-358.0" type="curve" smooth="yes"/>
      <point x="-121.0" y="-357.0" type="line" smooth="yes"/>
      <point x="-120.0" y="-351.0"/>
      <point x="-114.0" y="-349.0"/>
      <point x="-111.0" y="-348.0" type="curve" smooth="yes"/>
      <point x="5.0" y="-317.0"/>
      <point x="67.0" y="-184.0"/>
      <point x="113.0" y="16.0" type="curve" smooth="yes"/>
      <point x="393.0" y="1229.0" type="line" smooth="yes"/>
      <point x="439.0" y="1429.0"/>
      <point x="439.0" y="1562.0"/>
      <point x="337.0" y="1593.0" type="curve" smooth="yes"/>
      <point x="334.0" y="1594.0"/>
      <point x="330.0" y="1596.0"/>
      <point x="331.0" y="1602.0" type="curve" smooth="yes"/>
      <point x="331.0" y="1603.0" type="line" smooth="yes"/>
      <point x="332.0" y="1609.0"/>
      <point x="336.0" y="1610.0"/>
      <point x="340.0" y="1609.0" type="curve" smooth="yes"/>
      <point x="474.0" y="1581.0"/>
      <point x="467.0" y="1421.0"/>
      <point x="420.0" y="1219.0" type="curve" smooth="yes"/>
    </contour>
  </outline>
</glyph>
<glyph name="asterisk" format="2">
  <advance height="2048" width="500"/>
  <unicode hex="002A"/>
  <outline>
    <contour>
      <point x="409.0" y="1205.0" type="line"/>
      <point x="409.0" y="1215.0" type="line"/>
      <point x="576.0" y="1279.0" type="line" smooth="yes"/>
      <point x="585.0" y="1282.0"/>
      <point x="596.0" y="1285.0"/>
      <point x="601.0" y="1286.0" type="curve" smooth="yes"/>
      <point x="614.0" y="1288.0" type="line" smooth="yes"/>
      <point x="623.0" y="1289.0"/>
      <point x="632.0" y="1285.0"/>
      <point x="632.0" y="1278.0" type="curve" smooth="yes"/>
      <point x="632.0" y="1277.0" type="line" smooth="yes"/>
      <point x="632.0" y="1270.0"/>
      <point x="626.0" y="1262.0"/>
      <point x="617.0" y="1258.0" type="curve" smooth="yes"/>
      <point x="605.0" y="1252.0" type="line" smooth="yes"/>
      <point x="601.0" y="1250.0"/>
      <point x="588.0" y="1246.0"/>
      <point x="579.0" y="1244.0" type="curve" smooth="yes"/>
    </contour>
    <contour>
      <point x="404.0" y="1207.0" type="line"/>
      <point x="414.0" y="1213.0" type="line"/>
      <point x="492.0" y="1087.0" type="line" smooth="yes"/>
      <point x="496.0" y="1080.0"/>
      <point x="501.0" y="1071.0"/>
      <point x="502.0" y="1067.0" type="curve" smooth="yes"/>
      <point x="506.0" y="1055.0" type="line" smooth="yes"/>
      <point x="508.0" y="1047.0"/>
      <point x="504.0" y="1038.0"/>
      <point x="497.0" y="1034.0" type="curve" smooth="yes"/>
      <point x="495.0" y="1033.0" type="line" smooth="yes"/>
      <point x="488.0" y="1029.0"/>
      <point x="480.0" y="1031.0"/>
      <point x="475.0" y="1037.0" type="curve" smooth="yes"/>
      <point x="468.0" y="1046.0" type="line" smooth="yes"/>
      <point x="466.0" y="1050.0"/>
      <point x="461.0" y="1058.0"/>
      <point x="458.0" y="1066.0" type="curve" smooth="yes"/>
    </contour>
    <contour>
      <point x="405.0" y="1213.0" type="line"/>
      <point x="413.0" y="1207.0" type="line"/>
      <point x="293.0" y="1066.0" type="line" smooth="yes"/>
      <point x="286.0" y="1058.0"/>
      <point x="278.0" y="1049.0"/>
      <point x="274.0" y="1045.0" type="curve" smooth="yes"/>
      <point x="263.0" y="1036.0" type="line" smooth="yes"/>
      <point x="256.0" y="1030.0"/>
      <point x="245.0" y="1029.0"/>
      <point x="240.0" y="1033.0" type="curve" smooth="yes"/>
      <point x="240.0" y="1034.0" type="line" smooth="yes"/>
      <point x="235.0" y="1038.0"/>
      <point x="236.0" y="1047.0"/>
      <point x="242.0" y="1055.0" type="curve" smooth="yes"/>
      <point x="250.0" y="1067.0" type="line" smooth="yes"/>
      <point x="253.0" y="1071.0"/>
      <point x="261.0" y="1080.0"/>
      <point x="269.0" y="1087.0" type="curve" smooth="yes"/>
    </contour>
    <contour>
      <point x="412.0" y="1215.0" type="line"/>
      <point x="406.0" y="1205.0" type="line"/>
      <point x="254.0" y="1243.0" type="line" smooth="yes"/>
      <point x="245.0" y="1245.0"/>
      <point x="236.0" y="1249.0"/>
      <point x="232.0" y="1251.0" type="curve" smooth="yes"/>
      <point x="221.0" y="1257.0" type="line" smooth="yes"/>
      <point x="214.0" y="1261.0"/>
      <point x="213.0" y="1270.0"/>
      <point x="217.0" y="1277.0" type="curve" smooth="yes"/>
      <point x="217.0" y="1278.0" type="line" smooth="yes"/>
      <point x="221.0" y="1285.0"/>
      <point x="229.0" y="1288.0"/>
      <point x="238.0" y="1287.0" type="curve" smooth="yes"/>
      <point x="251.0" y="1285.0" type="line" smooth="yes"/>
      <point x="256.0" y="1284.0"/>
      <point x="266.0" y="1281.0"/>
      <point x="273.0" y="1278.0" type="curve" smooth="yes"/>
    </contour>
    <contour>
      <point x="414.0" y="1210.0" type="line"/>
      <point x="403.0" y="1210.0" type="line"/>
      <point x="428.0" y="1375.0" type="line" smooth="yes"/>
      <point x="429.0" y="1384.0"/>
      <point x="432.0" y="1395.0"/>
      <point x="434.0" y="1400.0" type="curve" smooth="yes"/>
      <point x="439.0" y="1413.0" type="line" smooth="yes"/>
      <point x="442.0" y="1422.0"/>
      <point x="452.0" y="1428.0"/>
      <point x="459.0" y="1428.0" type="curve" smooth="yes"/>
      <point x="460.0" y="1428.0" type="line" smooth="yes"/>
      <point x="467.0" y="1428.0"/>
      <point x="472.0" y="1422.0"/>
      <point x="471.0" y="1413.0" type="curve" smooth="yes"/>
      <point x="470.0" y="1400.0" type="line" smooth="yes"/>
      <point x="470.0" y="1395.0"/>
      <point x="467.0" y="1384.0"/>
      <point x="464.0" y="1375.0" type="curve" smooth="yes"/>
    </contour>
  </outline>
</glyph>
<glyph name="plus" format="2">
  <advance height="1920" width="540"/>
  <unicode hex="002B"/>
  <outline>
    <contour>
      <point x="80.0" y="685.0" type="curve" smooth="yes"/>
      <point x="81.0" y="687.0" type="line" smooth="yes"/>
      <point x="83.0" y="696.0"/>
      <point x="89.0" y="702.0"/>
      <point x="98.0" y="702.0" type="curve" smooth="yes"/>
      <point x="521.0" y="702.0" type="line" smooth="yes"/>
      <point x="535.0" y="702.0"/>
      <point x="539.0" y="696.0"/>
      <point x="537.0" y="687.0" type="curve" smooth="yes"/>
      <point x="536.0" y="685.0" type="line" smooth="yes"/>
      <point x="534.0" y="676.0"/>
      <point x="528.0" y="671.0"/>
      <point x="514.0" y="671.0" type="curve" smooth="yes"/>
      <point x="91.0" y="671.0" type="line" smooth="yes"/>
      <point x="82.0" y="671.0"/>
      <point x="78.0" y="676.0"/>
    </contour>
    <contour>
      <point x="366.0" y="938.0" type="curve" smooth="yes"/>
      <point x="368.0" y="938.0" type="line" smooth="yes"/>
      <point x="377.0" y="938.0"/>
      <point x="379.0" y="929.0"/>
      <point x="377.0" y="920.0" type="curve" smooth="yes"/>
      <point x="267.0" y="440.0" type="line" smooth="yes"/>
      <point x="265.0" y="431.0"/>
      <point x="257.0" y="422.0"/>
      <point x="248.0" y="422.0" type="curve" smooth="yes"/>
      <point x="246.0" y="422.0" type="line" smooth="yes"/>
      <point x="237.0" y="422.0"/>
      <point x="235.0" y="431.0"/>
      <point x="237.0" y="440.0" type="curve" smooth="yes"/>
      <point x="347.0" y="920.0" type="line" smooth="yes"/>
      <point x="349.0" y="929.0"/>
      <point x="357.0" y="938.0"/>
    </contour>
  </outline>
</glyph>
<glyph name="comma" format="2">
  <advance height="1920" width="275"/>
  <unicode hex="002C"/>
  <outline>
    <contour>
      <point x="-61.0" y="-211.0" type="curve" smooth="yes"/>
      <point x="-62.0" y="-211.0" type="line" smooth="yes"/>
      <point x="-70.0" y="-211.0"/>
      <point x="-70.0" y="-203.0"/>
      <point x="-66.0" y="-193.0" type="curve" smooth="yes"/>
      <point x="15.0" y="0.0" type="line"/>
      <point x="13.0" y="0.0" type="line" smooth="yes"/>
      <point x="0.0" y="0.0"/>
      <point x="-3.0" y="5.0"/>
      <point x="0.0" y="19.0" type="curve" smooth="yes"/>
      <point x="41.0" y="193.0" type="line" smooth="yes"/>
      <point x="44.0" y="205.0"/>
      <point x="52.0" y="213.0"/>
      <point x="65.0" y="213.0" type="curve" smooth="yes"/>
      <point x="69.0" y="213.0" type="line" smooth="yes"/>
      <point x="82.0" y="213.0"/>
      <point x="89.0" y="205.0"/>
      <point x="86.0" y="193.0" type="curve" smooth="yes"/>
      <point x="50.0" y="38.0" type="line" smooth="yes"/>
      <point x="47.0" y="27.0"/>
      <point x="38.0" y="8.0"/>
      <point x="33.0" y="-3.0" type="curve" smooth="yes"/>
      <point x="-42.0" y="-191.0" type="line" smooth="yes"/>
      <point x="-48.0" y="-206.0"/>
      <point x="-54.0" y="-211.0"/>
    </contour>
  </outline>
</glyph>
<glyph name="hyphen" format="2">
  <advance height="1920" width="329"/>
  <unicode hex="002D"/>
  <outline>
    <contour>
      <point x="60.0" y="612.0" type="curve" smooth="yes"/>
      <point x="61.0" y="613.0" type="line" smooth="yes"/>
      <point x="63.0" y="622.0"/>
      <point x="69.0" y="627.0"/>
      <point x="83.0" y="627.0" type="curve" smooth="yes"/>
      <point x="297.0" y="627.0" type="line" smooth="yes"/>
      <point x="311.0" y="627.0"/>
      <point x="315.0" y="622.0"/>
      <point x="313.0" y="613.0" type="curve" smooth="yes"/>
      <point x="312.0" y="612.0" type="line" smooth="yes"/>
      <point x="310.0" y="603.0"/>
      <point x="304.0" y="598.0"/>
      <point x="290.0" y="598.0" type="curve" smooth="yes"/>
      <point x="76.0" y="598.0" type="line" smooth="yes"/>
      <point x="62.0" y="598.0"/>
      <point x="58.0" y="603.0"/>
    </contour>
  </outline>
</glyph>
<glyph name="period" format="2">
  <advance height="1920" width="275"/>
  <unicode hex="002E"/>
  <outline>
    <contour>
      <point x="19.0" y="-3.0" type="curve" smooth="yes"/>
      <point x="15.0" y="-3.0" type="line" smooth="yes"/>
      <point x="2.0" y="-3.0"/>
      <point x="-5.0" y="6.0"/>
      <point x="-2.0" y="18.0" type="curve" smooth="yes"/>
      <point x="38.0" y="192.0" type="line" smooth="yes"/>
      <point x="41.0" y="204.0"/>
      <point x="52.0" y="213.0"/>
      <point x="65.0" y="213.0" type="curve" smooth="yes"/>
      <point x="69.0" y="213.0" type="line" smooth="yes"/>
      <point x="82.0" y="213.0"/>
      <point x="87.0" y="204.0"/>
      <point x="84.0" y="192.0" type="curve" smooth="yes"/>
      <point x="44.0" y="18.0" type="line" smooth="yes"/>
      <point x="41.0" y="6.0"/>
      <point x="32.0" y="-3.0"/>
    </contour>
  </outline>
</glyph>
<glyph name="slash" format="2">
  <advance height="2048" width="380"/>
  <unicode hex="002F"/>
  <outline>
    <contour>
      <point x="560.0" y="1386.0" type="curve" smooth="yes"/>
      <point x="-83.0" y="-82.0" type="line" smooth="yes"/>
      <point x="-89.0" y="-96.0"/>
      <point x="-97.0" y="-103.0"/>
      <point x="-106.0" y="-103.0" type="curve" smooth="yes"/>
      <point x="-108.0" y="-103.0" type="line" smooth="yes"/>
      <point x="-115.0" y="-103.0"/>
      <point x="-119.0" y="-96.0"/>
      <point x="-113.0" y="-82.0" type="curve" smooth="yes"/>
      <point x="530.0" y="1386.0" type="line" smooth="yes"/>
      <point x="535.0" y="1398.0"/>
      <point x="544.0" y="1403.0"/>
      <point x="551.0" y="1403.0" type="curve" smooth="yes"/>
      <point x="553.0" y="1403.0" type="line" smooth="yes"/>
      <point x="560.0" y="1403.0"/>
      <point x="565.0" y="1398.0"/>
    </contour>
  </outline>
</glyph>
<glyph name="one" format="2">
  <advance height="1920" width="232"/>
  <unicode hex="0031"/>
  <outline>
    <contour>
      <point x="310.0" y="1400.0" type="curve" smooth="yes"/>
      <point x="315.0" y="1408.0"/>
      <point x="320.0" y="1420.0"/>
      <point x="326.0" y="1438.0" type="curve" smooth="yes"/>
      <point x="329.0" y="1446.0"/>
      <point x="332.0" y="1450.0"/>
      <point x="337.0" y="1450.0" type="curve" smooth="yes"/>
      <point x="338.0" y="1450.0" type="line" smooth="yes"/>
      <point x="344.0" y="1450.0"/>
      <point x="345.0" y="1445.0"/>
      <point x="343.0" y="1436.0" type="curve" smooth="yes"/>
      <point x="15.0" y="16.0" type="line" smooth="yes"/>
      <point x="12.0" y="3.0"/>
      <point x="7.0" y="-3.0"/>
      <point x="-4.0" y="-3.0" type="curve" smooth="yes"/>
      <point x="-5.0" y="-3.0" type="line" smooth="yes"/>
      <point x="-16.0" y="-3.0"/>
      <point x="-18.0" y="3.0"/>
      <point x="-15.0" y="16.0" type="curve" smooth="yes"/>
      <point x="299.0" y="1377.0" type="line" smooth="yes"/>
      <point x="302.0" y="1388.0"/>
      <point x="307.0" y="1395.0"/>
    </contour>
  </outline>
</glyph>
<glyph name="two" format="2">
  <advance height="1920" width="357"/>
  <unicode hex="0032"/>
  <outline>
    <contour>
      <point x="-30.0" y="130.0" type="line" smooth="yes"/>
      <point x="51.0" y="482.0"/>
      <point x="292.0" y="668.0"/>
      <point x="361.0" y="967.0" type="curve" smooth="yes"/>
      <point x="401.0" y="1138.0" type="line" smooth="yes"/>
      <point x="444.0" y="1323.0"/>
      <point x="444.0" y="1375.0"/>
      <point x="382.0" y="1375.0" type="curve" smooth="yes"/>
      <point x="312.0" y="1375.0"/>
      <point x="275.0" y="1270.0"/>
      <point x="245.0" y="1140.0" type="curve" smooth="yes"/>
      <point x="173.0" y="827.0" type="line" smooth="yes"/>
      <point x="170.0" y="814.0"/>
      <point x="163.0" y="809.0"/>
      <point x="156.0" y="809.0" type="curve" smooth="yes"/>
      <point x="154.0" y="809.0" type="line" smooth="yes"/>
      <point x="147.0" y="809.0"/>
      <point x="140.0" y="814.0"/>
      <point x="143.0" y="827.0" type="curve" smooth="yes"/>
      <point x="215.0" y="1140.0" type="line" smooth="yes"/>
      <point x="257.0" y="1321.0"/>
      <point x="305.0" y="1405.0"/>
      <point x="389.0" y="1405.0" type="curve" smooth="yes"/>
      <point x="478.0" y="1405.0"/>
      <point x="477.0" y="1340.0"/>
      <point x="430.0" y="1135.0" type="curve" smooth="yes"/>
      <point x="400.0" y="1005.0" type="line" smooth="yes"/>
      <point x="317.0" y="647.0"/>
      <point x="77.0" y="460.0"/>
      <point x="5.0" y="150.0" type="curve" smooth="yes"/>
      <point x="-23.0" y="30.0" type="line"/>
      <point x="178.0" y="30.0" type="line" smooth="yes"/>
      <point x="188.0" y="30.0"/>
      <point x="194.0" y="25.0"/>
      <point x="192.0" y="16.0" type="curve" smooth="yes"/>
      <point x="191.0" y="14.0" type="line" smooth="yes"/>
      <point x="189.0" y="5.0"/>
      <point x="181.0" y="0.0"/>
      <point x="171.0" y="0.0" type="curve" smooth="yes"/>
      <point x="-35.0" y="0.0" type="line" smooth="yes"/>
      <point x="-54.0" y="0.0"/>
      <point x="-58.0" y="6.0"/>
      <point x="-54.0" y="25.0" type="curve" smooth="yes"/>
    </contour>
  </outline>
</glyph>
<glyph name="three" format="2">
  <advance height="1920" width="408"/>
  <unicode hex="0033"/>
  <outline>
    <contour>
      <point x="49.0" y="410.0" type="curve" smooth="yes"/>
      <point x="51.0" y="410.0" type="line" smooth="yes"/>
      <point x="61.0" y="410.0"/>
      <point x="62.0" y="402.0"/>
      <point x="60.0" y="392.0" type="curve" smooth="yes"/>
      <point x="8.0" y="164.0" type="line" smooth="yes"/>
      <point x="-13.0" y="74.0"/>
      <point x="11.0" y="25.0"/>
      <point x="91.0" y="25.0" type="curve" smooth="yes"/>
      <point x="166.0" y="25.0"/>
      <point x="215.0" y="71.0"/>
      <point x="239.0" y="176.0" type="curve" smooth="yes"/>
      <point x="328.0" y="564.0" type="line" smooth="yes"/>
      <point x="348.0" y="649.0"/>
      <point x="340.0" y="700.0"/>
      <point x="237.0" y="700.0" type="curve" smooth="yes"/>
      <point x="217.0" y="700.0" type="line" smooth="yes"/>
      <point x="197.0" y="700.0"/>
      <point x="190.0" y="704.0"/>
      <point x="192.0" y="714.0" type="curve" smooth="yes"/>
      <point x="192.0" y="716.0" type="line" smooth="yes"/>
      <point x="194.0" y="725.0"/>
      <point x="204.0" y="730.0"/>
      <point x="224.0" y="730.0" type="curve" smooth="yes"/>
      <point x="234.0" y="730.0" type="line" smooth="yes"/>
      <point x="322.0" y="730.0"/>
      <point x="351.0" y="772.0"/>
      <point x="369.0" y="852.0" type="curve" smooth="yes"/>
      <point x="459.0" y="1243.0" type="line" smooth="yes"/>
      <point x="479.0" y="1328.0"/>
      <point x="470.0" y="1375.0"/>
      <point x="397.0" y="1375.0" type="curve" smooth="yes"/>
      <point x="327.0" y="1375.0"/>
      <point x="293.0" y="1321.0"/>
      <point x="271.0" y="1225.0" type="curve" smooth="yes"/>
      <point x="211.0" y="966.0" type="line" smooth="yes"/>
      <point x="208.0" y="954.0"/>
      <point x="201.0" y="949.0"/>
      <point x="192.0" y="949.0" type="curve" smooth="yes"/>
      <point x="190.0" y="949.0" type="line" smooth="yes"/>
      <point x="181.0" y="949.0"/>
      <point x="178.0" y="954.0"/>
      <point x="181.0" y="966.0" type="curve" smooth="yes"/>
      <point x="241.0" y="1225.0" type="line" smooth="yes"/>
      <point x="268.0" y="1342.0"/>
      <point x="310.0" y="1405.0"/>
      <point x="404.0" y="1405.0" type="curve" smooth="yes"/>
      <point x="498.0" y="1405.0"/>
      <point x="516.0" y="1356.0"/>
      <point x="489.0" y="1241.0" type="curve" smooth="yes"/>
      <point x="403.0" y="869.0" type="line" smooth="yes"/>
      <point x="374.0" y="744.0"/>
      <point x="327.0" y="710.0"/>
      <point x="229.0" y="710.0" type="curve"/>
      <point x="242.0" y="723.0" type="line"/>
      <point x="365.0" y="723.0"/>
      <point x="384.0" y="676.0"/>
      <point x="355.0" y="551.0" type="curve" smooth="yes"/>
      <point x="268.0" y="174.0" type="line" smooth="yes"/>
      <point x="240.0" y="54.0"/>
      <point x="188.0" y="-5.0"/>
      <point x="84.0" y="-5.0" type="curve" smooth="yes"/>
      <point x="-17.0" y="-5.0"/>
      <point x="-48.0" y="50.0"/>
      <point x="-22.0" y="164.0" type="curve" smooth="yes"/>
      <point x="30.0" y="392.0" type="line" smooth="yes"/>
      <point x="32.0" y="402.0"/>
      <point x="39.0" y="410.0"/>
    </contour>
  </outline>
</glyph>
<glyph name="four" format="2">
  <advance height="1920" width="425"/>
  <unicode hex="0034"/>
  <outline>
    <contour>
      <point x="364.0" y="421.0" type="curve" smooth="yes"/>
      <point x="364.0" y="419.0" type="line" smooth="yes"/>
      <point x="362.0" y="409.0"/>
      <point x="352.0" y="405.0"/>
      <point x="343.0" y="405.0" type="curve" smooth="yes"/>
      <point x="263.0" y="405.0" type="line"/>
      <point x="172.0" y="15.0" type="line" smooth="yes"/>
      <point x="169.0" y="4.0"/>
      <point x="162.0" y="-3.0"/>
      <point x="154.0" y="-3.0" type="curve" smooth="yes"/>
      <point x="152.0" y="-3.0" type="line" smooth="yes"/>
      <point x="144.0" y="-3.0"/>
      <point x="139.0" y="4.0"/>
      <point x="142.0" y="15.0" type="curve" smooth="yes"/>
      <point x="233.0" y="405.0" type="line"/>
      <point x="8.0" y="405.0" type="line" smooth="yes"/>
      <point x="-1.0" y="405.0"/>
      <point x="-6.0" y="409.0"/>
      <point x="-4.0" y="418.0" type="curve" smooth="yes"/>
      <point x="-4.0" y="420.0" type="line" smooth="yes"/>
      <point x="-3.0" y="424.0"/>
      <point x="0.0" y="431.0"/>
      <point x="2.0" y="435.0" type="curve" smooth="yes"/>
      <point x="472.0" y="1395.0" type="line" smooth="yes"/>
      <point x="474.0" y="1399.0"/>
      <point x="477.0" y="1403.0"/>
      <point x="483.0" y="1403.0" type="curve" smooth="yes"/>
      <point x="484.0" y="1403.0" type="line" smooth="yes"/>
      <point x="489.0" y="1403.0"/>
      <point x="492.0" y="1399.0"/>
      <point x="490.0" y="1391.0" type="curve" smooth="yes"/>
      <point x="269.0" y="435.0" type="line"/>
      <point x="349.0" y="435.0" type="line" smooth="yes"/>
      <point x="358.0" y="435.0"/>
      <point x="366.0" y="431.0"/>
    </contour>
    <contour>
      <point x="239.0" y="435.0" type="line"/>
      <point x="430.0" y="1260.0" type="line"/>
      <point x="26.0" y="435.0" type="line"/>
    </contour>
  </outline>
</glyph>
<glyph name="five" format="2">
  <advance height="1920" width="366"/>
  <unicode hex="0035"/>
  <outline>
    <contour>
      <point x="50.0" y="367.0" type="curve" smooth="yes"/>
      <point x="52.0" y="367.0" type="line" smooth="yes"/>
      <point x="60.0" y="367.0"/>
      <point x="64.0" y="358.0"/>
      <point x="62.0" y="350.0" type="curve" smooth="yes"/>
      <point x="0.0" y="81.0"/>
      <point x="12.0" y="25.0"/>
      <point x="64.0" y="25.0" type="curve" smooth="yes"/>
      <point x="128.0" y="25.0"/>
      <point x="167.0" y="133.0"/>
      <point x="210.0" y="319.0" type="curve" smooth="yes"/>
      <point x="277.0" y="612.0" type="line" smooth="yes"/>
      <point x="328.0" y="832.0"/>
      <point x="328.0" y="908.0"/>
      <point x="286.0" y="908.0" type="curve" smooth="yes"/>
      <point x="241.0" y="908.0"/>
      <point x="204.0" y="833.0"/>
      <point x="156.0" y="673.0" type="curve" smooth="yes"/>
      <point x="152.0" y="659.0"/>
      <point x="146.0" y="650.0"/>
      <point x="131.0" y="650.0" type="curve" smooth="yes"/>
      <point x="130.0" y="650.0" type="line" smooth="yes"/>
      <point x="118.0" y="650.0"/>
      <point x="113.0" y="657.0"/>
      <point x="118.0" y="675.0" type="curve" smooth="yes"/>
      <point x="315.0" y="1380.0" type="line" smooth="yes"/>
      <point x="319.0" y="1394.0"/>
      <point x="324.0" y="1400.0"/>
      <point x="335.0" y="1400.0" type="curve" smooth="yes"/>
      <point x="515.0" y="1400.0" type="line" smooth="yes"/>
      <point x="532.0" y="1400.0"/>
      <point x="539.0" y="1399.0"/>
      <point x="537.0" y="1390.0" type="curve" smooth="yes"/>
      <point x="537.0" y="1389.0" type="line" smooth="yes"/>
      <point x="535.0" y="1380.0"/>
      <point x="517.0" y="1370.0"/>
      <point x="432.0" y="1370.0" type="curve" smooth="yes"/>
      <point x="341.0" y="1370.0" type="line"/>
      <point x="152.0" y="690.0" type="line"/>
      <point x="144.0" y="690.0" type="line"/>
      <point x="177.0" y="802.0"/>
      <point x="223.0" y="938.0"/>
      <point x="293.0" y="938.0" type="curve" smooth="yes"/>
      <point x="368.0" y="938.0"/>
      <point x="364.0" y="854.0"/>
      <point x="304.0" y="596.0" type="curve" smooth="yes"/>
      <point x="234.0" y="294.0" type="line" smooth="yes"/>
      <point x="184.0" y="76.0"/>
      <point x="138.0" y="-5.0"/>
      <point x="57.0" y="-5.0" type="curve" smooth="yes"/>
      <point x="-20.0" y="-5.0"/>
      <point x="-39.0" y="41.0"/>
      <point x="32.0" y="349.0" type="curve" smooth="yes"/>
      <point x="34.0" y="358.0"/>
      <point x="41.0" y="367.0"/>
    </contour>
  </outline>
</glyph>
<glyph name="six" format="2">
  <advance height="1920" width="421"/>
  <unicode hex="0036"/>
  <outline>
    <contour>
      <point x="280.0" y="764.0" type="curve" smooth="yes"/>
      <point x="200.0" y="764.0"/>
      <point x="144.0" y="687.0"/>
      <point x="123.0" y="595.0" type="curve" smooth="yes"/>
      <point x="115.0" y="560.0" type="line"/>
      <point x="119.0" y="610.0" type="line"/>
      <point x="145.0" y="722.0"/>
      <point x="199.0" y="794.0"/>
      <point x="287.0" y="794.0" type="curve" smooth="yes"/>
      <point x="375.0" y="794.0"/>
      <point x="393.0" y="734.0"/>
      <point x="357.0" y="577.0" type="curve" smooth="yes"/>
      <point x="271.0" y="204.0" type="line" smooth="yes"/>
      <point x="239.0" y="65.0"/>
      <point x="199.0" y="-5.0"/>
      <point x="93.0" y="-5.0" type="curve" smooth="yes"/>
      <point x="-45.0" y="-5.0"/>
      <point x="-25.0" y="84.0"/>
      <point x="17.0" y="264.0" type="curve" smooth="yes"/>
      <point x="215.0" y="1121.0" type="line" smooth="yes"/>
      <point x="261.0" y="1321.0"/>
      <point x="296.0" y="1405.0"/>
      <point x="404.0" y="1405.0" type="curve" smooth="yes"/>
      <point x="512.0" y="1405.0"/>
      <point x="501.0" y="1322.0"/>
      <point x="471.0" y="1190.0" type="curve" smooth="yes"/>
      <point x="421.0" y="975.0" type="line" smooth="yes"/>
      <point x="418.0" y="961.0"/>
      <point x="414.0" y="947.0"/>
      <point x="402.0" y="947.0" type="curve" smooth="yes"/>
      <point x="400.0" y="947.0" type="line" smooth="yes"/>
      <point x="388.0" y="947.0"/>
      <point x="388.0" y="961.0"/>
      <point x="391.0" y="975.0" type="curve" smooth="yes"/>
      <point x="441.0" y="1190.0" type="line" smooth="yes"/>
      <point x="469.0" y="1311.0"/>
      <point x="476.0" y="1375.0"/>
      <point x="397.0" y="1375.0" type="curve" smooth="yes"/>
      <point x="320.0" y="1375.0"/>
      <point x="288.0" y="1308.0"/>
      <point x="244.0" y="1118.0" type="curve" smooth="yes"/>
      <point x="35.0" y="211.0" type="line" smooth="yes"/>
      <point x="6.0" y="86.0"/>
      <point x="6.0" y="25.0"/>
      <point x="100.0" y="25.0" type="curve" smooth="yes"/>
      <point x="180.0" y="25.0"/>
      <point x="214.0" y="88.0"/>
      <point x="242.0" y="208.0" type="curve" smooth="yes"/>
      <point x="327.0" y="577.0" type="line" smooth="yes"/>
      <point x="360.0" y="719.0"/>
      <point x="342.0" y="764.0"/>
    </contour>
  </outline>
</glyph>
<glyph name="seven" format="2">
  <advance height="1920" width="334"/>
  <unicode hex="0037"/>
  <outline>
    <contour>
      <point x="501.0" y="1381.0" type="curve" smooth="yes"/>
      <point x="2.0" y="14.0" type="line" smooth="yes"/>
      <point x="-2.0" y="4.0"/>
      <point x="-10.0" y="-3.0"/>
      <point x="-19.0" y="-3.0" type="curve" smooth="yes"/>
      <point x="-21.0" y="-3.0" type="line" smooth="yes"/>
      <point x="-30.0" y="-3.0"/>
      <point x="-31.0" y="5.0"/>
      <point x="-28.0" y="14.0" type="curve" smooth="yes"/>
      <point x="472.0" y="1370.0" type="line"/>
      <point x="238.0" y="1370.0" type="line" smooth="yes"/>
      <point x="226.0" y="1370.0"/>
      <point x="221.0" y="1375.0"/>
      <point x="223.0" y="1384.0" type="curve" smooth="yes"/>
      <point x="223.0" y="1386.0" type="line" smooth="yes"/>
      <point x="225.0" y="1395.0"/>
      <point x="233.0" y="1400.0"/>
      <point x="245.0" y="1400.0" type="curve" smooth="yes"/>
      <point x="488.0" y="1400.0" type="line" smooth="yes"/>
      <point x="499.0" y="1400.0"/>
      <point x="506.0" y="1396.0"/>
    </contour>
  </outline>
</glyph>
<glyph name="eight" format="2">
  <advance height="1920" width="396"/>
  <unicode hex="0038"/>
  <outline>
    <contour>
      <point x="83.0" y="25.0" type="curve" smooth="yes"/>
      <point x="158.0" y="25.0"/>
      <point x="186.0" y="68.0"/>
      <point x="210.0" y="171.0" type="curve" smooth="yes"/>
      <point x="299.0" y="554.0" type="line" smooth="yes"/>
      <point x="318.0" y="638.0"/>
      <point x="322.0" y="692.0"/>
      <point x="237.0" y="692.0" type="curve" smooth="yes"/>
      <point x="152.0" y="692.0"/>
      <point x="132.0" y="638.0"/>
      <point x="113.0" y="554.0" type="curve" smooth="yes"/>
      <point x="24.0" y="171.0" type="line" smooth="yes"/>
      <point x="0.0" y="68.0"/>
      <point x="8.0" y="25.0"/>
    </contour>
    <contour>
      <point x="244.0" y="722.0" type="curve" smooth="yes"/>
      <point x="299.0" y="722.0"/>
      <point x="337.0" y="764.0"/>
      <point x="357.0" y="852.0" type="curve" smooth="yes"/>
      <point x="447.0" y="1243.0" type="line" smooth="yes"/>
      <point x="468.0" y="1336.0"/>
      <point x="448.0" y="1375.0"/>
      <point x="394.0" y="1375.0" type="curve" smooth="yes"/>
      <point x="340.0" y="1375.0"/>
      <point x="302.0" y="1336.0"/>
      <point x="281.0" y="1243.0" type="curve" smooth="yes"/>
      <point x="191.0" y="852.0" type="line" smooth="yes"/>
      <point x="171.0" y="764.0"/>
      <point x="189.0" y="722.0"/>
    </contour>
    <contour>
      <point x="257.0" y="712.0" type="line"/>
      <point x="347.0" y="712.0"/>
      <point x="352.0" y="652.0"/>
      <point x="325.0" y="536.0" type="curve" smooth="yes"/>
      <point x="241.0" y="174.0" type="line" smooth="yes"/>
      <point x="212.0" y="50.0"/>
      <point x="180.0" y="-5.0"/>
      <point x="76.0" y="-5.0" type="curve" smooth="yes"/>
      <point x="-28.0" y="-5.0"/>
      <point x="-34.0" y="50.0"/>
      <point x="-5.0" y="174.0" type="curve" smooth="yes"/>
      <point x="79.0" y="536.0" type="line" smooth="yes"/>
      <point x="106.0" y="652.0"/>
      <point x="136.0" y="712.0"/>
      <point x="226.0" y="712.0" type="curve"/>
      <point x="225.0" y="702.0" type="line"/>
      <point x="163.0" y="705.0"/>
      <point x="137.0" y="749.0"/>
      <point x="165.0" y="869.0" type="curve" smooth="yes"/>
      <point x="251.0" y="1241.0" type="line" smooth="yes"/>
      <point x="277.0" y="1352.0"/>
      <point x="317.0" y="1405.0"/>
      <point x="401.0" y="1405.0" type="curve" smooth="yes"/>
      <point x="485.0" y="1405.0"/>
      <point x="503.0" y="1352.0"/>
      <point x="477.0" y="1241.0" type="curve" smooth="yes"/>
      <point x="391.0" y="869.0" type="line" smooth="yes"/>
      <point x="363.0" y="749.0"/>
      <point x="318.0" y="705.0"/>
      <point x="254.0" y="702.0" type="curve"/>
    </contour>
  </outline>
</glyph>
<glyph name="less" format="2">
  <advance height="1920" width="489"/>
  <unicode hex="003C"/>
  <outline>
    <contour>
      <point x="382.0" y="373.0" type="curve" smooth="yes"/>
      <point x="65.0" y="591.0" type="line" smooth="yes"/>
      <point x="62.0" y="593.0"/>
      <point x="60.0" y="595.0"/>
      <point x="61.0" y="599.0" type="curve" smooth="yes"/>
      <point x="62.0" y="601.0" type="line" smooth="yes"/>
      <point x="63.0" y="605.0"/>
      <point x="66.0" y="607.0"/>
      <point x="70.0" y="609.0" type="curve" smooth="yes"/>
      <point x="497.0" y="832.0" type="line" smooth="yes"/>
      <point x="507.0" y="837.0"/>
      <point x="514.0" y="832.0"/>
      <point x="512.0" y="823.0" type="curve" smooth="yes"/>
      <point x="512.0" y="822.0" type="line" smooth="yes"/>
      <point x="510.0" y="815.0"/>
      <point x="504.0" y="811.0"/>
      <point x="496.0" y="807.0" type="curve" smooth="yes"/>
      <point x="98.0" y="600.0" type="line"/>
      <point x="396.0" y="396.0" type="line" smooth="yes"/>
      <point x="405.0" y="390.0"/>
      <point x="410.0" y="385.0"/>
      <point x="409.0" y="379.0" type="curve" smooth="yes"/>
      <point x="409.0" y="378.0" type="line" smooth="yes"/>
      <point x="406.0" y="367.0"/>
      <point x="393.0" y="366.0"/>
    </contour>
  </outline>
</glyph>
<glyph name="equal" format="2">
  <advance height="1920" width="530"/>
  <unicode hex="003D"/>
  <outline>
    <contour>
      <point x="21.0" y="428.0" type="curve" smooth="yes"/>
      <point x="21.0" y="430.0" type="line" smooth="yes"/>
      <point x="23.0" y="439.0"/>
      <point x="30.0" y="444.0"/>
      <point x="41.0" y="444.0" type="curve" smooth="yes"/>
      <point x="455.0" y="444.0" type="line" smooth="yes"/>
      <point x="466.0" y="444.0"/>
      <point x="469.0" y="437.0"/>
      <point x="467.0" y="430.0" type="curve" smooth="yes"/>
      <point x="467.0" y="428.0" type="line" smooth="yes"/>
      <point x="465.0" y="421.0"/>
      <point x="459.0" y="414.0"/>
      <point x="448.0" y="414.0" type="curve" smooth="yes"/>
      <point x="34.0" y="414.0" type="line" smooth="yes"/>
      <point x="23.0" y="414.0"/>
      <point x="19.0" y="419.0"/>
    </contour>
    <contour>
      <point x="52.0" y="565.0" type="curve" smooth="yes"/>
      <point x="53.0" y="567.0" type="line" smooth="yes"/>
      <point x="55.0" y="576.0"/>
      <point x="61.0" y="581.0"/>
      <point x="72.0" y="581.0" type="curve" smooth="yes"/>
      <point x="486.0" y="581.0" type="line" smooth="yes"/>
      <point x="497.0" y="581.0"/>
      <point x="501.0" y="574.0"/>
      <point x="499.0" y="567.0" type="curve" smooth="yes"/>
      <point x="498.0" y="565.0" type="line" smooth="yes"/>
      <point x="496.0" y="558.0"/>
      <point x="490.0" y="551.0"/>
      <point x="479.0" y="551.0" type="curve" smooth="yes"/>
      <point x="65.0" y="551.0" type="line" smooth="yes"/>
      <point x="54.0" y="551.0"/>
      <point x="50.0" y="556.0"/>
    </contour>
  </outline>
</glyph>
<glyph name="greater" format="2">
  <advance height="1920" width="489"/>
  <unicode hex="003E"/>
  <outline>
    <contour>
      <point x="144.0" y="827.0" type="curve" smooth="yes"/>
      <point x="461.0" y="609.0" type="line" smooth="yes"/>
      <point x="464.0" y="607.0"/>
      <point x="466.0" y="605.0"/>
      <point x="465.0" y="601.0" type="curve" smooth="yes"/>
      <point x="464.0" y="599.0" type="line" smooth="yes"/>
      <point x="463.0" y="595.0"/>
      <point x="460.0" y="593.0"/>
      <point x="456.0" y="591.0" type="curve" smooth="yes"/>
      <point x="29.0" y="368.0" type="line" smooth="yes"/>
      <point x="19.0" y="363.0"/>
      <point x="12.0" y="368.0"/>
      <point x="14.0" y="377.0" type="curve" smooth="yes"/>
      <point x="14.0" y="378.0" type="line" smooth="yes"/>
      <point x="16.0" y="385.0"/>
      <point x="22.0" y="389.0"/>
      <point x="30.0" y="393.0" type="curve" smooth="yes"/>
      <point x="429.0" y="600.0" type="line"/>
      <point x="130.0" y="804.0" type="line" smooth="yes"/>
      <point x="121.0" y="810.0"/>
      <point x="116.0" y="815.0"/>
      <point x="117.0" y="821.0" type="curve" smooth="yes"/>
      <point x="117.0" y="822.0" type="line" smooth="yes"/>
      <point x="120.0" y="833.0"/>
      <point x="133.0" y="834.0"/>
    </contour>
  </outline>
</glyph>
<glyph name="question" format="2">
  <advance height="1920" width="396"/>
  <unicode hex="003F"/>
  <outline>
    <contour>
      <point x="70.0" y="-3.0" type="curve" smooth="yes"/>
      <point x="66.0" y="-3.0" type="line" smooth="yes"/>
      <point x="53.0" y="-3.0"/>
      <point x="46.0" y="6.0"/>
      <point x="49.0" y="18.0" type="curve" smooth="yes"/>
      <point x="89.0" y="192.0" type="line" smooth="yes"/>
      <point x="92.0" y="204.0"/>
      <point x="103.0" y="213.0"/>
      <point x="116.0" y="213.0" type="curve" smooth="yes"/>
      <point x="120.0" y="213.0" type="line" smooth="yes"/>
      <point x="133.0" y="213.0"/>
      <point x="138.0" y="204.0"/>
      <point x="135.0" y="192.0" type="curve" smooth="yes"/>
      <point x="95.0" y="18.0" type="line" smooth="yes"/>
      <point x="92.0" y="6.0"/>
      <point x="83.0" y="-3.0"/>
    </contour>
    <contour>
      <point x="162.0" y="397.0" type="curve" smooth="yes"/>
      <point x="161.0" y="397.0" type="line" smooth="yes"/>
      <point x="155.0" y="397.0"/>
      <point x="154.0" y="401.0"/>
      <point x="155.0" y="404.0" type="curve" smooth="yes"/>
      <point x="196.0" y="585.0"/>
      <point x="305.0" y="645.0"/>
      <point x="383.0" y="982.0" type="curve" smooth="yes"/>
      <point x="441.0" y="1233.0" type="line" smooth="yes"/>
      <point x="464.0" y="1333.0"/>
      <point x="468.0" y="1437.0"/>
      <point x="410.0" y="1437.0" type="curve" smooth="yes"/>
      <point x="340.0" y="1437.0"/>
      <point x="305.0" y="1321.0"/>
      <point x="283.0" y="1225.0" type="curve" smooth="yes"/>
      <point x="223.0" y="967.0" type="line" smooth="yes"/>
      <point x="220.0" y="955.0"/>
      <point x="216.0" y="948.0"/>
      <point x="206.0" y="948.0" type="curve" smooth="yes"/>
      <point x="204.0" y="948.0" type="line" smooth="yes"/>
      <point x="194.0" y="948.0"/>
      <point x="190.0" y="955.0"/>
      <point x="193.0" y="967.0" type="curve" smooth="yes"/>
      <point x="253.0" y="1225.0" type="line" smooth="yes"/>
      <point x="279.0" y="1337.0"/>
      <point x="323.0" y="1467.0"/>
      <point x="417.0" y="1467.0" type="curve" smooth="yes"/>
      <point x="505.0" y="1467.0"/>
      <point x="496.0" y="1345.0"/>
      <point x="471.0" y="1235.0" type="curve" smooth="yes"/>
      <point x="415.0" y="994.0" type="line" smooth="yes"/>
      <point x="344.0" y="687.0"/>
      <point x="203.0" y="557.0"/>
      <point x="169.0" y="404.0" type="curve" smooth="yes"/>
      <point x="168.0" y="401.0"/>
      <point x="167.0" y="397.0"/>
    </contour>
  </outline>
</glyph>
<glyph name="A" format="2">
  <advance height="960" width="377"/>
  <unicode hex="0041"/>
  <anchor x="67.0" y="0.0" name="bottom"/>
  <anchor x="210.0" y="0.0" name="ogonek"/>
  <anchor x="394.0" y="1400.0" name="top"/>
  <outline>
    <contour>
      <point x="88.9658203125" y="475.0" type="line"/>
      <point x="285.965820312" y="475.0" type="line"/>
      <point x="278.965820312" y="445.0" type="line"/>
      <point x="81.9658203125" y="445.0" type="line"/>
    </contour>
    <contour>
      <point x="388.965820312" y="1345.0" type="line"/>
      <point x="-43.0341796875" y="15.0" type="line" smooth="yes"/>
      <point x="-47.0341796875" y="3.0"/>
      <point x="-53.0341796875" y="-4.0"/>
      <point x="-62.0341796875" y="-4.0" type="curve" smooth="yes"/>
      <point x="-63.0341796875" y="-4.0" type="line" smooth="yes"/>
      <point x="-72.0341796875" y="-4.0"/>
      <point x="-74.0341796875" y="3.0"/>
      <point x="-70.0341796875" y="15.0" type="curve" smooth="yes"/>
      <point x="374.965820312" y="1387.0" type="line" smooth="yes"/>
      <point x="377.965820312" y="1396.0"/>
      <point x="386.965820312" y="1404.0"/>
      <point x="398.965820312" y="1404.0" type="curve" smooth="yes"/>
      <point x="405.965820312" y="1404.0" type="line" smooth="yes"/>
      <point x="417.965820312" y="1404.0"/>
      <point x="421.965820312" y="1396.0"/>
      <point x="420.965820312" y="1388.0" type="curve" smooth="yes"/>
      <point x="245.965820312" y="15.0" type="line" smooth="yes"/>
      <point x="243.965820312" y="2.0"/>
      <point x="239.965820312" y="-4.0"/>
      <point x="225.965820312" y="-4.0" type="curve" smooth="yes"/>
      <point x="224.965820312" y="-4.0" type="line" smooth="yes"/>
      <point x="210.965820312" y="-4.0"/>
      <point x="207.965820312" y="1.0"/>
      <point x="209.965820312" y="15.0" type="curve" smooth="yes"/>
    </contour>
  </outline>
</glyph>
<glyph name="B" format="2">
  <advance height="960" width="352"/>
  <unicode hex="0042"/>
  <anchor x="72.0" y="0.0" name="bottom"/>
  <anchor x="395.0" y="1400.0" name="top"/>
  <outline>
    <contour>
      <point x="157.333984375" y="725.0" type="line"/>
      <point x="230.4375" y="725.0" type="line" smooth="yes"/>
      <point x="292.708984375" y="725.0"/>
      <point x="341.403320312" y="802.0"/>
      <point x="373.403320312" y="942.0" type="curve" smooth="yes"/>
      <point x="418.403320312" y="1134.0" type="line" smooth="yes"/>
      <point x="455.403320312" y="1294.0"/>
      <point x="450.7265625" y="1370.0"/>
      <point x="379.427734375" y="1370.0" type="curve" smooth="yes"/>
      <point x="306.326171875" y="1370.0" type="line"/>
    </contour>
    <contour>
      <point x="241.944335938" y="715.0" type="line"/>
      <point x="322.403320312" y="715.0"/>
      <point x="358.403320312" y="655.0"/>
      <point x="316.268554688" y="481.0" type="curve" smooth="yes"/>
      <point x="266.268554688" y="264.0" type="line" smooth="yes"/>
      <point x="220.268554688" y="64.0"/>
      <point x="161.772460938" y="0.0"/>
      <point x="76.9375" y="0.0" type="curve" smooth="yes"/>
      <point x="-14.666015625" y="0.0" type="line" smooth="yes"/>
      <point x="-29.666015625" y="0.0"/>
      <point x="-36.666015625" y="10.0"/>
      <point x="-33.666015625" y="25.0" type="curve" smooth="yes"/>
      <point x="277.333984375" y="1375.0" type="line" smooth="yes"/>
      <point x="280.333984375" y="1390.0"/>
      <point x="293.333984375" y="1400.0"/>
      <point x="308.333984375" y="1400.0" type="curve" smooth="yes"/>
      <point x="390.93359375" y="1400.0" type="line" smooth="yes"/>
      <point x="475.768554688" y="1400.0"/>
      <point x="490.403320312" y="1317.0"/>
      <point x="447.403320312" y="1132.0" type="curve" smooth="yes"/>
      <point x="403.403320312" y="939.0" type="line" smooth="yes"/>
      <point x="370.403320312" y="794.0"/>
      <point x="312.2265625" y="710.0"/>
      <point x="231.904296875" y="710.0" type="curve"/>
    </contour>
    <contour>
      <point x="227.95703125" y="695.0" type="curve" smooth="yes"/>
      <point x="150.333984375" y="695.0" type="line"/>
      <point x="-2.7099609375" y="30.0" type="line"/>
      <point x="74.9052734375" y="30.0" type="line" smooth="yes"/>
      <point x="159.740234375" y="30.0"/>
      <point x="198.268554688" y="96.0"/>
      <point x="238.268554688" y="271.0" type="curve" smooth="yes"/>
      <point x="283.314453125" y="468.0" type="line" smooth="yes"/>
      <point x="319.293945312" y="623.0"/>
      <point x="304.669921875" y="695.0"/>
    </contour>
  </outline>
</glyph>
<glyph name="C" format="2">
  <advance height="960" width="378"/>
  <unicode hex="0043"/>
  <anchor x="106.0" y="0.0" name="bottom"/>
  <anchor x="409.0" y="1400.0" name="top"/>
  <outline>
    <contour>
      <point x="363.290039062" y="603.0" type="curve" smooth="yes"/>
      <point x="354.290039062" y="563.0"/>
      <point x="345.290039062" y="525.0"/>
      <point x="337.290039062" y="490.0" type="curve" smooth="yes"/>
      <point x="244.290039062" y="95.0"/>
      <point x="204.290039062" y="-5.0"/>
      <point x="73.22265625" y="-5.0" type="curve" smooth="yes"/>
      <point x="-54.673828125" y="-5.0"/>
      <point x="-28.673828125" y="129.0"/>
      <point x="24.326171875" y="359.0" type="curve" smooth="yes"/>
      <point x="182.326171875" y="1042.0" type="line" smooth="yes"/>
      <point x="240.326171875" y="1292.0"/>
      <point x="308.92578125" y="1405.0"/>
      <point x="402.786132812" y="1405.0" type="curve" smooth="yes"/>
      <point x="497.677734375" y="1405.0"/>
      <point x="497.99609375" y="1257.26074219"/>
      <point x="457.703125" y="1103.0" type="curve" smooth="yes"/>
      <point x="435.538085938" y="1018.13671875"/>
      <point x="401.08203125" y="931.299804688"/>
      <point x="364.528320312" y="866.0" type="curve" smooth="yes"/>
      <point x="362.514648438" y="862.40234375"/>
      <point x="357.528320312" y="854.0"/>
      <point x="350.528320312" y="854.0" type="curve" smooth="yes"/>
      <point x="349.528320312" y="854.0" type="line" smooth="yes"/>
      <point x="342.55078125" y="854.0"/>
      <point x="343.766601562" y="862.3203125"/>
      <point x="345.528320312" y="866.0" type="curve" smooth="yes"/>
      <point x="478.528320312" y="1129.0"/>
      <point x="497.528320312" y="1375.0"/>
      <point x="395.79296875" y="1375.0" type="curve" smooth="yes"/>
      <point x="324.49609375" y="1375.0"/>
      <point x="257.326171875" y="1241.0"/>
      <point x="212.326171875" y="1046.0" type="curve" smooth="yes"/>
      <point x="53.326171875" y="354.0" type="line" smooth="yes"/>
      <point x="10.326171875" y="169.0"/>
      <point x="-20.8642578125" y="25.0"/>
      <point x="80.21484375" y="25.0" type="curve" smooth="yes"/>
      <point x="194.833007812" y="25.0"/>
      <point x="228.290039062" y="137.0"/>
      <point x="333.290039062" y="603.0" type="curve" smooth="yes"/>
      <point x="334.290039062" y="607.0"/>
      <point x="337.290039062" y="615.0"/>
      <point x="348.290039062" y="615.0" type="curve" smooth="yes"/>
      <point x="349.290039062" y="615.0" type="line" smooth="yes"/>
      <point x="362.290039062" y="615.0"/>
      <point x="364.290039062" y="607.0"/>
    </contour>
  </outline>
</glyph>
<glyph name="D" format="2">
  <advance height="960" width="367"/>
  <unicode hex="0044"/>
  <anchor x="42.0" y="0.0" name="bottom"/>
  <anchor x="380.0" y="1400.0" name="top"/>
  <outline>
    <contour>
      <point x="50.8095703125" y="0.0" type="curve" smooth="yes"/>
      <point x="-14.666015625" y="0.0" type="line" smooth="yes"/>
      <point x="-29.666015625" y="0.0"/>
      <point x="-36.666015625" y="10.0"/>
      <point x="-33.666015625" y="25.0" type="curve" smooth="yes"/>
      <point x="277.333984375" y="1375.0" type="line" smooth="yes"/>
      <point x="280.333984375" y="1390.0"/>
      <point x="293.333984375" y="1400.0"/>
      <point x="308.333984375" y="1400.0" type="curve" smooth="yes"/>
      <point x="373.831054688" y="1400.0" type="line" smooth="yes"/>
      <point x="484.837890625" y="1400.0"/>
      <point x="510.1875" y="1275.0"/>
      <point x="452.1875" y="1022.0" type="curve" smooth="yes"/>
      <point x="301.1875" y="369.0" type="line" smooth="yes"/>
      <point x="243.1875" y="116.0"/>
      <point x="179.8671875" y="0.0"/>
    </contour>
    <contour>
      <point x="57.802734375" y="30.0" type="line" smooth="yes"/>
      <point x="169.711914062" y="30.0"/>
      <point x="222.1875" y="155.0"/>
      <point x="270.1875" y="364.0" type="curve" smooth="yes"/>
      <point x="423.1875" y="1026.0" type="line" smooth="yes"/>
      <point x="471.196289062" y="1235.0"/>
      <point x="459.794921875" y="1370.0"/>
      <point x="366.836914062" y="1370.0" type="curve" smooth="yes"/>
      <point x="306.333984375" y="1370.0" type="line"/>
      <point x="-2.666015625" y="30.0" type="line"/>
    </contour>
  </outline>
</glyph>
<glyph name="E" format="2">
  <advance height="960" width="355"/>
  <unicode hex="0045"/>
  <anchor x="72.0" y="0.0" name="bottom"/>
  <anchor x="180.0" y="0.0" name="ogonek"/>
  <anchor x="395.0" y="1400.0" name="top"/>
  <outline>
    <contour>
      <point x="156.333984375" y="720.0" type="line"/>
      <point x="291.333984375" y="720.0" type="line" smooth="yes"/>
      <point x="303.333984375" y="720.0"/>
      <point x="308.333984375" y="716.0"/>
      <point x="306.333984375" y="708.0" type="curve" smooth="yes"/>
      <point x="306.333984375" y="707.0" type="line" smooth="yes"/>
      <point x="304.333984375" y="699.0"/>
      <point x="297.333984375" y="695.0"/>
      <point x="285.333984375" y="695.0" type="curve" smooth="yes"/>
      <point x="150.333984375" y="695.0" type="line"/>
      <point x="-2.666015625" y="30.0" type="line"/>
      <point x="217.333984375" y="30.0" type="line" smooth="yes"/>
      <point x="228.333984375" y="30.0"/>
      <point x="234.333984375" y="24.0"/>
      <point x="232.333984375" y="16.0" type="curve" smooth="yes"/>
      <point x="231.333984375" y="14.0" type="line" smooth="yes"/>
      <point x="229.333984375" y="6.0"/>
      <point x="221.333984375" y="0.0"/>
      <point x="210.333984375" y="0.0" type="curve" smooth="yes"/>
      <point x="-14.666015625" y="0.0" type="line" smooth="yes"/>
      <point x="-29.666015625" y="0.0"/>
      <point x="-36.666015625" y="10.0"/>
      <point x="-33.666015625" y="25.0" type="curve" smooth="yes"/>
      <point x="277.333984375" y="1375.0" type="line" smooth="yes"/>
      <point x="280.333984375" y="1390.0"/>
      <point x="293.333984375" y="1400.0"/>
      <point x="308.333984375" y="1400.0" type="curve" smooth="yes"/>
      <point x="521.333984375" y="1400.0" type="line" smooth="yes"/>
      <point x="533.333984375" y="1400.0"/>
      <point x="540.333984375" y="1395.0"/>
      <point x="538.333984375" y="1386.0" type="curve" smooth="yes"/>
      <point x="538.333984375" y="1384.0" type="line" smooth="yes"/>
      <point x="536.333984375" y="1374.0"/>
      <point x="526.333984375" y="1370.0"/>
      <point x="514.333984375" y="1370.0" type="curve" smooth="yes"/>
      <point x="306.333984375" y="1370.0" type="line"/>
    </contour>
  </outline>
</glyph>
<glyph name="F" format="2">
  <advance height="960" width="312"/>
  <unicode hex="0046"/>
  <anchor x="52.0" y="0.0" name="bottom"/>
  <anchor x="375.0" y="1400.0" name="top"/>
  <outline>
    <contour>
      <point x="156.337890625" y="720.0" type="line"/>
      <point x="296.337890625" y="720.0" type="line" smooth="yes"/>
      <point x="308.337890625" y="720.0"/>
      <point x="313.337890625" y="716.0"/>
      <point x="311.337890625" y="708.0" type="curve" smooth="yes"/>
      <point x="311.337890625" y="707.0" type="line" smooth="yes"/>
      <point x="309.337890625" y="699.0"/>
      <point x="302.337890625" y="695.0"/>
      <point x="290.337890625" y="695.0" type="curve" smooth="yes"/>
      <point x="150.337890625" y="695.0" type="line"/>
      <point x="-6.662109375" y="15.0" type="line" smooth="yes"/>
      <point x="-9.662109375" y="4.0"/>
      <point x="-14.662109375" y="-3.0"/>
      <point x="-24.662109375" y="-3.0" type="curve" smooth="yes"/>
      <point x="-26.662109375" y="-3.0" type="line" smooth="yes"/>
      <point x="-36.662109375" y="-3.0"/>
      <point x="-39.662109375" y="4.0"/>
      <point x="-36.662109375" y="15.0" type="curve" smooth="yes"/>
      <point x="277.337890625" y="1375.0" type="line" smooth="yes"/>
      <point x="280.337890625" y="1390.0"/>
      <point x="293.337890625" y="1400.0"/>
      <point x="308.337890625" y="1400.0" type="curve" smooth="yes"/>
      <point x="495.337890625" y="1400.0" type="line" smooth="yes"/>
      <point x="509.337890625" y="1400.0"/>
      <point x="515.337890625" y="1395.0"/>
      <point x="513.337890625" y="1386.0" type="curve" smooth="yes"/>
      <point x="513.337890625" y="1384.0" type="line" smooth="yes"/>
      <point x="511.337890625" y="1375.0"/>
      <point x="502.337890625" y="1370.0"/>
      <point x="488.337890625" y="1370.0" type="curve" smooth="yes"/>
      <point x="306.337890625" y="1370.0" type="line"/>
    </contour>
  </outline>
</glyph>
<glyph name="G" format="2">
  <advance height="960" width="378"/>
  <unicode hex="0047"/>
  <anchor x="92.0" y="0.0" name="bottom"/>
  <anchor x="414.0" y="1400.0" name="top"/>
  <outline>
    <contour>
      <point x="258.426757812" y="645.0" type="curve" smooth="yes"/>
      <point x="258.44921875" y="646.0" type="line" smooth="yes"/>
      <point x="260.411132812" y="653.0"/>
      <point x="265.08203125" y="660.0"/>
      <point x="277.716796875" y="660.0" type="curve" smooth="yes"/>
      <point x="352.779296875" y="660.0" type="line" smooth="yes"/>
      <point x="367.779296875" y="660.0"/>
      <point x="375.779296875" y="649.0"/>
      <point x="371.275390625" y="635.0" type="curve" smooth="yes"/>
      <point x="227.275390625" y="13.0" type="line" smooth="yes"/>
      <point x="224.275390625" y="0.0"/>
      <point x="219.275390625" y="-3.0"/>
      <point x="215.275390625" y="-3.0" type="curve" smooth="yes"/>
      <point x="214.275390625" y="-3.0" type="line" smooth="yes"/>
      <point x="210.275390625" y="-3.0"/>
      <point x="208.275390625" y="0.0"/>
      <point x="211.275390625" y="13.0" type="curve" smooth="yes"/>
      <point x="314.275390625" y="520.0" type="line"/>
      <point x="362.275390625" y="640.0" type="line"/>
      <point x="242.275390625" y="165.0"/>
      <point x="176.107421875" y="-5.0"/>
      <point x="59.6845703125" y="-5.0" type="curve" smooth="yes"/>
      <point x="-35.61328125" y="-5.0"/>
      <point x="-38.61328125" y="89.0"/>
      <point x="28.38671875" y="379.0" type="curve" smooth="yes"/>
      <point x="177.38671875" y="1022.0" type="line" smooth="yes"/>
      <point x="235.38671875" y="1272.0"/>
      <point x="289.38671875" y="1405.0"/>
      <point x="402.786132812" y="1405.0" type="curve" smooth="yes"/>
      <point x="510.779296875" y="1405.0"/>
      <point x="509.779296875" y="1310.0"/>
      <point x="467.779296875" y="1124.0" type="curve" smooth="yes"/>
      <point x="448.779296875" y="1040.0"/>
      <point x="431.779296875" y="961.0"/>
      <point x="412.779296875" y="877.0" type="curve" smooth="yes"/>
      <point x="409.779296875" y="865.0"/>
      <point x="402.779296875" y="860.0"/>
      <point x="395.779296875" y="860.0" type="curve" smooth="yes"/>
      <point x="393.779296875" y="860.0" type="line" smooth="yes"/>
      <point x="386.779296875" y="860.0"/>
      <point x="379.80078125" y="865.0"/>
      <point x="382.779296875" y="877.0" type="curve" smooth="yes"/>
      <point x="467.91015625" y="1251.0"/>
      <point x="503.779296875" y="1375.0"/>
      <point x="395.793945312" y="1375.0" type="curve" smooth="yes"/>
      <point x="300.127929688" y="1375.0"/>
      <point x="253.341796875" y="1221.0"/>
      <point x="208.33984375" y="1026.0" type="curve" smooth="yes"/>
      <point x="57.38671875" y="374.0" type="line" smooth="yes"/>
      <point x="3.3623046875" y="139.0"/>
      <point x="-10.03515625" y="25.0"/>
      <point x="66.677734375" y="25.0" type="curve" smooth="yes"/>
      <point x="160.538085938" y="25.0"/>
      <point x="223.501953125" y="176.0"/>
      <point x="341.298828125" y="638.0" type="curve"/>
      <point x="345.275390625" y="630.0" type="line"/>
      <point x="270.723632812" y="630.0" type="line" smooth="yes"/>
      <point x="258.087890625" y="630.0"/>
      <point x="256.463867188" y="638.0"/>
    </contour>
  </outline>
</glyph>
<glyph name="H" format="2">
  <advance height="960" width="361"/>
  <unicode hex="0048"/>
  <anchor x="62.0" y="0.0" name="bottom"/>
  <anchor x="384.0" y="1400.0" name="top"/>
  <outline>
    <contour>
      <point x="505.231445312" y="1403.0" type="curve" smooth="yes"/>
      <point x="507.231445312" y="1403.0" type="line" smooth="yes"/>
      <point x="518.231445312" y="1403.0"/>
      <point x="518.231445312" y="1393.0"/>
      <point x="515.231445312" y="1379.0" type="curve" smooth="yes"/>
      <point x="201.231445312" y="17.0" type="line" smooth="yes"/>
      <point x="198.231445312" y="3.0"/>
      <point x="189.231445312" y="-3.0"/>
      <point x="182.231445312" y="-3.0" type="curve" smooth="yes"/>
      <point x="180.231445312" y="-3.0" type="line" smooth="yes"/>
      <point x="173.231445312" y="-3.0"/>
      <point x="168.231445312" y="3.0"/>
      <point x="171.231445312" y="17.0" type="curve" smooth="yes"/>
      <point x="327.25390625" y="695.0" type="line"/>
      <point x="144.911132812" y="695.0" type="line"/>
      <point x="-11.103515625" y="17.0" type="line" smooth="yes"/>
      <point x="-14.1259765625" y="3.0"/>
      <point x="-22.0888671875" y="-3.0"/>
      <point x="-30.0888671875" y="-3.0" type="curve" smooth="yes"/>
      <point x="-32.0888671875" y="-3.0" type="line" smooth="yes"/>
      <point x="-40.0888671875" y="-3.0"/>
      <point x="-44.0888671875" y="3.0"/>
      <point x="-41.0888671875" y="17.0" type="curve" smooth="yes"/>
      <point x="272.911132812" y="1379.0" type="line" smooth="yes"/>
      <point x="275.911132812" y="1393.0"/>
      <point x="281.911132812" y="1403.0"/>
      <point x="292.911132812" y="1403.0" type="curve" smooth="yes"/>
      <point x="294.911132812" y="1403.0" type="line" smooth="yes"/>
      <point x="305.911132812" y="1403.0"/>
      <point x="305.911132812" y="1393.0"/>
      <point x="302.911132812" y="1379.0" type="curve" smooth="yes"/>
      <point x="150.911132812" y="720.0" type="line"/>
      <point x="333.231445312" y="720.0" type="line"/>
      <point x="485.245117188" y="1379.0" type="line" smooth="yes"/>
      <point x="488.267578125" y="1393.0"/>
      <point x="494.231445312" y="1403.0"/>
    </contour>
  </outline>
</glyph>
<glyph name="I" format="2">
  <advance height="960" width="156"/>
  <unicode hex="0049"/>
  <anchor x="-51.0" y="0.0" name="bottom"/>
  <anchor x="-51.0" y="0.0" name="ogonek"/>
  <anchor x="273.0" y="1400.0" name="top"/>
  <outline>
    <contour>
      <point x="279.381835938" y="1403.0" type="curve" smooth="yes"/>
      <point x="281.381835938" y="1403.0" type="line" smooth="yes"/>
      <point x="292.381835938" y="1403.0"/>
      <point x="291.381835938" y="1389.0"/>
      <point x="288.381835938" y="1375.0" type="curve" smooth="yes"/>
      <point x="-22.6181640625" y="25.0" type="line" smooth="yes"/>
      <point x="-27.6181640625" y="5.0"/>
      <point x="-33.6181640625" y="-3.0"/>
      <point x="-43.6181640625" y="-3.0" type="curve" smooth="yes"/>
      <point x="-45.6181640625" y="-3.0" type="line" smooth="yes"/>
      <point x="-55.6181640625" y="-3.0"/>
      <point x="-57.6181640625" y="5.0"/>
      <point x="-52.6181640625" y="25.0" type="curve" smooth="yes"/>
      <point x="258.381835938" y="1375.0" type="line" smooth="yes"/>
      <point x="261.381835938" y="1389.0"/>
      <point x="268.381835938" y="1403.0"/>
    </contour>
  </outline>
</glyph>
<glyph name="J" format="2">
  <advance height="960" width="315"/>
  <unicode hex="004A"/>
  <anchor x="9.0" y="0.0" name="bottom"/>
  <anchor x="431.0" y="1400.0" name="top"/>
  <outline>
    <contour>
      <point x="424.0" y="1405.0" type="curve" smooth="yes"/>
      <point x="426.0" y="1405.0" type="line" smooth="yes"/>
      <point x="435.0" y="1405.0"/>
      <point x="439.462699343" y="1396.66215181"/>
      <point x="437.0" y="1386.0" type="curve" smooth="yes"/>
      <point x="179.0" y="269.0" type="line" smooth="yes"/>
      <point x="130.0" y="56.0"/>
      <point x="105.0" y="-5.0"/>
      <point x="16.0" y="-5.0" type="curve" smooth="yes"/>
      <point x="-68.0" y="-5.0"/>
      <point x="-73.2966955104" y="77.7117586252"/>
      <point x="-5.0" y="239.0" type="curve" smooth="yes"/>
      <point x="172.0" y="657.0" type="line" smooth="yes"/>
      <point x="173.740338651" y="661.109952294"/>
      <point x="176.0" y="665.0"/>
      <point x="181.0" y="665.0" type="curve" smooth="yes"/>
      <point x="182.0" y="665.0" type="line" smooth="yes"/>
      <point x="187.0" y="665.0"/>
      <point x="189.723977297" y="661.115622101"/>
      <point x="188.0" y="657.0" type="curve" smooth="yes"/>
      <point x="15.0" y="244.0" type="line" smooth="yes"/>
      <point x="-42.5513321827" y="106.608669414"/>
      <point x="-38.0" y="25.0"/>
      <point x="23.0" y="25.0" type="curve" smooth="yes"/>
      <point x="88.0" y="25.0"/>
      <point x="107.0" y="84.0"/>
      <point x="146.0" y="254.0" type="curve" smooth="yes"/>
      <point x="407.0" y="1386.0" type="line" smooth="yes"/>
      <point x="409.677602451" y="1397.61320297"/>
      <point x="415.0" y="1405.0"/>
    </contour>
  </outline>
</glyph>
<glyph name="K" format="2">
  <advance height="960" width="347"/>
  <unicode hex="004B"/>
  <anchor x="46.0" y="0.0" name="bottom"/>
  <anchor x="369.0" y="1400.0" name="top"/>
  <outline>
    <contour>
      <point x="292.920898438" y="1403.0" type="curve" smooth="yes"/>
      <point x="294.920898438" y="1403.0" type="line" smooth="yes"/>
      <point x="303.920898438" y="1403.0"/>
      <point x="306.859375" y="1394.0"/>
      <point x="303.836914062" y="1380.0" type="curve" smooth="yes"/>
      <point x="-12.0791015625" y="15.0" type="line" smooth="yes"/>
      <point x="-15.0791015625" y="3.0"/>
      <point x="-21.0791015625" y="-3.0"/>
      <point x="-30.0791015625" y="-3.0" type="curve" smooth="yes"/>
      <point x="-32.0791015625" y="-3.0" type="line" smooth="yes"/>
      <point x="-41.0791015625" y="-3.0"/>
      <point x="-45.0791015625" y="3.0"/>
      <point x="-42.0791015625" y="15.0" type="curve" smooth="yes"/>
      <point x="273.920898438" y="1380.0" type="line" smooth="yes"/>
      <point x="276.920898438" y="1394.0"/>
      <point x="283.920898438" y="1403.0"/>
    </contour>
    <contour>
      <point x="205.879882812" y="757.0" type="line"/>
      <point x="236.626953125" y="815.0" type="line"/>
      <point x="215.600585938" y="19.0" type="line" smooth="yes"/>
      <point x="215.600585938" y="6.0"/>
      <point x="207.600585938" y="-3.0"/>
      <point x="196.600585938" y="-3.0" type="curve" smooth="yes"/>
      <point x="195.600585938" y="-3.0" type="line" smooth="yes"/>
      <point x="181.600585938" y="-3.0"/>
      <point x="180.600585938" y="6.0"/>
      <point x="180.600585938" y="19.0" type="curve" smooth="yes"/>
    </contour>
    <contour>
      <point x="503.626953125" y="1386.0" type="line" smooth="yes"/>
      <point x="509.626953125" y="1398.0"/>
      <point x="516.626953125" y="1403.0"/>
      <point x="523.626953125" y="1403.0" type="curve" smooth="yes"/>
      <point x="524.626953125" y="1403.0" type="line" smooth="yes"/>
      <point x="534.626953125" y="1403.0"/>
      <point x="536.626953125" y="1394.0"/>
      <point x="531.626953125" y="1383.0" type="curve" smooth="yes"/>
      <point x="209.626953125" y="715.0" type="line"/>
      <point x="209.626953125" y="723.0" type="line"/>
      <point x="51.9208984375" y="385.0" type="line"/>
      <point x="65.9208984375" y="460.0" type="line"/>
    </contour>
  </outline>
</glyph>
<glyph name="L" format="2">
  <advance height="960" width="259"/>
  <unicode hex="004C"/>
  <anchor x="46.0" y="0.0" name="bottom"/>
  <anchor x="289.0" y="1400.0" name="top"/>
  <outline>
    <contour>
      <point x="292.852539062" y="1403.0" type="curve" smooth="yes"/>
      <point x="294.852539062" y="1403.0" type="line" smooth="yes"/>
      <point x="305.852539062" y="1403.0"/>
      <point x="306.852539062" y="1392.0"/>
      <point x="304.852539062" y="1385.0" type="curve" smooth="yes"/>
      <point x="-8.1474609375" y="30.0" type="line"/>
      <point x="131.852539062" y="30.0" type="line" smooth="yes"/>
      <point x="142.852539062" y="30.0"/>
      <point x="148.852539062" y="26.0"/>
      <point x="146.852539062" y="16.0" type="curve" smooth="yes"/>
      <point x="145.852539062" y="14.0" type="line" smooth="yes"/>
      <point x="143.852539062" y="4.0"/>
      <point x="135.852539062" y="0.0"/>
      <point x="124.852539062" y="0.0" type="curve" smooth="yes"/>
      <point x="-20.1474609375" y="0.0" type="line" smooth="yes"/>
      <point x="-34.1474609375" y="0.0"/>
      <point x="-42.1474609375" y="11.0"/>
      <point x="-39.1474609375" y="25.0" type="curve" smooth="yes"/>
      <point x="274.852539062" y="1385.0" type="line" smooth="yes"/>
      <point x="276.852539062" y="1392.0"/>
      <point x="281.852539062" y="1403.0"/>
    </contour>
  </outline>
</glyph>
<glyph name="M" format="2">
  <advance height="960" width="461"/>
  <unicode hex="004D"/>
  <anchor x="134.0" y="0.0" name="bottom"/>
  <anchor x="459.0" y="1400.0" name="top"/>
  <outline>
    <contour>
      <point x="270.865234375" y="1260.0" type="line"/>
      <point x="-17.0791015625" y="15.0" type="line" smooth="yes"/>
      <point x="-19.0869140625" y="6.0"/>
      <point x="-24.0791015625" y="-3.0"/>
      <point x="-33.0791015625" y="-3.0" type="curve" smooth="yes"/>
      <point x="-34.0791015625" y="-3.0" type="line" smooth="yes"/>
      <point x="-43.0791015625" y="-3.0"/>
      <point x="-44.0791015625" y="6.0"/>
      <point x="-42.0791015625" y="15.0" type="curve" smooth="yes"/>
      <point x="271.920898438" y="1375.0" type="line" smooth="yes"/>
      <point x="274.920898438" y="1390.0"/>
      <point x="283.920898438" y="1403.0"/>
      <point x="296.920898438" y="1403.0" type="curve" smooth="yes"/>
      <point x="298.920898438" y="1403.0" type="line" smooth="yes"/>
      <point x="309.28125" y="1403.0"/>
      <point x="311.786132812" y="1394.0"/>
      <point x="309.643554688" y="1379.0" type="curve" smooth="yes"/>
      <point x="158.87890625" y="134.0" type="line"/>
      <point x="578.634765625" y="1381.0" type="line" smooth="yes"/>
      <point x="583.461914062" y="1395.0"/>
      <point x="591.915039062" y="1403.0"/>
      <point x="601.915039062" y="1403.0" type="curve" smooth="yes"/>
      <point x="602.915039062" y="1403.0" type="line" smooth="yes"/>
      <point x="614.915039062" y="1403.0"/>
      <point x="617.915039062" y="1393.0"/>
      <point x="614.915039062" y="1379.0" type="curve" smooth="yes"/>
      <point x="299.915039062" y="15.0" type="line" smooth="yes"/>
      <point x="297.915039062" y="6.0"/>
      <point x="292.915039062" y="-3.0"/>
      <point x="281.915039062" y="-3.0" type="curve" smooth="yes"/>
      <point x="279.915039062" y="-3.0" type="line" smooth="yes"/>
      <point x="268.915039062" y="-3.0"/>
      <point x="267.915039062" y="6.0"/>
      <point x="269.915039062" y="15.0" type="curve" smooth="yes"/>
      <point x="556.915039062" y="1254.0" type="line"/>
      <point x="132.510742188" y="5.0" type="line" smooth="yes"/>
      <point x="131.517578125" y="1.0"/>
      <point x="129.645507812" y="-2.0"/>
      <point x="126.03515625" y="-2.0" type="curve" smooth="yes"/>
      <point x="125.1328125" y="-2.0" type="line" smooth="yes"/>
      <point x="121.522460938" y="-2.0"/>
      <point x="119.78515625" y="1.0"/>
      <point x="119.875" y="5.0" type="curve" smooth="yes"/>
    </contour>
  </outline>
</glyph>
<glyph name="N" format="2">
  <advance height="960" width="361"/>
  <unicode hex="004E"/>
  <anchor x="76.0" y="0.0" name="bottom"/>
  <anchor x="404.0" y="1400.0" name="top"/>
  <outline>
    <contour>
      <point x="505.249023438" y="1403.0" type="curve" smooth="yes"/>
      <point x="507.249023438" y="1403.0" type="line" smooth="yes"/>
      <point x="518.249023438" y="1403.0"/>
      <point x="519.249023438" y="1394.0"/>
      <point x="515.249023438" y="1378.0" type="curve" smooth="yes"/>
      <point x="200.249023438" y="15.0" type="line" smooth="yes"/>
      <point x="197.249023438" y="1.0"/>
      <point x="192.249023438" y="-3.0"/>
      <point x="188.249023438" y="-3.0" type="curve" smooth="yes"/>
      <point x="187.249023438" y="-3.0" type="line" smooth="yes"/>
      <point x="183.249023438" y="-3.0"/>
      <point x="178.249023438" y="0.0"/>
      <point x="179.249023438" y="15.0" type="curve" smooth="yes"/>
      <point x="280.919921875" y="1388.0" type="line"/>
      <point x="291.876953125" y="1328.0" type="line"/>
      <point x="-12.080078125" y="15.0" type="line" smooth="yes"/>
      <point x="-14.083984375" y="6.0"/>
      <point x="-19.0791015625" y="-3.0"/>
      <point x="-30.0791015625" y="-3.0" type="curve" smooth="yes"/>
      <point x="-32.0791015625" y="-3.0" type="line" smooth="yes"/>
      <point x="-43.0791015625" y="-3.0"/>
      <point x="-44.080078125" y="6.0"/>
      <point x="-42.080078125" y="15.0" type="curve" smooth="yes"/>
      <point x="274.920898438" y="1385.0" type="line" smooth="yes"/>
      <point x="277.920898438" y="1396.0"/>
      <point x="283.919921875" y="1403.0"/>
      <point x="291.919921875" y="1403.0" type="curve" smooth="yes"/>
      <point x="292.919921875" y="1403.0" type="line" smooth="yes"/>
      <point x="300.919921875" y="1403.0"/>
      <point x="305.919921875" y="1394.0"/>
      <point x="304.861328125" y="1383.0" type="curve" smooth="yes"/>
      <point x="209.249023438" y="76.0" type="line"/>
      <point x="198.274414062" y="136.0" type="line"/>
      <point x="485.249023438" y="1378.0" type="line" smooth="yes"/>
      <point x="489.249023438" y="1394.0"/>
      <point x="494.249023438" y="1403.0"/>
    </contour>
  </outline>
</glyph>
<glyph name="P" format="2">
  <advance height="960" width="322"/>
  <unicode hex="0050"/>
  <anchor x="-32.0" y="0.0" name="bottom"/>
  <anchor x="365.0" y="1400.0" name="top"/>
  <outline>
    <contour>
      <point x="306.318359375" y="1370.0" type="line"/>
      <point x="144.244140625" y="665.0" type="line"/>
      <point x="189.369140625" y="665.0" type="line" smooth="yes"/>
      <point x="244.420898438" y="665.0"/>
      <point x="294.374023438" y="679.0"/>
      <point x="336.331054688" y="859.0" type="curve" smooth="yes"/>
      <point x="406.331054688" y="1161.0" type="line" smooth="yes"/>
      <point x="443.331054688" y="1321.0"/>
      <point x="415.520507812" y="1370.0"/>
      <point x="342.418945312" y="1370.0" type="curve" smooth="yes"/>
    </contour>
    <contour>
      <point x="326.848632812" y="1400.0" type="line" smooth="yes"/>
      <point x="447.783203125" y="1400.0"/>
      <point x="480.331054688" y="1351.0"/>
      <point x="433.331054688" y="1146.0" type="curve" smooth="yes"/>
      <point x="370.331054688" y="874.0" type="line" smooth="yes"/>
      <point x="323.331054688" y="669.0"/>
      <point x="264.50390625" y="635.0"/>
      <point x="168.837890625" y="635.0" type="curve" smooth="yes"/>
      <point x="137.250976562" y="635.0" type="line"/>
      <point x="-6.6650390625" y="15.0" type="line" smooth="yes"/>
      <point x="-8.6728515625" y="6.0"/>
      <point x="-12.6650390625" y="-4.0"/>
      <point x="-24.6650390625" y="-4.0" type="curve" smooth="yes"/>
      <point x="-26.6650390625" y="-4.0" type="line" smooth="yes"/>
      <point x="-38.6650390625" y="-4.0"/>
      <point x="-38.6650390625" y="6.0"/>
      <point x="-36.6650390625" y="15.0" type="curve" smooth="yes"/>
      <point x="277.334960938" y="1375.0" type="line" smooth="yes"/>
      <point x="280.334960938" y="1389.0"/>
      <point x="294.3359375" y="1400.0"/>
      <point x="308.3359375" y="1400.0" type="curve" smooth="yes"/>
    </contour>
  </outline>
</glyph>
<glyph name="Q" format="2">
  <advance height="960" width="472"/>
  <unicode hex="0051"/>
  <anchor x="96.0" y="0.0" name="bottom"/>
  <anchor x="409.0" y="1400.0" name="top"/>
  <outline>
    <contour>
      <point x="363.288085938" y="18.0" type="curve" smooth="yes"/>
      <point x="362.288085938" y="15.0" type="line" smooth="yes"/>
      <point x="360.288085938" y="7.0"/>
      <point x="352.288085938" y="0.0"/>
      <point x="346.288085938" y="-2.0" type="curve" smooth="yes"/>
      <point x="243.288085938" y="-38.0"/>
      <point x="202.288085938" y="36.0"/>
      <point x="245.288085938" y="179.0" type="curve"/>
      <point x="280.288085938" y="294.0" type="line"/>
      <point x="240.288085938" y="119.0"/>
      <point x="188.720703125" y="-5.0"/>
      <point x="81.3232421875" y="-5.0" type="curve" smooth="yes"/>
      <point x="-45.6298828125" y="-5.0"/>
      <point x="-30.6298828125" y="119.0"/>
      <point x="9.3701171875" y="294.0" type="curve" smooth="yes"/>
      <point x="196.370117188" y="1106.0" type="line" smooth="yes"/>
      <point x="241.370117188" y="1301.0"/>
      <point x="293.370117188" y="1405.0"/>
      <point x="406.374023438" y="1405.0" type="curve" smooth="yes"/>
      <point x="519.288085938" y="1405.0"/>
      <point x="524.288085938" y="1301.0"/>
      <point x="479.288085938" y="1106.0" type="curve" smooth="yes"/>
      <point x="264.288085938" y="174.0" type="line" smooth="yes"/>
      <point x="240.288085938" y="72.0"/>
      <point x="256.288085938" y="-10.0"/>
      <point x="351.288085938" y="28.0" type="curve" smooth="yes"/>
      <point x="356.288085938" y="30.0"/>
      <point x="365.288085938" y="26.0"/>
    </contour>
    <contour>
      <point x="258.288085938" y="279.0" type="curve" smooth="yes"/>
      <point x="453.288085938" y="1122.0" type="line" smooth="yes"/>
      <point x="492.297851562" y="1293.0"/>
      <point x="484.216796875" y="1375.0"/>
      <point x="399.380859375" y="1375.0" type="curve" smooth="yes"/>
      <point x="314.545898438" y="1375.0"/>
      <point x="269.370117188" y="1293.0"/>
      <point x="230.333984375" y="1122.0" type="curve" smooth="yes"/>
      <point x="35.3701171875" y="279.0" type="line" smooth="yes"/>
      <point x="4.3544921875" y="144.0"/>
      <point x="-10.056640625" y="25.0"/>
      <point x="88.3154296875" y="25.0" type="curve" smooth="yes"/>
      <point x="186.688476562" y="25.0"/>
      <point x="227.288085938" y="144.0"/>
    </contour>
  </outline>
</glyph>
<glyph name="R" format="2">
  <advance height="960" width="373"/>
  <unicode hex="0052"/>
  <anchor x="68.0" y="0.0" name="bottom"/>
  <anchor x="390.0" y="1400.0" name="top"/>
  <outline>
    <contour>
      <point x="306.318359375" y="1370.0" type="line"/>
      <point x="156.311523438" y="720.0" type="line"/>
      <point x="214.973632812" y="720.0" type="line" smooth="yes"/>
      <point x="273.63671875" y="720.0"/>
      <point x="337.837890625" y="779.0"/>
      <point x="367.837890625" y="909.0" type="curve" smooth="yes"/>
      <point x="425.837890625" y="1161.0" type="line" smooth="yes"/>
      <point x="453.837890625" y="1281.0"/>
      <point x="459.743164062" y="1370.0"/>
      <point x="364.981445312" y="1370.0" type="curve" smooth="yes"/>
    </contour>
    <contour>
      <point x="371.973632812" y="1400.0" type="line" smooth="yes"/>
      <point x="484.837890625" y="1400.0"/>
      <point x="492.837890625" y="1321.0"/>
      <point x="453.837890625" y="1151.0" type="curve" smooth="yes"/>
      <point x="401.837890625" y="929.0" type="line" smooth="yes"/>
      <point x="359.837890625" y="749.0"/>
      <point x="274.202148438" y="705.0"/>
      <point x="211.9296875" y="705.0" type="curve"/>
      <point x="212.943359375" y="710.0" type="line"/>
      <point x="275.216796875" y="710.0"/>
      <point x="339.837890625" y="681.0"/>
      <point x="311.837890625" y="561.0" type="curve" smooth="yes"/>
      <point x="235.837890625" y="234.0" type="line" smooth="yes"/>
      <point x="208.837890625" y="116.0"/>
      <point x="212.837890625" y="64.0"/>
      <point x="227.837890625" y="30.0" type="curve" smooth="yes"/>
      <point x="230.837890625" y="24.0"/>
      <point x="231.837890625" y="18.0"/>
      <point x="229.837890625" y="9.0" type="curve" smooth="yes"/>
      <point x="229.837890625" y="8.0" type="line" smooth="yes"/>
      <point x="228.837890625" y="2.0"/>
      <point x="222.837890625" y="-3.0"/>
      <point x="215.837890625" y="-3.0" type="curve" smooth="yes"/>
      <point x="213.837890625" y="-3.0" type="line" smooth="yes"/>
      <point x="204.837890625" y="-3.0"/>
      <point x="201.837890625" y="0.0"/>
      <point x="199.837890625" y="4.0" type="curve" smooth="yes"/>
      <point x="180.837890625" y="44.0"/>
      <point x="172.837890625" y="90.0"/>
      <point x="205.83984375" y="234.0" type="curve" smooth="yes"/>
      <point x="284.837890625" y="576.0" type="line" smooth="yes"/>
      <point x="300.850585938" y="646.0"/>
      <point x="276.684570312" y="695.0"/>
      <point x="208.997070312" y="695.0" type="curve" smooth="yes"/>
      <point x="150.333984375" y="695.0" type="line"/>
      <point x="-6.6650390625" y="15.0" type="line" smooth="yes"/>
      <point x="-8.6728515625" y="6.0"/>
      <point x="-14.6640625" y="-3.0"/>
      <point x="-24.6640625" y="-3.0" type="curve" smooth="yes"/>
      <point x="-26.6640625" y="-3.0" type="line" smooth="yes"/>
      <point x="-36.6640625" y="-3.0"/>
      <point x="-38.6650390625" y="6.0"/>
      <point x="-36.6650390625" y="15.0" type="curve" smooth="yes"/>
      <point x="277.334960938" y="1375.0" type="line" smooth="yes"/>
      <point x="281.3359375" y="1391.0"/>
      <point x="292.3359375" y="1400.0"/>
      <point x="308.3359375" y="1400.0" type="curve" smooth="yes"/>
    </contour>
  </outline>
</glyph>
<glyph name="T" format="2">
  <advance height="960" width="356"/>
  <unicode hex="0054"/>
  <anchor x="64.0" y="0.0" name="bottom"/>
  <anchor x="387.0" y="1400.0" name="top"/>
  <outline>
    <contour>
      <point x="240.8203125" y="1400.0" type="curve" smooth="yes"/>
      <point x="555.8203125" y="1400.0" type="line" smooth="yes"/>
      <point x="566.8203125" y="1400.0"/>
      <point x="572.8203125" y="1395.0"/>
      <point x="570.8203125" y="1386.0" type="curve" smooth="yes"/>
      <point x="570.8203125" y="1384.0" type="line" smooth="yes"/>
      <point x="568.8203125" y="1375.0"/>
      <point x="559.8203125" y="1370.0"/>
      <point x="548.8203125" y="1370.0" type="curve" smooth="yes"/>
      <point x="408.8203125" y="1370.0" type="line"/>
      <point x="95.8203125" y="15.0" type="line" smooth="yes"/>
      <point x="92.8203125" y="4.0"/>
      <point x="85.8203125" y="-3.0"/>
      <point x="76.8203125" y="-3.0" type="curve" smooth="yes"/>
      <point x="71.8203125" y="-3.0" type="line" smooth="yes"/>
      <point x="62.8203125" y="-3.0"/>
      <point x="57.8203125" y="4.0"/>
      <point x="60.8203125" y="15.0" type="curve" smooth="yes"/>
      <point x="373.8203125" y="1370.0" type="line"/>
      <point x="233.8203125" y="1370.0" type="line" smooth="yes"/>
      <point x="222.8203125" y="1370.0"/>
      <point x="217.8203125" y="1375.0"/>
      <point x="219.8203125" y="1384.0" type="curve" smooth="yes"/>
      <point x="219.8203125" y="1386.0" type="line" smooth="yes"/>
      <point x="221.8203125" y="1395.0"/>
      <point x="229.8203125" y="1400.0"/>
    </contour>
  </outline>
</glyph>
<glyph name="V" format="2">
  <advance height="960" width="374"/>
  <unicode hex="0056"/>
  <anchor x="83.0" y="0.0" name="bottom"/>
  <anchor x="405.0" y="1400.0" name="top"/>
  <outline>
    <contour>
      <point x="103.780273438" y="55.0" type="line"/>
      <point x="532.780273438" y="1380.0" type="line" smooth="yes"/>
      <point x="537.780273438" y="1394.0"/>
      <point x="542.780273438" y="1403.0"/>
      <point x="552.780273438" y="1403.0" type="curve" smooth="yes"/>
      <point x="553.780273438" y="1403.0" type="line" smooth="yes"/>
      <point x="561.780273438" y="1403.0"/>
      <point x="564.780273438" y="1394.0"/>
      <point x="559.780273438" y="1380.0" type="curve" smooth="yes"/>
      <point x="117.780273438" y="16.0" type="line" smooth="yes"/>
      <point x="113.780273438" y="2.0"/>
      <point x="104.780273438" y="-3.0"/>
      <point x="94.7802734375" y="-3.0" type="curve" smooth="yes"/>
      <point x="83.7802734375" y="-3.0" type="line" smooth="yes"/>
      <point x="73.7802734375" y="-3.0"/>
      <point x="70.7802734375" y="6.0"/>
      <point x="71.7802734375" y="17.0" type="curve" smooth="yes"/>
      <point x="246.780273438" y="1380.0" type="line" smooth="yes"/>
      <point x="248.780273438" y="1396.0"/>
      <point x="259.780273438" y="1403.0"/>
      <point x="268.780273438" y="1403.0" type="curve" smooth="yes"/>
      <point x="271.780273438" y="1403.0" type="line" smooth="yes"/>
      <point x="280.780273438" y="1403.0"/>
      <point x="283.780273438" y="1396.0"/>
      <point x="281.780273438" y="1379.0" type="curve" smooth="yes"/>
    </contour>
  </outline>
</glyph>
<glyph name="W" format="2">
  <advance height="960" width="640"/>
  <unicode hex="0057"/>
  <anchor x="217.0" y="0.0" name="bottom"/>
  <anchor x="540.0" y="1400.0" name="top"/>
  <outline>
    <contour>
      <point x="87.7275390625" y="55.0" type="line"/>
      <point x="515.727539062" y="1387.0" type="line" smooth="yes"/>
      <point x="519.727539062" y="1398.0"/>
      <point x="523.727539062" y="1403.0"/>
      <point x="537.727539062" y="1403.0" type="curve" smooth="yes"/>
      <point x="556.727539062" y="1403.0" type="line" smooth="yes"/>
      <point x="570.727539062" y="1403.0"/>
      <point x="573.727539062" y="1397.0"/>
      <point x="571.727539062" y="1385.0" type="curve" smooth="yes"/>
      <point x="378.727539062" y="47.0" type="line"/>
      <point x="803.727539062" y="1385.0" type="line" smooth="yes"/>
      <point x="807.727539062" y="1398.0"/>
      <point x="813.727539062" y="1403.0"/>
      <point x="821.727539062" y="1403.0" type="curve" smooth="yes"/>
      <point x="822.727539062" y="1403.0" type="line" smooth="yes"/>
      <point x="831.727539062" y="1403.0"/>
      <point x="835.727539062" y="1398.0"/>
      <point x="831.727539062" y="1385.0" type="curve" smooth="yes"/>
      <point x="396.727539062" y="26.0" type="line" smooth="yes"/>
      <point x="390.727539062" y="8.0"/>
      <point x="382.727539062" y="-3.0"/>
      <point x="371.727539062" y="-3.0" type="curve" smooth="yes"/>
      <point x="353.727539062" y="-3.0" type="line" smooth="yes"/>
      <point x="343.727539062" y="-3.0"/>
      <point x="339.727539062" y="7.0"/>
      <point x="341.727539062" y="22.0" type="curve" smooth="yes"/>
      <point x="530.727539062" y="1345.0" type="line"/>
      <point x="101.727539062" y="18.0" type="line" smooth="yes"/>
      <point x="97.7275390625" y="6.0"/>
      <point x="89.7275390625" y="-3.0"/>
      <point x="77.7275390625" y="-3.0" type="curve" smooth="yes"/>
      <point x="63.7275390625" y="-3.0" type="line" smooth="yes"/>
      <point x="51.7275390625" y="-3.0"/>
      <point x="47.7275390625" y="5.0"/>
      <point x="49.7275390625" y="17.0" type="curve" smooth="yes"/>
      <point x="245.727539062" y="1373.0" type="line" smooth="yes"/>
      <point x="248.727539062" y="1393.0"/>
      <point x="256.727539062" y="1403.0"/>
      <point x="267.727539062" y="1403.0" type="curve" smooth="yes"/>
      <point x="268.727539062" y="1403.0" type="line" smooth="yes"/>
      <point x="277.727539062" y="1403.0"/>
      <point x="282.727539062" y="1393.0"/>
      <point x="279.727539062" y="1373.0" type="curve" smooth="yes"/>
    </contour>
  </outline>
</glyph>
<glyph name="X" format="2">
  <advance height="960" width="370"/>
  <unicode hex="0058"/>
  <anchor x="71.0" y="0.0" name="bottom"/>
  <anchor x="393.0" y="1400.0" name="top"/>
  <outline>
    <contour>
      <point x="524.443359375" y="1403.0" type="curve" smooth="yes"/>
      <point x="525.443359375" y="1403.0" type="line" smooth="yes"/>
      <point x="535.443359375" y="1403.0"/>
      <point x="541.443359375" y="1395.0"/>
      <point x="537.443359375" y="1385.0" type="curve" smooth="yes"/>
      <point x="265.443359375" y="703.0" type="line"/>
      <point x="237.443359375" y="23.0" type="line" smooth="yes"/>
      <point x="236.443359375" y="9.0"/>
      <point x="226.443359375" y="-3.0"/>
      <point x="215.443359375" y="-3.0" type="curve" smooth="yes"/>
      <point x="213.443359375" y="-3.0" type="line" smooth="yes"/>
      <point x="202.443359375" y="-3.0"/>
      <point x="198.443359375" y="8.0"/>
      <point x="199.443359375" y="23.0" type="curve" smooth="yes"/>
      <point x="235.443359375" y="666.0" type="line"/>
      <point x="-23.556640625" y="21.0" type="line" smooth="yes"/>
      <point x="-29.556640625" y="7.0"/>
      <point x="-41.556640625" y="-3.0"/>
      <point x="-50.556640625" y="-3.0" type="curve" smooth="yes"/>
      <point x="-53.556640625" y="-3.0" type="line" smooth="yes"/>
      <point x="-62.556640625" y="-3.0"/>
      <point x="-69.556640625" y="7.0"/>
      <point x="-63.556640625" y="21.0" type="curve" smooth="yes"/>
      <point x="228.443359375" y="705.0" type="line"/>
      <point x="265.443359375" y="1379.0" type="line" smooth="yes"/>
      <point x="266.443359375" y="1392.0"/>
      <point x="277.443359375" y="1403.0"/>
      <point x="288.443359375" y="1403.0" type="curve" smooth="yes"/>
      <point x="289.443359375" y="1403.0" type="line" smooth="yes"/>
      <point x="299.443359375" y="1403.0"/>
      <point x="304.443359375" y="1394.0"/>
      <point x="303.443359375" y="1379.0" type="curve" smooth="yes"/>
      <point x="258.443359375" y="741.0" type="line"/>
      <point x="501.443359375" y="1385.0" type="line" smooth="yes"/>
      <point x="504.443359375" y="1394.0"/>
      <point x="513.443359375" y="1403.0"/>
    </contour>
  </outline>
</glyph>
<glyph name="Y" format="2">
  <advance height="960" width="374"/>
  <unicode hex="0059"/>
  <anchor x="77.0" y="0.0" name="bottom"/>
  <anchor x="400.0" y="1400.0" name="top"/>
  <outline>
    <contour>
      <point x="550.625" y="1403.0" type="curve" smooth="yes"/>
      <point x="551.625" y="1403.0" type="line" smooth="yes"/>
      <point x="558.625" y="1403.0"/>
      <point x="563.625" y="1398.0"/>
      <point x="558.625" y="1385.0" type="curve" smooth="yes"/>
      <point x="245.625" y="625.0" type="line"/>
      <point x="106.625" y="20.0" type="line" smooth="yes"/>
      <point x="103.625" y="6.0"/>
      <point x="95.625" y="-3.0"/>
      <point x="84.625" y="-3.0" type="curve" smooth="yes"/>
      <point x="80.625" y="-3.0" type="line" smooth="yes"/>
      <point x="69.625" y="-3.0"/>
      <point x="67.625" y="6.0"/>
      <point x="70.625" y="20.0" type="curve" smooth="yes"/>
      <point x="209.625" y="625.0" type="line"/>
      <point x="248.625" y="1381.0" type="line" smooth="yes"/>
      <point x="249.625" y="1395.0"/>
      <point x="259.625" y="1403.0"/>
      <point x="267.625" y="1403.0" type="curve" smooth="yes"/>
      <point x="269.625" y="1403.0" type="line" smooth="yes"/>
      <point x="279.625" y="1403.0"/>
      <point x="282.625" y="1395.0"/>
      <point x="281.625" y="1381.0" type="curve" smooth="yes"/>
      <point x="242.625" y="675.0" type="line"/>
      <point x="531.625" y="1385.0" type="line" smooth="yes"/>
      <point x="536.625" y="1398.0"/>
      <point x="544.625" y="1403.0"/>
    </contour>
  </outline>
</glyph>
<glyph name="Z" format="2">
  <advance height="960" width="351"/>
  <unicode hex="005A"/>
  <anchor x="85.0" y="0.0" name="bottom"/>
  <anchor x="407.0" y="1400.0" name="top"/>
  <outline>
    <contour>
      <point x="-93.1435546875" y="28.0" type="curve" smooth="yes"/>
      <point x="511.856445312" y="1370.0" type="line"/>
      <point x="283.856445312" y="1370.0" type="line" smooth="yes"/>
      <point x="270.856445312" y="1370.0"/>
      <point x="267.856445312" y="1375.0"/>
      <point x="269.856445312" y="1384.0" type="curve" smooth="yes"/>
      <point x="269.856445312" y="1386.0" type="line" smooth="yes"/>
      <point x="271.856445312" y="1395.0"/>
      <point x="277.856445312" y="1400.0"/>
      <point x="290.856445312" y="1400.0" type="curve" smooth="yes"/>
      <point x="532.856445312" y="1400.0" type="line" smooth="yes"/>
      <point x="547.856445312" y="1400.0"/>
      <point x="552.856445312" y="1389.0"/>
      <point x="545.856445312" y="1374.0" type="curve" smooth="yes"/>
      <point x="-57.1435546875" y="30.0" type="line"/>
      <point x="199.856445312" y="30.0" type="line" smooth="yes"/>
      <point x="220.856445312" y="30.0"/>
      <point x="226.856445312" y="25.0"/>
      <point x="224.856445312" y="16.0" type="curve" smooth="yes"/>
      <point x="223.856445312" y="14.0" type="line" smooth="yes"/>
      <point x="221.856445312" y="5.0"/>
      <point x="213.856445312" y="0.0"/>
      <point x="192.856445312" y="0.0" type="curve" smooth="yes"/>
      <point x="-80.1435546875" y="0.0" type="line" smooth="yes"/>
      <point x="-97.1435546875" y="0.0"/>
      <point x="-100.143554688" y="12.0"/>
    </contour>
  </outline>
</glyph>
<glyph name="bracketleft" format="2">
  <advance height="1920" width="275"/>
  <unicode hex="005B"/>
  <outline>
    <contour>
      <point x="349.0" y="1575.0" type="line"/>
      <point x="-92.0" y="-335.0" type="line"/>
      <point x="38.0" y="-335.0" type="line" smooth="yes"/>
      <point x="48.0" y="-335.0"/>
      <point x="54.0" y="-338.0"/>
      <point x="52.0" y="-347.0" type="curve" smooth="yes"/>
      <point x="52.0" y="-348.0" type="line" smooth="yes"/>
      <point x="50.0" y="-357.0"/>
      <point x="42.0" y="-360.0"/>
      <point x="32.0" y="-360.0" type="curve" smooth="yes"/>
      <point x="-103.0" y="-360.0" type="line" smooth="yes"/>
      <point x="-117.0" y="-360.0"/>
      <point x="-125.0" y="-349.0"/>
      <point x="-122.0" y="-335.0" type="curve" smooth="yes"/>
      <point x="319.0" y="1575.0" type="line" smooth="yes"/>
      <point x="322.0" y="1589.0"/>
      <point x="335.0" y="1600.0"/>
      <point x="349.0" y="1600.0" type="curve" smooth="yes"/>
      <point x="484.0" y="1600.0" type="line" smooth="yes"/>
      <point x="496.0" y="1600.0"/>
      <point x="502.0" y="1596.0"/>
      <point x="500.0" y="1588.0" type="curve" smooth="yes"/>
      <point x="499.0" y="1587.0" type="line" smooth="yes"/>
      <point x="497.0" y="1579.0"/>
      <point x="491.0" y="1575.0"/>
      <point x="479.0" y="1575.0" type="curve" smooth="yes"/>
    </contour>
  </outline>
</glyph>
<glyph name="backslash" format="2">
  <advance height="2048" width="379"/>
  <unicode hex="005C"/>
  <outline>
    <contour>
      <point x="215.0" y="-82.0" type="line" smooth="yes"/>
      <point x="215.0" y="-96.0"/>
      <point x="207.0" y="-103.0"/>
      <point x="200.0" y="-103.0" type="curve" smooth="yes"/>
      <point x="198.0" y="-103.0" type="line" smooth="yes"/>
      <point x="189.0" y="-103.0"/>
      <point x="185.0" y="-96.0"/>
      <point x="185.0" y="-82.0" type="curve" smooth="yes"/>
      <point x="220.0" y="1386.0" type="line" smooth="yes"/>
      <point x="220.0" y="1398.0"/>
      <point x="228.0" y="1403.0"/>
      <point x="235.0" y="1403.0" type="curve" smooth="yes"/>
      <point x="237.0" y="1403.0" type="line" smooth="yes"/>
      <point x="244.0" y="1403.0"/>
      <point x="250.0" y="1398.0"/>
      <point x="250.0" y="1386.0" type="curve" smooth="yes"/>
    </contour>
  </outline>
</glyph>
<glyph name="bracketright" format="2">
  <advance height="1920" width="275"/>
  <unicode hex="005D"/>
  <outline>
    <contour>
      <point x="-27.0" y="-335.0" type="line"/>
      <point x="414.0" y="1575.0" type="line"/>
      <point x="284.0" y="1575.0" type="line" smooth="yes"/>
      <point x="274.0" y="1575.0"/>
      <point x="267.0" y="1578.0"/>
      <point x="269.0" y="1587.0" type="curve" smooth="yes"/>
      <point x="270.0" y="1588.0" type="line" smooth="yes"/>
      <point x="272.0" y="1597.0"/>
      <point x="279.0" y="1600.0"/>
      <point x="289.0" y="1600.0" type="curve" smooth="yes"/>
      <point x="424.0" y="1600.0" type="line" smooth="yes"/>
      <point x="438.0" y="1600.0"/>
      <point x="447.0" y="1589.0"/>
      <point x="444.0" y="1575.0" type="curve" smooth="yes"/>
      <point x="3.0" y="-335.0" type="line" smooth="yes"/>
      <point x="0.0" y="-349.0"/>
      <point x="-14.0" y="-360.0"/>
      <point x="-28.0" y="-360.0" type="curve" smooth="yes"/>
      <point x="-163.0" y="-360.0" type="line" smooth="yes"/>
      <point x="-175.0" y="-360.0"/>
      <point x="-180.0" y="-356.0"/>
      <point x="-178.0" y="-348.0" type="curve" smooth="yes"/>
      <point x="-178.0" y="-347.0" type="line" smooth="yes"/>
      <point x="-176.0" y="-339.0"/>
      <point x="-169.0" y="-335.0"/>
      <point x="-157.0" y="-335.0" type="curve" smooth="yes"/>
    </contour>
  </outline>
</glyph>
<glyph name="asciicircum" format="2">
  <advance height="1920" width="386"/>
  <unicode hex="005E"/>
  <outline>
    <contour>
      <point x="377.0" y="1321.0" type="line"/>
      <point x="125.0" y="757.0" type="line" smooth="yes"/>
      <point x="115.0" y="734.0"/>
      <point x="107.0" y="727.0"/>
      <point x="100.0" y="727.0" type="curve" smooth="yes"/>
      <point x="99.0" y="727.0" type="line" smooth="yes"/>
      <point x="93.0" y="727.0"/>
      <point x="84.0" y="733.0"/>
      <point x="95.0" y="757.0" type="curve" smooth="yes"/>
      <point x="375.0" y="1382.0" type="line" smooth="yes"/>
      <point x="382.0" y="1398.0"/>
      <point x="388.0" y="1403.0"/>
      <point x="395.0" y="1403.0" type="curve" smooth="yes"/>
      <point x="397.0" y="1403.0" type="line" smooth="yes"/>
      <point x="404.0" y="1403.0"/>
      <point x="407.0" y="1397.0"/>
      <point x="407.0" y="1381.0" type="curve" smooth="yes"/>
      <point x="399.0" y="756.0" type="line" smooth="yes"/>
      <point x="399.0" y="739.0"/>
      <point x="394.0" y="727.0"/>
      <point x="382.0" y="727.0" type="curve" smooth="yes"/>
      <point x="380.0" y="727.0" type="line" smooth="yes"/>
      <point x="370.0" y="727.0"/>
      <point x="369.0" y="739.0"/>
      <point x="369.0" y="756.0" type="curve" smooth="yes"/>
    </contour>
  </outline>
</glyph>
<glyph name="underscore" format="2">
  <advance height="1920" width="450"/>
  <unicode hex="005F"/>
  <outline>
    <contour>
      <point x="-127.0" y="-16.0" type="curve" smooth="yes"/>
      <point x="-126.0" y="-14.0" type="line" smooth="yes"/>
      <point x="-124.0" y="-5.0"/>
      <point x="-116.0" y="0.0"/>
      <point x="-105.0" y="0.0" type="curve" smooth="yes"/>
      <point x="308.0" y="0.0" type="line" smooth="yes"/>
      <point x="327.0" y="0.0"/>
      <point x="332.0" y="-5.0"/>
      <point x="330.0" y="-14.0" type="curve" smooth="yes"/>
      <point x="330.0" y="-15.0" type="line" smooth="yes"/>
      <point x="328.0" y="-24.0"/>
      <point x="320.0" y="-30.0"/>
      <point x="301.0" y="-30.0" type="curve" smooth="yes"/>
      <point x="-112.0" y="-30.0" type="line" smooth="yes"/>
      <point x="-123.0" y="-30.0"/>
      <point x="-129.0" y="-25.0"/>
    </contour>
  </outline>
</glyph>
<glyph name="grave" format="2">
  <advance width="311"/>
  <unicode hex="0060"/>
  <outline>
    <contour>
      <point x="336.0" y="1101.0" type="curve" smooth="yes"/>
      <point x="335.0" y="1101.0" type="line" smooth="yes"/>
      <point x="330.0" y="1101.0"/>
      <point x="327.0" y="1106.0"/>
      <point x="324.0" y="1121.0" type="curve" smooth="yes"/>
      <point x="277.0" y="1383.0" type="line" smooth="yes"/>
      <point x="275.0" y="1395.0"/>
      <point x="287.0" y="1403.0"/>
      <point x="296.0" y="1403.0" type="curve" smooth="yes"/>
      <point x="297.0" y="1403.0" type="line" smooth="yes"/>
      <point x="307.0" y="1403.0"/>
      <point x="309.0" y="1396.0"/>
      <point x="311.0" y="1382.0" type="curve" smooth="yes"/>
      <point x="347.0" y="1121.0" type="line" smooth="yes"/>
      <point x="349.0" y="1108.0"/>
      <point x="341.0" y="1101.0"/>
    </contour>
  </outline>
</glyph>
<glyph name="a" format="2">
  <advance height="1104" width="318"/>
  <unicode hex="0061"/>
  <anchor x="24.0" y="0.0" name="bottom"/>
  <anchor x="125.0" y="0.0" name="ogonek"/>
  <anchor x="292.0" y="1050.0" name="top"/>
  <outline>
    <contour>
      <point x="165.0" y="206.0" type="line"/>
      <point x="128.0" y="47.0"/>
      <point x="68.0" y="-3.0"/>
      <point x="17.0" y="-3.0" type="curve" smooth="yes"/>
      <point x="-25.0" y="-3.0"/>
      <point x="-54.0" y="43.0"/>
      <point x="-20.0" y="191.0" type="curve" smooth="yes"/>
      <point x="126.0" y="825.0" type="line" smooth="yes"/>
      <point x="166.0" y="999.0"/>
      <point x="215.0" y="1055.0"/>
      <point x="275.0" y="1055.0" type="curve" smooth="yes"/>
      <point x="353.0" y="1055.0"/>
      <point x="326.0" y="903.0"/>
      <point x="293.0" y="758.0" type="curve"/>
      <point x="278.0" y="747.0" type="line"/>
      <point x="307.0" y="872.0"/>
      <point x="338.0" y="1027.0"/>
      <point x="265.0" y="1027.0" type="curve" smooth="yes"/>
      <point x="231.0" y="1027.0"/>
      <point x="190.0" y="972.0"/>
      <point x="159.0" y="838.0" type="curve" smooth="yes"/>
      <point x="7.0" y="179.0" type="line" smooth="yes"/>
      <point x="-14.0" y="89.0"/>
      <point x="-4.0" y="26.0"/>
      <point x="33.0" y="26.0" type="curve" smooth="yes"/>
      <point x="75.0" y="26.0"/>
      <point x="128.0" y="98.0"/>
      <point x="154.0" y="209.0" type="curve"/>
    </contour>
    <contour>
      <point x="177.0" y="16.0" type="curve" smooth="yes"/>
      <point x="177.0" y="15.0" type="line" smooth="yes"/>
      <point x="177.0" y="5.0"/>
      <point x="169.951843567" y="1.21624227974"/>
      <point x="165.0" y="0.0" type="curve" smooth="yes"/>
      <point x="108.0" y="-14.0"/>
      <point x="112.0" y="26.0"/>
      <point x="140.0" y="146.0" type="curve" smooth="yes"/>
      <point x="314.0" y="899.0" type="line" smooth="yes"/>
      <point x="364.0" y="1053.0" type="line" smooth="yes"/>
      <point x="366.0" y="1058.0"/>
      <point x="369.0" y="1061.0"/>
      <point x="373.0" y="1061.0" type="curve" smooth="yes"/>
      <point x="374.0" y="1061.0" type="line" smooth="yes"/>
      <point x="378.0" y="1061.0"/>
      <point x="380.0" y="1057.0"/>
      <point x="379.0" y="1053.0" type="curve" smooth="yes"/>
      <point x="170.0" y="146.0" type="line" smooth="yes"/>
      <point x="151.0" y="63.0"/>
      <point x="141.0" y="20.0"/>
      <point x="168.0" y="22.0" type="curve" smooth="yes"/>
      <point x="174.0" y="22.0"/>
      <point x="177.0" y="19.1015625"/>
    </contour>
  </outline>
</glyph>
<glyph name="b" format="2">
  <advance height="1104" width="326"/>
  <unicode hex="0062"/>
  <outline>
    <contour>
      <point x="303.911132812" y="1453.0" type="curve" smooth="yes"/>
      <point x="305.911132812" y="1453.0" type="line" smooth="yes"/>
      <point x="314.911132812" y="1453.0"/>
      <point x="317.911132812" y="1445.0"/>
      <point x="314.911132812" y="1431.0" type="curve" smooth="yes"/>
      <point x="19.9111328125" y="151.0" type="line"/>
      <point x="-28.0888671875" y="6.0" type="line" smooth="yes"/>
      <point x="-32.0888671875" y="-7.0"/>
      <point x="-35.0888671875" y="-10.0"/>
      <point x="-39.0888671875" y="-10.0" type="curve" smooth="yes"/>
      <point x="-40.0888671875" y="-10.0" type="line" smooth="yes"/>
      <point x="-44.0888671875" y="-10.0"/>
      <point x="-47.0888671875" y="-7.0"/>
      <point x="-44.0888671875" y="4.0" type="curve" smooth="yes"/>
      <point x="284.911132812" y="1431.0" type="line" smooth="yes"/>
      <point x="287.911132812" y="1445.0"/>
      <point x="294.911132812" y="1453.0"/>
    </contour>
    <contour>
      <point x="168.911132812" y="846.0" type="line"/>
      <point x="205.911132812" y="1005.0"/>
      <point x="265.911132812" y="1055.0"/>
      <point x="326.911132812" y="1055.0" type="curve" smooth="yes"/>
      <point x="388.911132812" y="1055.0"/>
      <point x="407.911132812" y="1009.0"/>
      <point x="373.911132812" y="861.0" type="curve" smooth="yes"/>
      <point x="226.911132812" y="227.0" type="line" smooth="yes"/>
      <point x="186.911132812" y="53.0"/>
      <point x="158.911132812" y="-3.0"/>
      <point x="88.9111328125" y="-3.0" type="curve" smooth="yes"/>
      <point x="0.9111328125" y="-3.0"/>
      <point x="7.9111328125" y="149.0"/>
      <point x="40.9111328125" y="294.0" type="curve"/>
      <point x="54.9111328125" y="305.0" type="line"/>
      <point x="25.9111328125" y="180.0"/>
      <point x="20.9111328125" y="25.0"/>
      <point x="93.9111328125" y="25.0" type="curve" smooth="yes"/>
      <point x="137.911132812" y="25.0"/>
      <point x="162.911132812" y="80.0"/>
      <point x="193.911132812" y="214.0" type="curve" smooth="yes"/>
      <point x="346.911132812" y="873.0" type="line" smooth="yes"/>
      <point x="367.911132812" y="963.0"/>
      <point x="367.911132812" y="1026.0"/>
      <point x="310.911132812" y="1026.0" type="curve" smooth="yes"/>
      <point x="258.911132812" y="1026.0"/>
      <point x="205.911132812" y="954.0"/>
      <point x="179.911132812" y="843.0" type="curve"/>
    </contour>
  </outline>
</glyph>
<glyph name="c" format="2">
  <advance height="1104" width="284"/>
  <unicode hex="0063"/>
  <anchor x="61.0" y="0.0" name="bottom"/>
  <anchor x="289.0" y="1050.0" name="top"/>
  <outline>
    <contour>
      <point x="234.4921875" y="399.0" type="curve" smooth="yes"/>
      <point x="217.4921875" y="326.0"/>
      <point x="198.4921875" y="252.0"/>
      <point x="182.4921875" y="182.0" type="curve" smooth="yes"/>
      <point x="151.4921875" y="46.0"/>
      <point x="104.794921875" y="-5.0"/>
      <point x="39.8154296875" y="-5.0" type="curve" smooth="yes"/>
      <point x="-29.677734375" y="-5.0"/>
      <point x="-46.5693359375" y="55.0"/>
      <point x="-1.5693359375" y="251.0" type="curve" smooth="yes"/>
      <point x="125.430664062" y="801.0" type="line" smooth="yes"/>
      <point x="166.430664062" y="980.0"/>
      <point x="213.430664062" y="1054.0"/>
      <point x="287.47265625" y="1054.0" type="curve" smooth="yes"/>
      <point x="344.330078125" y="1054.0"/>
      <point x="367.4921875" y="1004.0"/>
      <point x="339.4921875" y="878.0" type="curve" smooth="yes"/>
      <point x="324.4921875" y="809.0"/>
      <point x="285.4921875" y="725.0"/>
      <point x="223.37109375" y="652.0" type="curve" smooth="yes"/>
      <point x="222.1171875" y="650.526367188"/>
      <point x="216.874023438" y="644.0"/>
      <point x="212.361328125" y="644.0" type="curve" smooth="yes"/>
      <point x="211.458007812" y="644.0" type="line" smooth="yes"/>
      <point x="205.141601562" y="644.0"/>
      <point x="199.76171875" y="651.341796875"/>
      <point x="209.1796875" y="663.0" type="curve" smooth="yes"/>
      <point x="262.319335938" y="728.784179688"/>
      <point x="299.015625" y="805.0"/>
      <point x="314.106445312" y="874.0" type="curve" smooth="yes"/>
      <point x="341.219726562" y="996.0"/>
      <point x="315.744140625" y="1027.0"/>
      <point x="278.743164062" y="1027.0" type="curve" smooth="yes"/>
      <point x="222.787109375" y="1027.0"/>
      <point x="189.3984375" y="947.0"/>
      <point x="158.40625" y="813.0" type="curve" smooth="yes"/>
      <point x="25.4306640625" y="238.0" type="line" smooth="yes"/>
      <point x="-14.5693359375" y="66.0"/>
      <point x="-3.7763671875" y="23.0"/>
      <point x="49.470703125" y="23.0" type="curve" smooth="yes"/>
      <point x="90.0830078125" y="23.0"/>
      <point x="128.4921875" y="44.0"/>
      <point x="160.4921875" y="184.0" type="curve" smooth="yes"/>
      <point x="176.5078125" y="254.0"/>
      <point x="193.493164062" y="327.0"/>
      <point x="212.4921875" y="400.0" type="curve" smooth="yes"/>
      <point x="212.99609375" y="401.935546875"/>
      <point x="214.4921875" y="409.0"/>
      <point x="223.4921875" y="409.0" type="curve" smooth="yes"/>
      <point x="224.4921875" y="409.0" type="line" smooth="yes"/>
      <point x="233.4921875" y="409.0"/>
      <point x="234.946289062" y="400.948242188"/>
    </contour>
  </outline>
</glyph>
<glyph name="d" format="2">
  <advance height="1104" width="309"/>
  <unicode hex="0064"/>
  <outline>
    <contour>
      <point x="178.095703125" y="231.0" type="line"/>
      <point x="141.095703125" y="70.0"/>
      <point x="96.912109375" y="-10.0"/>
      <point x="32.833984375" y="-10.0" type="curve" smooth="yes"/>
      <point x="-13.193359375" y="-10.0"/>
      <point x="-49.759765625" y="31.0"/>
      <point x="-7.759765625" y="215.0" type="curve" smooth="yes"/>
      <point x="135.240234375" y="836.0" type="line" smooth="yes"/>
      <point x="172.240234375" y="998.0"/>
      <point x="224.107421875" y="1070.0"/>
      <point x="283.671875" y="1070.0" type="curve" smooth="yes"/>
      <point x="344.138671875" y="1070.0"/>
      <point x="353.09375" y="979.0"/>
      <point x="316.09375" y="818.0" type="curve"/>
      <point x="304.104492188" y="815.0" type="line"/>
      <point x="332.09765625" y="936.0"/>
      <point x="326.338867188" y="1041.0"/>
      <point x="278.506835938" y="1041.0" type="curve" smooth="yes"/>
      <point x="233.381835938" y="1041.0"/>
      <point x="196.158203125" y="951.0"/>
      <point x="172.1796875" y="848.0" type="curve" smooth="yes"/>
      <point x="22.240234375" y="201.0" type="line" smooth="yes"/>
      <point x="-6.767578125" y="75.0"/>
      <point x="4.6064453125" y="19.0"/>
      <point x="49.7314453125" y="19.0" type="curve" smooth="yes"/>
      <point x="95.759765625" y="19.0"/>
      <point x="142.09765625" y="113.0"/>
      <point x="170.095703125" y="234.0" type="curve"/>
    </contour>
    <contour>
      <point x="478.09375" y="1434.0" type="curve" smooth="yes"/>
      <point x="151.095703125" y="16.0" type="line" smooth="yes"/>
      <point x="148.095703125" y="4.0"/>
      <point x="142.095703125" y="-3.0"/>
      <point x="134.095703125" y="-3.0" type="curve" smooth="yes"/>
      <point x="132.095703125" y="-3.0" type="line" smooth="yes"/>
      <point x="124.095703125" y="-3.0"/>
      <point x="121.095703125" y="4.0"/>
      <point x="124.095703125" y="16.0" type="curve" smooth="yes"/>
      <point x="154.095703125" y="149.0" type="line"/>
      <point x="155.095703125" y="167.0" type="line"/>
      <point x="447.095703125" y="1434.0" type="line" smooth="yes"/>
      <point x="450.09375" y="1446.0"/>
      <point x="457.09375" y="1453.0"/>
      <point x="466.09375" y="1453.0" type="curve" smooth="yes"/>
      <point x="468.09375" y="1453.0" type="line" smooth="yes"/>
      <point x="477.09375" y="1453.0"/>
      <point x="481.09375" y="1446.0"/>
    </contour>
  </outline>
</glyph>
<glyph name="e" format="2">
  <advance height="1104" width="303"/>
  <unicode hex="0065"/>
  <anchor x="56.0" y="0.0" name="bottom"/>
  <anchor x="83.0" y="15.0" name="ogonek"/>
  <anchor x="296.0" y="1050.0" name="top"/>
  <outline>
    <contour>
      <point x="231.09375" y="383.0" type="curve" smooth="yes"/>
      <point x="213.09375" y="313.0"/>
      <point x="202.09375" y="267.0"/>
      <point x="185.09375" y="208.0" type="curve" smooth="yes"/>
      <point x="136.09375" y="38.0"/>
      <point x="97.5126953125" y="-10.0"/>
      <point x="48.77734375" y="-10.0" type="curve" smooth="yes"/>
      <point x="-17.1044921875" y="-10.0"/>
      <point x="-30.6298828125" y="80.0"/>
      <point x="10.3701171875" y="258.0" type="curve" smooth="yes"/>
      <point x="133.370117188" y="793.0" type="line" smooth="yes"/>
      <point x="173.370117188" y="965.0"/>
      <point x="228.092773438" y="1060.0"/>
      <point x="296.682617188" y="1060.0" type="curve" smooth="yes"/>
      <point x="361.663085938" y="1060.0"/>
      <point x="361.09375" y="979.0"/>
      <point x="332.09375" y="824.0" type="curve" smooth="yes"/>
      <point x="309.09375" y="698.0"/>
      <point x="297.09375" y="648.0"/>
      <point x="268.09375" y="522.0" type="curve" smooth="yes"/>
      <point x="264.09375" y="503.0"/>
      <point x="258.09375" y="497.0"/>
      <point x="237.09375" y="497.0" type="curve" smooth="yes"/>
      <point x="82.3701171875" y="497.0" type="line"/>
      <point x="88.3701171875" y="523.0" type="line"/>
      <point x="241.275390625" y="523.0" type="line"/>
      <point x="342.490234375" y="970.0"/>
      <point x="338.493164062" y="1033.0"/>
      <point x="289.7578125" y="1033.0" type="curve" smooth="yes"/>
      <point x="239.217773438" y="1033.0"/>
      <point x="196.370117188" y="935.0"/>
      <point x="166.370117188" y="805.0" type="curve" smooth="yes"/>
      <point x="37.3701171875" y="245.0" type="line" smooth="yes"/>
      <point x="6.3701171875" y="111.0"/>
      <point x="5.1630859375" y="17.0"/>
      <point x="55.703125" y="17.0" type="curve" smooth="yes"/>
      <point x="108.950195312" y="17.0"/>
      <point x="141.909179688" y="118.0"/>
      <point x="211.09375" y="385.0" type="curve" smooth="yes"/>
      <point x="214.09375" y="397.0"/>
      <point x="218.09375" y="406.0"/>
      <point x="226.09375" y="406.0" type="curve" smooth="yes"/>
      <point x="227.09375" y="406.0" type="line" smooth="yes"/>
      <point x="235.09375" y="406.0"/>
      <point x="235.09375" y="398.0"/>
    </contour>
  </outline>
</glyph>
<glyph name="f" format="2">
  <advance height="1104" width="204"/>
  <unicode hex="0066"/>
  <outline>
    <contour>
      <point x="321.670898438" y="1025.0" type="curve" smooth="yes"/>
      <point x="178.670898438" y="1025.0" type="line" smooth="yes"/>
      <point x="169.670898438" y="1025.0"/>
      <point x="159.670898438" y="1028.0"/>
      <point x="159.670898438" y="1037.0" type="curve" smooth="yes"/>
      <point x="159.670898438" y="1038.0" type="line" smooth="yes"/>
      <point x="159.670898438" y="1047.0"/>
      <point x="169.670898438" y="1050.0"/>
      <point x="178.670898438" y="1050.0" type="curve" smooth="yes"/>
      <point x="321.670898438" y="1050.0" type="line" smooth="yes"/>
      <point x="336.670898438" y="1050.0"/>
      <point x="340.670898438" y="1047.0"/>
      <point x="340.670898438" y="1038.0" type="curve" smooth="yes"/>
      <point x="340.670898438" y="1037.0" type="line" smooth="yes"/>
      <point x="340.670898438" y="1028.0"/>
      <point x="336.670898438" y="1025.0"/>
    </contour>
    <contour>
      <point x="285.670898438" y="1315.0" type="line" smooth="yes"/>
      <point x="312.670898438" y="1434.0"/>
      <point x="330.670898438" y="1473.0"/>
      <point x="421.670898438" y="1462.0" type="curve" smooth="yes"/>
      <point x="432.670898438" y="1461.0"/>
      <point x="438.670898438" y="1458.0"/>
      <point x="436.670898438" y="1449.0" type="curve" smooth="yes"/>
      <point x="435.670898438" y="1448.0" type="line" smooth="yes"/>
      <point x="433.670898438" y="1440.0"/>
      <point x="424.670898438" y="1437.0"/>
      <point x="412.670898438" y="1438.0" type="curve" smooth="yes"/>
      <point x="344.670898438" y="1445.0"/>
      <point x="335.670898438" y="1398.0"/>
      <point x="316.670898438" y="1315.0" type="curve" smooth="yes"/>
      <point x="-66.3291015625" y="-344.0" type="line" smooth="yes"/>
      <point x="-69.3291015625" y="-359.0"/>
      <point x="-77.3291015625" y="-363.0"/>
      <point x="-86.3291015625" y="-363.0" type="curve" smooth="yes"/>
      <point x="-88.3291015625" y="-363.0" type="line" smooth="yes"/>
      <point x="-97.3291015625" y="-363.0"/>
      <point x="-100.329101562" y="-359.0"/>
      <point x="-97.3291015625" y="-344.0" type="curve" smooth="yes"/>
    </contour>
  </outline>
</glyph>
<glyph name="h" format="2">
  <advance height="1104" width="303"/>
  <unicode hex="0068"/>
  <anchor x="52.0" y="0.0" name="bottom"/>
  <anchor x="302.0" y="1450.0" name="top"/>
  <outline>
    <contour>
      <point x="305.686523438" y="1453.0" type="curve" smooth="yes"/>
      <point x="307.686523438" y="1453.0" type="line" smooth="yes"/>
      <point x="316.686523438" y="1453.0"/>
      <point x="320.677734375" y="1445.0"/>
      <point x="317.686523438" y="1434.0" type="curve" smooth="yes"/>
      <point x="-9.3134765625" y="16.0" type="line" smooth="yes"/>
      <point x="-12.3134765625" y="4.0"/>
      <point x="-19.3134765625" y="-3.0"/>
      <point x="-28.3134765625" y="-3.0" type="curve" smooth="yes"/>
      <point x="-30.3134765625" y="-3.0" type="line" smooth="yes"/>
      <point x="-39.3134765625" y="-3.0"/>
      <point x="-42.3134765625" y="4.0"/>
      <point x="-39.3134765625" y="16.0" type="curve" smooth="yes"/>
      <point x="287.686523438" y="1434.0" type="line" smooth="yes"/>
      <point x="290.686523438" y="1445.0"/>
      <point x="296.686523438" y="1453.0"/>
    </contour>
    <contour>
      <point x="172.686523438" y="839.0" type="line"/>
      <point x="202.686523438" y="967.0"/>
      <point x="252.446289062" y="1060.0"/>
      <point x="310.20703125" y="1060.0" type="curve" smooth="yes"/>
      <point x="364.426757812" y="1060.0"/>
      <point x="369.426757812" y="1001.0"/>
      <point x="341.426757812" y="881.0" type="curve" smooth="yes"/>
      <point x="142.426757812" y="16.0" type="line" smooth="yes"/>
      <point x="139.426757812" y="4.0"/>
      <point x="132.426757812" y="-3.0"/>
      <point x="123.426757812" y="-3.0" type="curve" smooth="yes"/>
      <point x="122.426757812" y="-3.0" type="line" smooth="yes"/>
      <point x="113.426757812" y="-3.0"/>
      <point x="110.448242188" y="4.0"/>
      <point x="113.426757812" y="16.0" type="curve" smooth="yes"/>
      <point x="312.495117188" y="881.0" type="line" smooth="yes"/>
      <point x="331.48828125" y="963.0"/>
      <point x="341.186523438" y="1033.0"/>
      <point x="296.061523438" y="1033.0" type="curve" smooth="yes"/>
      <point x="252.741210938" y="1033.0"/>
      <point x="200.686523438" y="926.0"/>
      <point x="172.686523438" y="805.0" type="curve"/>
    </contour>
  </outline>
</glyph>
<glyph name="i" format="2">
  <advance height="1104" width="149"/>
  <unicode hex="0069"/>
  <anchor x="-44.0" y="0.0" name="bottom"/>
  <anchor x="-44.0" y="0.0" name="ogonek"/>
  <outline>
    <contour>
      <point x="312.143554688" y="1411.0" type="curve" smooth="yes"/>
      <point x="270.143554688" y="1229.0" type="line" smooth="yes"/>
      <point x="267.143554688" y="1217.0"/>
      <point x="261.143554688" y="1210.0"/>
      <point x="248.143554688" y="1210.0" type="curve" smooth="yes"/>
      <point x="247.143554688" y="1210.0" type="line" smooth="yes"/>
      <point x="234.143554688" y="1210.0"/>
      <point x="233.143554688" y="1217.0"/>
      <point x="236.143554688" y="1229.0" type="curve" smooth="yes"/>
      <point x="278.143554688" y="1411.0" type="line" smooth="yes"/>
      <point x="281.143554688" y="1423.0"/>
      <point x="285.143554688" y="1431.0"/>
      <point x="298.143554688" y="1431.0" type="curve" smooth="yes"/>
      <point x="300.143554688" y="1431.0" type="line" smooth="yes"/>
      <point x="313.143554688" y="1431.0"/>
      <point x="315.143554688" y="1423.0"/>
    </contour>
    <contour>
      <point x="223.143554688" y="1034.0" type="curve" smooth="yes"/>
      <point x="-11.8564453125" y="16.0" type="line" smooth="yes"/>
      <point x="-14.8564453125" y="3.0"/>
      <point x="-19.8564453125" y="-3.0"/>
      <point x="-30.8564453125" y="-3.0" type="curve" smooth="yes"/>
      <point x="-32.8564453125" y="-3.0" type="line" smooth="yes"/>
      <point x="-43.8564453125" y="-3.0"/>
      <point x="-44.8564453125" y="3.0"/>
      <point x="-41.8564453125" y="16.0" type="curve" smooth="yes"/>
      <point x="193.143554688" y="1034.0" type="line" smooth="yes"/>
      <point x="196.143554688" y="1047.0"/>
      <point x="200.143554688" y="1053.0"/>
      <point x="211.143554688" y="1053.0" type="curve" smooth="yes"/>
      <point x="213.143554688" y="1053.0" type="line" smooth="yes"/>
      <point x="224.143554688" y="1053.0"/>
      <point x="226.143554688" y="1047.0"/>
    </contour>
  </outline>
</glyph>
<glyph name="j" format="2">
  <advance height="1104" width="149"/>
  <unicode hex="006A"/>
  <outline>
    <contour>
      <point x="-20.8486328125" y="-59.0" type="line" smooth="yes"/>
      <point x="-69.8486328125" y="-271.0"/>
      <point x="-109.848632812" y="-371.0"/>
      <point x="-158.848632812" y="-371.0" type="curve" smooth="yes"/>
      <point x="-227.848632812" y="-371.0"/>
      <point x="-168.848632812" y="-199.0"/>
      <point x="-128.848632812" y="-107.0" type="curve" smooth="yes"/>
      <point x="-126.848632812" y="-102.0"/>
      <point x="-123.848632812" y="-98.0"/>
      <point x="-119.848632812" y="-98.0" type="curve" smooth="yes"/>
      <point x="-118.848632812" y="-98.0" type="line" smooth="yes"/>
      <point x="-113.848632812" y="-98.0"/>
      <point x="-111.102539062" y="-102.8828125"/>
      <point x="-112.848632812" y="-107.0" type="curve" smooth="yes"/>
      <point x="-151.848632812" y="-199.0"/>
      <point x="-196.848632812" y="-345.0"/>
      <point x="-156.848632812" y="-345.0" type="curve" smooth="yes"/>
      <point x="-123.848632812" y="-345.0"/>
      <point x="-95.8486328125" y="-255.0"/>
      <point x="-50.8486328125" y="-60.0" type="curve" smooth="yes"/>
      <point x="203.151367188" y="1040.0" type="line" smooth="yes"/>
      <point x="204.736328125" y="1046.86523438"/>
      <point x="210.151367188" y="1054.0"/>
      <point x="219.151367188" y="1054.0" type="curve" smooth="yes"/>
      <point x="220.151367188" y="1054.0" type="line" smooth="yes"/>
      <point x="229.151367188" y="1054.0"/>
      <point x="234.737304688" y="1046.86425781"/>
      <point x="233.151367188" y="1040.0" type="curve" smooth="yes"/>
    </contour>
    <contour>
      <point x="320.151367188" y="1411.0" type="curve" smooth="yes"/>
      <point x="278.151367188" y="1229.0" type="line" smooth="yes"/>
      <point x="275.151367188" y="1217.0"/>
      <point x="269.151367188" y="1210.0"/>
      <point x="256.151367188" y="1210.0" type="curve" smooth="yes"/>
      <point x="255.151367188" y="1210.0" type="line" smooth="yes"/>
      <point x="242.151367188" y="1210.0"/>
      <point x="241.151367188" y="1217.0"/>
      <point x="244.151367188" y="1229.0" type="curve" smooth="yes"/>
      <point x="286.151367188" y="1411.0" type="line" smooth="yes"/>
      <point x="289.151367188" y="1423.0"/>
      <point x="293.151367188" y="1431.0"/>
      <point x="306.151367188" y="1431.0" type="curve" smooth="yes"/>
      <point x="308.151367188" y="1431.0" type="line" smooth="yes"/>
      <point x="321.151367188" y="1431.0"/>
      <point x="323.151367188" y="1423.0"/>
    </contour>
  </outline>
</glyph>
<glyph name="k" format="2">
  <advance height="1104" width="269"/>
  <unicode hex="006B"/>
  <outline>
    <contour>
      <point x="303.880859375" y="1453.0" type="curve" smooth="yes"/>
      <point x="305.880859375" y="1453.0" type="line" smooth="yes"/>
      <point x="314.880859375" y="1453.0"/>
      <point x="317.880859375" y="1443.0"/>
      <point x="315.880859375" y="1434.0" type="curve" smooth="yes"/>
      <point x="-11.119140625" y="16.0" type="line" smooth="yes"/>
      <point x="-14.119140625" y="5.0"/>
      <point x="-21.119140625" y="-3.0"/>
      <point x="-30.119140625" y="-3.0" type="curve" smooth="yes"/>
      <point x="-32.119140625" y="-3.0" type="line" smooth="yes"/>
      <point x="-41.119140625" y="-3.0"/>
      <point x="-44.119140625" y="5.0"/>
      <point x="-41.119140625" y="16.0" type="curve" smooth="yes"/>
      <point x="285.880859375" y="1434.0" type="line" smooth="yes"/>
      <point x="287.880859375" y="1443.0"/>
      <point x="295.880859375" y="1453.0"/>
    </contour>
    <contour>
      <point x="62.880859375" y="412.0" type="line"/>
      <point x="341.1640625" y="1032.0" type="line" smooth="yes"/>
      <point x="346.87109375" y="1045.0"/>
      <point x="353.569335938" y="1053.0"/>
      <point x="362.569335938" y="1053.0" type="curve" smooth="yes"/>
      <point x="363.569335938" y="1053.0" type="line" smooth="yes"/>
      <point x="372.569335938" y="1053.0"/>
      <point x="374.569335938" y="1045.0"/>
      <point x="368.569335938" y="1032.0" type="curve" smooth="yes"/>
      <point x="59.880859375" y="367.0" type="line"/>
    </contour>
    <contour>
      <point x="178.485351562" y="661.0" type="line"/>
      <point x="202.127929688" y="709.0" type="line"/>
      <point x="143.569335938" y="18.0" type="line" smooth="yes"/>
      <point x="142.569335938" y="7.0"/>
      <point x="136.569335938" y="-3.0"/>
      <point x="125.569335938" y="-3.0" type="curve" smooth="yes"/>
      <point x="124.569335938" y="-3.0" type="line" smooth="yes"/>
      <point x="114.569335938" y="-3.0"/>
      <point x="111.569335938" y="7.0"/>
      <point x="112.569335938" y="18.0" type="curve" smooth="yes"/>
    </contour>
  </outline>
</glyph>
<glyph name="l" format="2">
  <advance height="1104" width="155"/>
  <unicode hex="006C"/>
  <outline>
    <contour>
      <point x="306.686523438" y="1453.0" type="curve" smooth="yes"/>
      <point x="307.686523438" y="1453.0" type="line" smooth="yes"/>
      <point x="315.686523438" y="1453.0"/>
      <point x="320.686523438" y="1446.0"/>
      <point x="317.686523438" y="1434.0" type="curve" smooth="yes"/>
      <point x="-9.3134765625" y="16.0" type="line" smooth="yes"/>
      <point x="-12.3134765625" y="4.0"/>
      <point x="-19.3134765625" y="-3.0"/>
      <point x="-28.3134765625" y="-3.0" type="curve" smooth="yes"/>
      <point x="-29.3134765625" y="-3.0" type="line" smooth="yes"/>
      <point x="-38.3134765625" y="-3.0"/>
      <point x="-42.3134765625" y="4.0"/>
      <point x="-39.3134765625" y="16.0" type="curve" smooth="yes"/>
      <point x="287.686523438" y="1434.0" type="line" smooth="yes"/>
      <point x="290.686523438" y="1446.0"/>
      <point x="298.686523438" y="1453.0"/>
    </contour>
  </outline>
</glyph>
<glyph name="m" format="2">
  <advance height="1104" width="423"/>
  <unicode hex="006D"/>
  <outline>
    <contour>
      <point x="309.091796875" y="839.0" type="line"/>
      <point x="342.091796875" y="983.0"/>
      <point x="380.630859375" y="1060.0"/>
      <point x="433.87890625" y="1060.0" type="curve" smooth="yes"/>
      <point x="477.78125" y="1060.0"/>
      <point x="487.782226562" y="1000.0"/>
      <point x="460.78125" y="885.0" type="curve" smooth="yes"/>
      <point x="260.782226562" y="16.0" type="line" smooth="yes"/>
      <point x="257.78125" y="4.0"/>
      <point x="249.782226562" y="-3.0"/>
      <point x="240.782226562" y="-3.0" type="curve" smooth="yes"/>
      <point x="239.782226562" y="-3.0" type="line" smooth="yes"/>
      <point x="230.782226562" y="-3.0"/>
      <point x="227.803710938" y="4.0"/>
      <point x="230.782226562" y="16.0" type="curve" smooth="yes"/>
      <point x="430.841796875" y="885.0" type="line" smooth="yes"/>
      <point x="448.888671875" y="965.0"/>
      <point x="451.275390625" y="1031.0"/>
      <point x="417.883789062" y="1031.0" type="curve" smooth="yes"/>
      <point x="385.393554688" y="1031.0"/>
      <point x="339.091796875" y="939.0"/>
      <point x="308.091796875" y="805.0" type="curve"/>
    </contour>
    <contour>
      <point x="211.65234375" y="1053.0" type="curve" smooth="yes"/>
      <point x="213.65234375" y="1053.0" type="line" smooth="yes"/>
      <point x="222.65234375" y="1053.0"/>
      <point x="224.640625" y="1046.0"/>
      <point x="221.65234375" y="1034.0" type="curve" smooth="yes"/>
      <point x="194.65234375" y="917.0" type="line"/>
      <point x="195.416992188" y="901.0" type="line"/>
      <point x="-8.5986328125" y="16.0" type="line" smooth="yes"/>
      <point x="-11.5869140625" y="4.0"/>
      <point x="-18.34765625" y="-3.0"/>
      <point x="-27.34765625" y="-3.0" type="curve" smooth="yes"/>
      <point x="-29.34765625" y="-3.0" type="line" smooth="yes"/>
      <point x="-38.34765625" y="-3.0"/>
      <point x="-42.34765625" y="4.0"/>
      <point x="-39.34765625" y="16.0" type="curve" smooth="yes"/>
      <point x="195.65234375" y="1034.0" type="line" smooth="yes"/>
      <point x="198.65234375" y="1046.0"/>
      <point x="202.65234375" y="1053.0"/>
    </contour>
    <contour>
      <point x="171.65234375" y="842.0" type="line"/>
      <point x="203.65234375" y="979.0"/>
      <point x="248.649414062" y="1060.0"/>
      <point x="300.090820312" y="1060.0" type="curve" smooth="yes"/>
      <point x="347.091796875" y="1060.0"/>
      <point x="353.091796875" y="1000.0"/>
      <point x="326.091796875" y="885.0" type="curve" smooth="yes"/>
      <point x="126.091796875" y="16.0" type="line" smooth="yes"/>
      <point x="123.091796875" y="4.0"/>
      <point x="116.091796875" y="-3.0"/>
      <point x="107.091796875" y="-3.0" type="curve" smooth="yes"/>
      <point x="105.091796875" y="-3.0" type="line" smooth="yes"/>
      <point x="96.091796875" y="-3.0"/>
      <point x="93.11328125" y="4.0"/>
      <point x="96.091796875" y="16.0" type="curve" smooth="yes"/>
      <point x="296.15234375" y="885.0" type="line" smooth="yes"/>
      <point x="314.15234375" y="963.0"/>
      <point x="318.390625" y="1031.0"/>
      <point x="284.999023438" y="1031.0" type="curve" smooth="yes"/>
      <point x="252.508789062" y="1031.0"/>
      <point x="203.420898438" y="936.0"/>
      <point x="173.409179688" y="805.0" type="curve"/>
    </contour>
  </outline>
</glyph>
<glyph name="n" format="2">
  <advance height="1104" width="303"/>
  <unicode hex="006E"/>
  <anchor x="48.0" y="0.0" name="bottom"/>
  <anchor x="312.0" y="1050.0" name="top"/>
  <outline>
    <contour>
      <point x="212.65234375" y="1053.0" type="curve" smooth="yes"/>
      <point x="214.65234375" y="1053.0" type="line" smooth="yes"/>
      <point x="223.65234375" y="1053.0"/>
      <point x="225.65234375" y="1046.0"/>
      <point x="222.65234375" y="1034.0" type="curve" smooth="yes"/>
      <point x="191.65234375" y="902.0" type="line"/>
      <point x="191.638671875" y="886.0" type="line"/>
      <point x="-9.34765625" y="16.0" type="line" smooth="yes"/>
      <point x="-12.34765625" y="4.0"/>
      <point x="-19.34765625" y="-3.0"/>
      <point x="-28.34765625" y="-3.0" type="curve" smooth="yes"/>
      <point x="-30.34765625" y="-3.0" type="line" smooth="yes"/>
      <point x="-39.34765625" y="-3.0"/>
      <point x="-42.34765625" y="4.0"/>
      <point x="-39.34765625" y="16.0" type="curve" smooth="yes"/>
      <point x="195.65234375" y="1034.0" type="line" smooth="yes"/>
      <point x="198.65234375" y="1046.0"/>
      <point x="203.65234375" y="1053.0"/>
    </contour>
    <contour>
      <point x="172.65234375" y="839.0" type="line"/>
      <point x="202.65234375" y="967.0"/>
      <point x="245.192382812" y="1060.0"/>
      <point x="310.172851562" y="1060.0" type="curve" smooth="yes"/>
      <point x="364.392578125" y="1060.0"/>
      <point x="369.392578125" y="1001.0"/>
      <point x="341.392578125" y="881.0" type="curve" smooth="yes"/>
      <point x="142.392578125" y="16.0" type="line" smooth="yes"/>
      <point x="139.392578125" y="4.0"/>
      <point x="133.392578125" y="-3.0"/>
      <point x="124.392578125" y="-3.0" type="curve" smooth="yes"/>
      <point x="121.392578125" y="-3.0" type="line" smooth="yes"/>
      <point x="112.392578125" y="-3.0"/>
      <point x="110.415039062" y="4.0"/>
      <point x="113.392578125" y="16.0" type="curve" smooth="yes"/>
      <point x="312.4609375" y="881.0" type="line" smooth="yes"/>
      <point x="331.454101562" y="963.0"/>
      <point x="341.15234375" y="1033.0"/>
      <point x="296.02734375" y="1033.0" type="curve" smooth="yes"/>
      <point x="252.708007812" y="1033.0"/>
      <point x="200.65234375" y="926.0"/>
      <point x="172.65234375" y="805.0" type="curve"/>
    </contour>
  </outline>
</glyph>
<glyph name="o" format="2">
  <advance height="1104" width="314"/>
  <unicode hex="006F"/>
  <anchor x="54.0" y="0.0" name="bottom"/>
  <anchor x="296.0" y="1050.0" name="top"/>
  <outline>
    <contour>
      <point x="-2.2451171875" y="221.0" type="curve" smooth="yes"/>
      <point x="138.754882812" y="831.0" type="line" smooth="yes"/>
      <point x="177.754882812" y="998.0"/>
      <point x="232.653320312" y="1060.0"/>
      <point x="297.6328125" y="1060.0" type="curve" smooth="yes"/>
      <point x="362.61328125" y="1060.0"/>
      <point x="390.5703125" y="998.0"/>
      <point x="351.5703125" y="831.0" type="curve" smooth="yes"/>
      <point x="210.5703125" y="221.0" type="line" smooth="yes"/>
      <point x="171.5703125" y="54.0"/>
      <point x="115.610351562" y="-10.0"/>
      <point x="50.630859375" y="-10.0" type="curve" smooth="yes"/>
      <point x="-14.349609375" y="-10.0"/>
      <point x="-41.2451171875" y="54.0"/>
    </contour>
    <contour>
      <point x="25.7548828125" y="208.0" type="line" smooth="yes"/>
      <point x="-2.2451171875" y="87.0"/>
      <point x="7.9404296875" y="18.0"/>
      <point x="56.6748046875" y="18.0" type="curve" smooth="yes"/>
      <point x="105.411132812" y="18.0"/>
      <point x="147.576171875" y="87.0"/>
      <point x="175.5703125" y="208.0" type="curve" smooth="yes"/>
      <point x="322.5703125" y="843.0" type="line" smooth="yes"/>
      <point x="350.5703125" y="964.0"/>
      <point x="339.420898438" y="1032.0"/>
      <point x="290.685546875" y="1032.0" type="curve" smooth="yes"/>
      <point x="241.950195312" y="1032.0"/>
      <point x="200.708984375" y="964.0"/>
      <point x="172.716796875" y="843.0" type="curve" smooth="yes"/>
    </contour>
  </outline>
</glyph>
<glyph name="p" format="2">
  <advance height="1104" width="311"/>
  <unicode hex="0070"/>
  <outline>
    <contour>
      <point x="167.870117188" y="829.0" type="line"/>
      <point x="204.870117188" y="990.0"/>
      <point x="250.0546875" y="1070.0"/>
      <point x="314.130859375" y="1070.0" type="curve" smooth="yes"/>
      <point x="360.158203125" y="1070.0"/>
      <point x="396.78515625" y="1029.0"/>
      <point x="354.78515625" y="845.0" type="curve" smooth="yes"/>
      <point x="211.78515625" y="224.0" type="line" smooth="yes"/>
      <point x="174.78515625" y="62.0"/>
      <point x="122.858398438" y="-10.0"/>
      <point x="63.2939453125" y="-10.0" type="curve" smooth="yes"/>
      <point x="2.826171875" y="-10.0"/>
      <point x="-6.1298828125" y="81.0"/>
      <point x="30.8701171875" y="242.0" type="curve"/>
      <point x="42.861328125" y="245.0" type="line"/>
      <point x="14.8671875" y="124.0"/>
      <point x="19.7236328125" y="19.0"/>
      <point x="67.556640625" y="19.0" type="curve" smooth="yes"/>
      <point x="112.681640625" y="19.0"/>
      <point x="150.806640625" y="109.0"/>
      <point x="174.78515625" y="212.0" type="curve" smooth="yes"/>
      <point x="323.821289062" y="859.0" type="line" smooth="yes"/>
      <point x="352.831054688" y="985.0"/>
      <point x="341.456054688" y="1041.0"/>
      <point x="296.331054688" y="1041.0" type="curve" smooth="yes"/>
      <point x="250.303710938" y="1041.0"/>
      <point x="204.8671875" y="947.0"/>
      <point x="176.869140625" y="826.0" type="curve"/>
    </contour>
    <contour>
      <point x="-131.129882812" y="-374.0" type="curve" smooth="yes"/>
      <point x="193.870117188" y="1035.0" type="line" smooth="yes"/>
      <point x="196.869140625" y="1047.0"/>
      <point x="201.870117188" y="1054.0"/>
      <point x="209.870117188" y="1054.0" type="curve" smooth="yes"/>
      <point x="211.870117188" y="1054.0" type="line" smooth="yes"/>
      <point x="219.870117188" y="1054.0"/>
      <point x="223.869140625" y="1047.0"/>
      <point x="220.870117188" y="1035.0" type="curve" smooth="yes"/>
      <point x="191.870117188" y="911.0" type="line"/>
      <point x="191.870117188" y="893.0" type="line"/>
      <point x="-100.129882812" y="-374.0" type="line" smooth="yes"/>
      <point x="-103.130859375" y="-386.0"/>
      <point x="-111.129882812" y="-393.0"/>
      <point x="-120.129882812" y="-393.0" type="curve" smooth="yes"/>
      <point x="-122.129882812" y="-393.0" type="line" smooth="yes"/>
      <point x="-131.129882812" y="-393.0"/>
      <point x="-134.130859375" y="-386.0"/>
    </contour>
  </outline>
</glyph>
<glyph name="q" format="2">
  <advance height="1104" width="309"/>
  <unicode hex="0071"/>
  <outline>
    <contour>
      <point x="39.640625" y="-401.0" type="curve" smooth="yes"/>
      <point x="37.640625" y="-401.0" type="line" smooth="yes"/>
      <point x="28.640625" y="-401.0"/>
      <point x="26.640625" y="-393.0"/>
      <point x="29.640625" y="-379.0" type="curve" smooth="yes"/>
      <point x="324.666015625" y="901.0" type="line"/>
      <point x="371.640625" y="1046.0" type="line" smooth="yes"/>
      <point x="375.640625" y="1059.0"/>
      <point x="379.640625" y="1062.0"/>
      <point x="383.640625" y="1062.0" type="curve" smooth="yes"/>
      <point x="384.640625" y="1062.0" type="line" smooth="yes"/>
      <point x="388.640625" y="1062.0"/>
      <point x="391.640625" y="1059.0"/>
      <point x="388.640625" y="1048.0" type="curve" smooth="yes"/>
      <point x="59.640625" y="-379.0" type="line" smooth="yes"/>
      <point x="56.640625" y="-393.0"/>
      <point x="48.640625" y="-401.0"/>
    </contour>
    <contour>
      <point x="175.640625" y="206.0" type="line"/>
      <point x="138.640625" y="47.0"/>
      <point x="82.291015625" y="-3.0"/>
      <point x="27.23828125" y="-3.0" type="curve" smooth="yes"/>
      <point x="-28.7158203125" y="-3.0"/>
      <point x="-47.7138671875" y="43.0"/>
      <point x="-13.7138671875" y="191.0" type="curve" smooth="yes"/>
      <point x="132.286132812" y="825.0" type="line" smooth="yes"/>
      <point x="172.286132812" y="999.0"/>
      <point x="201.286132812" y="1055.0"/>
      <point x="265.849609375" y="1055.0" type="curve" smooth="yes"/>
      <point x="345.268554688" y="1055.0"/>
      <point x="336.640625" y="903.0"/>
      <point x="303.640625" y="758.0" type="curve"/>
      <point x="288.69921875" y="747.0" type="line"/>
      <point x="317.684570312" y="872.0"/>
      <point x="326.588867188" y="1027.0"/>
      <point x="260.706054688" y="1027.0" type="curve" smooth="yes"/>
      <point x="220.99609375" y="1027.0"/>
      <point x="196.286132812" y="972.0"/>
      <point x="165.286132812" y="838.0" type="curve" smooth="yes"/>
      <point x="13.2861328125" y="179.0" type="line" smooth="yes"/>
      <point x="-7.7138671875" y="89.0"/>
      <point x="-9.111328125" y="26.0"/>
      <point x="42.33203125" y="26.0" type="curve" smooth="yes"/>
      <point x="89.26171875" y="26.0"/>
      <point x="138.71484375" y="98.0"/>
      <point x="164.678710938" y="209.0" type="curve"/>
    </contour>
  </outline>
</glyph>
<glyph name="r" format="2">
  <advance height="1104" width="260"/>
  <unicode hex="0072"/>
  <anchor x="-35.0" y="0.0" name="bottom"/>
  <anchor x="274.0" y="1050.0" name="top"/>
  <outline>
    <contour>
      <point x="149.84765625" y="713.0" type="curve"/>
      <point x="152.84765625" y="770.0" type="line"/>
      <point x="191.84765625" y="940.0"/>
      <point x="265.84765625" y="1060.0"/>
      <point x="327.84765625" y="1060.0" type="curve" smooth="yes"/>
      <point x="405.84765625" y="1060.0"/>
      <point x="405.84765625" y="933.0"/>
      <point x="231.84765625" y="670.0" type="curve" smooth="yes"/>
      <point x="228.84765625" y="666.0"/>
      <point x="226.84765625" y="662.0"/>
      <point x="223.84765625" y="662.0" type="curve" smooth="yes"/>
      <point x="222.84765625" y="662.0" type="line" smooth="yes"/>
      <point x="216.84765625" y="662.0"/>
      <point x="216.84765625" y="666.0"/>
      <point x="218.84765625" y="670.0" type="curve" smooth="yes"/>
      <point x="356.84765625" y="904.0"/>
      <point x="381.84765625" y="1031.0"/>
      <point x="319.84765625" y="1031.0" type="curve" smooth="yes"/>
      <point x="266.84765625" y="1031.0"/>
      <point x="199.84765625" y="928.0"/>
    </contour>
    <contour>
      <point x="209.84765625" y="1053.0" type="curve" smooth="yes"/>
      <point x="210.84765625" y="1053.0" type="line" smooth="yes"/>
      <point x="219.84765625" y="1053.0"/>
      <point x="222.84765625" y="1045.0"/>
      <point x="219.84765625" y="1034.0" type="curve" smooth="yes"/>
      <point x="152.84765625" y="746.0" type="line"/>
      <point x="155.84765625" y="741.0" type="line"/>
      <point x="-11.15234375" y="16.0" type="line" smooth="yes"/>
      <point x="-14.15234375" y="4.0"/>
      <point x="-20.15234375" y="-3.0"/>
      <point x="-30.15234375" y="-3.0" type="curve" smooth="yes"/>
      <point x="-32.15234375" y="-3.0" type="line" smooth="yes"/>
      <point x="-42.15234375" y="-3.0"/>
      <point x="-44.15234375" y="4.0"/>
      <point x="-41.15234375" y="16.0" type="curve" smooth="yes"/>
      <point x="193.84765625" y="1034.0" type="line" smooth="yes"/>
      <point x="196.84765625" y="1045.0"/>
      <point x="200.84765625" y="1053.0"/>
    </contour>
  </outline>
</glyph>
<glyph name="s" format="2">
  <advance height="1104" width="283"/>
  <unicode hex="0073"/>
  <anchor x="36.0" y="0.0" name="bottom"/>
  <anchor x="281.0" y="1050.0" name="top"/>
  <outline>
    <contour>
      <point x="83.57421875" y="393.0" type="curve" smooth="yes"/>
      <point x="96.208984375" y="393.0" type="line" smooth="yes"/>
      <point x="99.8193359375" y="393.0"/>
      <point x="101.741210938" y="390.4921875"/>
      <point x="99.68359375" y="387.0" type="curve" smooth="yes"/>
      <point x="69.65625" y="336.0"/>
      <point x="32.1298828125" y="268.755859375"/>
      <point x="16.0322265625" y="199.0" type="curve" smooth="yes"/>
      <point x="-13.96875" y="69.0"/>
      <point x="-3.3837890625" y="18.0"/>
      <point x="37.228515625" y="18.0" type="curve" smooth="yes"/>
      <point x="85.962890625" y="18.0"/>
      <point x="128.668945312" y="111.0"/>
      <point x="154.6328125" y="222.0" type="curve" smooth="yes"/>
      <point x="212.672851562" y="475.0"/>
      <point x="71.0322265625" y="525.0"/>
      <point x="144.032226562" y="843.0" type="curve" smooth="yes"/>
      <point x="185.032226562" y="1022.0"/>
      <point x="235.993164062" y="1070.0"/>
      <point x="285.630859375" y="1070.0" type="curve" smooth="yes"/>
      <point x="344.29296875" y="1070.0"/>
      <point x="356.6328125" y="1001.0"/>
      <point x="313.6328125" y="842.0" type="curve" smooth="yes"/>
      <point x="300.012695312" y="791.63671875"/>
      <point x="276.6328125" y="735.0"/>
      <point x="233.46484375" y="677.0" type="curve" smooth="yes"/>
      <point x="231.079101562" y="673.76953125"/>
      <point x="231.547851562" y="672.0"/>
      <point x="227.936523438" y="672.0" type="curve" smooth="yes"/>
      <point x="215.301757812" y="672.0" type="line" smooth="yes"/>
      <point x="211.692382812" y="672.0"/>
      <point x="208.373046875" y="674.928710938"/>
      <point x="210.924804688" y="678.0" type="curve" smooth="yes"/>
      <point x="250.8125" y="726.0"/>
      <point x="271.76953125" y="792.850585938"/>
      <point x="285.958007812" y="844.0" type="curve" smooth="yes"/>
      <point x="322.30078125" y="975.0"/>
      <point x="325.61328125" y="1042.0"/>
      <point x="279.584960938" y="1042.0" type="curve" smooth="yes"/>
      <point x="236.265625" y="1042.0"/>
      <point x="201.185546875" y="967.0"/>
      <point x="172.221679688" y="843.0" type="curve" smooth="yes"/>
      <point x="102.225585938" y="540.0"/>
      <point x="245.6328125" y="481.0"/>
      <point x="185.6328125" y="222.0" type="curve" smooth="yes"/>
      <point x="148.6328125" y="62.0"/>
      <point x="87.138671875" y="-10.0"/>
      <point x="37.5009765625" y="-10.0" type="curve" smooth="yes"/>
      <point x="-17.5517578125" y="-10.0"/>
      <point x="-49.9677734375" y="28.0"/>
      <point x="-14.9677734375" y="177.0" type="curve" smooth="yes"/>
      <point x="3.734375" y="256.619140625"/>
      <point x="49.0322265625" y="342.0"/>
      <point x="78.046875" y="388.0" type="curve" smooth="yes"/>
      <point x="80.203125" y="391.418945312"/>
      <point x="79.96484375" y="393.0"/>
    </contour>
  </outline>
</glyph>
<glyph name="t" format="2">
  <advance height="1104" width="202"/>
  <unicode hex="0074"/>
  <anchor x="25.0" y="0.0" name="bottom"/>
  <outline>
    <contour>
      <point x="317.45703125" y="1025.0" type="curve" smooth="yes"/>
      <point x="171.45703125" y="1025.0" type="line" smooth="yes"/>
      <point x="160.45703125" y="1025.0"/>
      <point x="152.45703125" y="1028.0"/>
      <point x="152.45703125" y="1037.0" type="curve" smooth="yes"/>
      <point x="152.45703125" y="1038.0" type="line" smooth="yes"/>
      <point x="152.45703125" y="1047.0"/>
      <point x="160.45703125" y="1050.0"/>
      <point x="171.45703125" y="1050.0" type="curve" smooth="yes"/>
      <point x="317.45703125" y="1050.0" type="line" smooth="yes"/>
      <point x="328.45703125" y="1050.0"/>
      <point x="336.45703125" y="1047.0"/>
      <point x="336.45703125" y="1038.0" type="curve" smooth="yes"/>
      <point x="336.45703125" y="1037.0" type="line" smooth="yes"/>
      <point x="336.45703125" y="1028.0"/>
      <point x="328.45703125" y="1025.0"/>
    </contour>
    <contour>
      <point x="99.45703125" y="11.0" type="curve" smooth="yes"/>
      <point x="98.45703125" y="10.0" type="line" smooth="yes"/>
      <point x="96.45703125" y="3.0"/>
      <point x="90.45703125" y="0.0"/>
      <point x="80.45703125" y="-1.0" type="curve" smooth="yes"/>
      <point x="-8.54296875" y="-11.0"/>
      <point x="-15.54296875" y="26.0"/>
      <point x="12.45703125" y="146.0" type="curve" smooth="yes"/>
      <point x="300.45703125" y="1393.0" type="line" smooth="yes"/>
      <point x="303.45703125" y="1404.0"/>
      <point x="308.45703125" y="1412.0"/>
      <point x="317.45703125" y="1412.0" type="curve" smooth="yes"/>
      <point x="318.45703125" y="1412.0" type="line" smooth="yes"/>
      <point x="327.45703125" y="1412.0"/>
      <point x="332.45703125" y="1404.0"/>
      <point x="329.45703125" y="1393.0" type="curve" smooth="yes"/>
      <point x="41.45703125" y="146.0" type="line" smooth="yes"/>
      <point x="22.45703125" y="63.0"/>
      <point x="9.45703125" y="14.0"/>
      <point x="83.45703125" y="21.0" type="curve" smooth="yes"/>
      <point x="94.45703125" y="22.0"/>
      <point x="101.45703125" y="19.0"/>
    </contour>
  </outline>
</glyph>
<glyph name="u" format="2">
  <advance height="1104" width="303"/>
  <unicode hex="0075"/>
  <anchor x="42.0" y="0.0" name="bottom"/>
  <anchor x="115.0" y="0.0" name="ogonek"/>
  <anchor x="292.0" y="1050.0" name="top"/>
  <outline>
    <contour>
      <point x="123.504882812" y="-3.0" type="curve" smooth="yes"/>
      <point x="121.504882812" y="-3.0" type="line" smooth="yes"/>
      <point x="112.504882812" y="-3.0"/>
      <point x="111.504882812" y="4.0"/>
      <point x="114.504882812" y="16.0" type="curve" smooth="yes"/>
      <point x="144.504882812" y="148.0" type="line"/>
      <point x="145.504882812" y="164.0" type="line"/>
      <point x="346.490234375" y="1034.0" type="line" smooth="yes"/>
      <point x="349.490234375" y="1046.0"/>
      <point x="355.490234375" y="1053.0"/>
      <point x="364.490234375" y="1053.0" type="curve" smooth="yes"/>
      <point x="366.490234375" y="1053.0" type="line" smooth="yes"/>
      <point x="375.490234375" y="1053.0"/>
      <point x="379.490234375" y="1046.0"/>
      <point x="376.490234375" y="1034.0" type="curve" smooth="yes"/>
      <point x="141.504882812" y="16.0" type="line" smooth="yes"/>
      <point x="138.504882812" y="4.0"/>
      <point x="132.504882812" y="-3.0"/>
    </contour>
    <contour>
      <point x="164.504882812" y="211.0" type="line"/>
      <point x="134.504882812" y="83.0"/>
      <point x="91.9501953125" y="-10.0"/>
      <point x="26.9697265625" y="-10.0" type="curve" smooth="yes"/>
      <point x="-27.3173828125" y="-10.0"/>
      <point x="-32.3173828125" y="49.0"/>
      <point x="-4.3173828125" y="169.0" type="curve" smooth="yes"/>
      <point x="195.682617188" y="1034.0" type="line" smooth="yes"/>
      <point x="198.682617188" y="1046.0"/>
      <point x="203.682617188" y="1053.0"/>
      <point x="212.682617188" y="1053.0" type="curve" smooth="yes"/>
      <point x="215.682617188" y="1053.0" type="line" smooth="yes"/>
      <point x="224.682617188" y="1053.0"/>
      <point x="227.630859375" y="1046.0"/>
      <point x="224.65234375" y="1034.0" type="curve" smooth="yes"/>
      <point x="24.6826171875" y="169.0" type="line" smooth="yes"/>
      <point x="5.6826171875" y="87.0"/>
      <point x="-4.912109375" y="17.0"/>
      <point x="40.212890625" y="17.0" type="curve" smooth="yes"/>
      <point x="83.533203125" y="17.0"/>
      <point x="136.504882812" y="124.0"/>
      <point x="164.504882812" y="245.0" type="curve"/>
    </contour>
  </outline>
</glyph>
<glyph name="v" format="2">
  <advance height="1104" width="257"/>
  <unicode hex="0076"/>
  <outline>
    <contour>
      <point x="49.3369140625" y="73.0" type="line"/>
      <point x="350.336914062" y="1032.0" type="line" smooth="yes"/>
      <point x="355.336914062" y="1047.0"/>
      <point x="362.336914062" y="1053.0"/>
      <point x="369.336914062" y="1053.0" type="curve" smooth="yes"/>
      <point x="370.336914062" y="1053.0" type="line" smooth="yes"/>
      <point x="377.336914062" y="1053.0"/>
      <point x="381.336914062" y="1047.0"/>
      <point x="376.336914062" y="1032.0" type="curve" smooth="yes"/>
      <point x="55.3369140625" y="16.0" type="line" smooth="yes"/>
      <point x="50.3369140625" y="1.0"/>
      <point x="40.3369140625" y="-3.0"/>
      <point x="31.3369140625" y="-3.0" type="curve" smooth="yes"/>
      <point x="24.3369140625" y="-3.0" type="line" smooth="yes"/>
      <point x="15.3369140625" y="-3.0"/>
      <point x="8.3369140625" y="2.0"/>
      <point x="10.3369140625" y="16.0" type="curve" smooth="yes"/>
      <point x="152.336914062" y="1034.0" type="line" smooth="yes"/>
      <point x="154.336914062" y="1045.0"/>
      <point x="160.336914062" y="1053.0"/>
      <point x="168.336914062" y="1053.0" type="curve" smooth="yes"/>
      <point x="169.336914062" y="1053.0" type="line" smooth="yes"/>
      <point x="177.336914062" y="1053.0"/>
      <point x="179.336914062" y="1045.0"/>
      <point x="178.336914062" y="1034.0" type="curve" smooth="yes"/>
    </contour>
  </outline>
</glyph>
<glyph name="w" format="2">
  <advance height="1104" width="425"/>
  <unicode hex="0077"/>
  <outline>
    <contour>
      <point x="218.841796875" y="56.0" type="line"/>
      <point x="512.841796875" y="1032.0" type="line" smooth="yes"/>
      <point x="516.841796875" y="1045.0"/>
      <point x="522.841796875" y="1053.0"/>
      <point x="530.841796875" y="1053.0" type="curve" smooth="yes"/>
      <point x="532.841796875" y="1053.0" type="line" smooth="yes"/>
      <point x="540.841796875" y="1053.0"/>
      <point x="542.841796875" y="1045.0"/>
      <point x="538.841796875" y="1032.0" type="curve" smooth="yes"/>
      <point x="229.841796875" y="17.0" type="line" smooth="yes"/>
      <point x="225.841796875" y="3.0"/>
      <point x="217.841796875" y="-3.0"/>
      <point x="206.841796875" y="-3.0" type="curve" smooth="yes"/>
      <point x="198.841796875" y="-3.0" type="line" smooth="yes"/>
      <point x="188.841796875" y="-3.0"/>
      <point x="182.841796875" y="1.0"/>
      <point x="184.841796875" y="16.0" type="curve" smooth="yes"/>
      <point x="336.841796875" y="971.0" type="line"/>
      <point x="51.841796875" y="18.0" type="line" smooth="yes"/>
      <point x="47.841796875" y="3.0"/>
      <point x="39.841796875" y="-3.0"/>
      <point x="28.841796875" y="-3.0" type="curve" smooth="yes"/>
      <point x="18.841796875" y="-3.0" type="line" smooth="yes"/>
      <point x="7.841796875" y="-3.0"/>
      <point x="3.841796875" y="2.0"/>
      <point x="5.841796875" y="17.0" type="curve" smooth="yes"/>
      <point x="156.841796875" y="1033.0" type="line" smooth="yes"/>
      <point x="158.841796875" y="1047.0"/>
      <point x="164.841796875" y="1053.0"/>
      <point x="172.841796875" y="1053.0" type="curve" smooth="yes"/>
      <point x="173.841796875" y="1053.0" type="line" smooth="yes"/>
      <point x="181.841796875" y="1053.0"/>
      <point x="183.841796875" y="1047.0"/>
      <point x="181.841796875" y="1033.0" type="curve" smooth="yes"/>
      <point x="39.841796875" y="56.0" type="line"/>
      <point x="331.841796875" y="1032.0" type="line" smooth="yes"/>
      <point x="335.841796875" y="1046.0"/>
      <point x="342.841796875" y="1053.0"/>
      <point x="353.841796875" y="1053.0" type="curve" smooth="yes"/>
      <point x="355.841796875" y="1053.0" type="line" smooth="yes"/>
      <point x="365.841796875" y="1053.0"/>
      <point x="369.841796875" y="1044.0"/>
      <point x="367.841796875" y="1030.0" type="curve" smooth="yes"/>
    </contour>
  </outline>
</glyph>
<glyph name="x" format="2">
  <advance height="1104" width="270"/>
  <unicode hex="0078"/>
  <outline>
    <contour>
      <point x="-66.419921875" y="-3.0" type="curve" smooth="yes"/>
      <point x="-67.419921875" y="-3.0" type="line" smooth="yes"/>
      <point x="-77.419921875" y="-3.0"/>
      <point x="-79.419921875" y="8.0"/>
      <point x="-73.419921875" y="23.0" type="curve" smooth="yes"/>
      <point x="138.580078125" y="540.0" type="line"/>
      <point x="160.580078125" y="1033.0" type="line" smooth="yes"/>
      <point x="161.580078125" y="1045.0"/>
      <point x="169.580078125" y="1053.0"/>
      <point x="179.580078125" y="1053.0" type="curve" smooth="yes"/>
      <point x="180.580078125" y="1053.0" type="line" smooth="yes"/>
      <point x="188.580078125" y="1053.0"/>
      <point x="191.580078125" y="1044.0"/>
      <point x="190.580078125" y="1033.0" type="curve" smooth="yes"/>
      <point x="168.580078125" y="589.0" type="line"/>
      <point x="346.580078125" y="1033.0" type="line" smooth="yes"/>
      <point x="352.580078125" y="1048.0"/>
      <point x="359.580078125" y="1053.0"/>
      <point x="368.580078125" y="1053.0" type="curve" smooth="yes"/>
      <point x="369.580078125" y="1053.0" type="line" smooth="yes"/>
      <point x="376.580078125" y="1053.0"/>
      <point x="383.580078125" y="1048.0"/>
      <point x="377.580078125" y="1033.0" type="curve" smooth="yes"/>
      <point x="178.580078125" y="548.0" type="line"/>
      <point x="139.580078125" y="18.0" type="line" smooth="yes"/>
      <point x="138.580078125" y="5.0"/>
      <point x="129.580078125" y="-3.0"/>
      <point x="120.580078125" y="-3.0" type="curve" smooth="yes"/>
      <point x="119.580078125" y="-3.0" type="line" smooth="yes"/>
      <point x="110.580078125" y="-3.0"/>
      <point x="104.580078125" y="3.0"/>
      <point x="105.580078125" y="18.0" type="curve" smooth="yes"/>
      <point x="149.580078125" y="507.0" type="line"/>
      <point x="-43.419921875" y="23.0" type="line" smooth="yes"/>
      <point x="-49.419921875" y="8.0"/>
      <point x="-57.419921875" y="-3.0"/>
    </contour>
  </outline>
</glyph>
<glyph name="y" format="2">
  <advance height="1104" width="285"/>
  <unicode hex="0079"/>
  <anchor x="291.0" y="1050.0" name="top"/>
  <outline>
    <contour>
      <point x="64.8603515625" y="58.0" type="line"/>
      <point x="371.860351562" y="1038.0" type="line" smooth="yes"/>
      <point x="374.036132812" y="1044.9453125"/>
      <point x="378.860351562" y="1050.0"/>
      <point x="384.860351562" y="1050.0" type="curve" smooth="yes"/>
      <point x="385.860351562" y="1050.0" type="line" smooth="yes"/>
      <point x="393.860351562" y="1050.0"/>
      <point x="399.413085938" y="1043.18945312"/>
      <point x="395.860351562" y="1032.0" type="curve" smooth="yes"/>
      <point x="47.8603515625" y="-64.0" type="line" smooth="yes"/>
      <point x="-17.9833984375" y="-271.368164062"/>
      <point x="-70.1396484375" y="-371.0"/>
      <point x="-119.139648438" y="-371.0" type="curve" smooth="yes"/>
      <point x="-188.139648438" y="-371.0"/>
      <point x="-129.139648438" y="-199.0"/>
      <point x="-89.1396484375" y="-107.0" type="curve" smooth="yes"/>
      <point x="-87.1396484375" y="-102.0"/>
      <point x="-85.5400390625" y="-99.0"/>
      <point x="-81.1396484375" y="-99.0" type="curve" smooth="yes"/>
      <point x="-80.1396484375" y="-99.0" type="line" smooth="yes"/>
      <point x="-75.1396484375" y="-99.0"/>
      <point x="-71.3935546875" y="-102.8828125"/>
      <point x="-73.1396484375" y="-107.0" type="curve" smooth="yes"/>
      <point x="-112.139648438" y="-199.0"/>
      <point x="-157.139648438" y="-345.0"/>
      <point x="-117.139648438" y="-345.0" type="curve" smooth="yes"/>
      <point x="-72.1396484375" y="-345.0"/>
      <point x="-16.1396484375" y="-171.0"/>
      <point x="33.8603515625" y="-14.0" type="curve"/>
      <point x="173.860351562" y="1038.0" type="line" smooth="yes"/>
      <point x="175.31640625" y="1048.93945312"/>
      <point x="183.860351562" y="1053.0"/>
      <point x="187.860351562" y="1053.0" type="curve" smooth="yes"/>
      <point x="188.860351562" y="1053.0" type="line" smooth="yes"/>
      <point x="195.860351562" y="1053.0"/>
      <point x="201.095703125" y="1046.96777344"/>
      <point x="199.860351562" y="1038.0" type="curve" smooth="yes"/>
    </contour>
  </outline>
</glyph>
<glyph name="z" format="2">
  <advance height="1104" width="254"/>
  <unicode hex="007A"/>
  <anchor x="275.0" y="1050.0" name="top"/>
  <outline>
    <contour>
      <point x="-67.083984375" y="24.0" type="curve" smooth="yes"/>
      <point x="329.916015625" y="1022.0" type="line"/>
      <point x="201.916015625" y="1022.0" type="line" smooth="yes"/>
      <point x="189.916015625" y="1022.0"/>
      <point x="183.916015625" y="1025.0"/>
      <point x="185.916015625" y="1035.0" type="curve" smooth="yes"/>
      <point x="185.916015625" y="1036.0" type="line" smooth="yes"/>
      <point x="187.916015625" y="1044.0"/>
      <point x="195.916015625" y="1050.0"/>
      <point x="207.916015625" y="1050.0" type="curve" smooth="yes"/>
      <point x="342.916015625" y="1050.0" type="line" smooth="yes"/>
      <point x="361.916015625" y="1050.0"/>
      <point x="364.916015625" y="1039.0"/>
      <point x="356.916015625" y="1019.0" type="curve" smooth="yes"/>
      <point x="-37.083984375" y="28.0" type="line"/>
      <point x="111.916015625" y="28.0" type="line" smooth="yes"/>
      <point x="123.916015625" y="28.0"/>
      <point x="130.916015625" y="24.0"/>
      <point x="128.916015625" y="15.0" type="curve" smooth="yes"/>
      <point x="128.916015625" y="14.0" type="line" smooth="yes"/>
      <point x="126.916015625" y="5.0"/>
      <point x="117.916015625" y="0.0"/>
      <point x="105.916015625" y="0.0" type="curve" smooth="yes"/>
      <point x="-52.083984375" y="0.0" type="line" smooth="yes"/>
      <point x="-69.083984375" y="0.0"/>
      <point x="-74.083984375" y="6.0"/>
    </contour>
  </outline>
</glyph>
<glyph name="braceleft" format="2">
  <advance height="2048" width="288"/>
  <unicode hex="007B"/>
  <outline>
    <contour>
      <point x="330.0" y="1439.0" type="line" smooth="yes"/>
      <point x="356.0" y="1553.0"/>
      <point x="376.0" y="1594.0"/>
      <point x="471.0" y="1600.0" type="curve" smooth="yes"/>
      <point x="482.0" y="1601.0"/>
      <point x="490.0" y="1598.0"/>
      <point x="488.0" y="1589.0" type="curve" smooth="yes"/>
      <point x="488.0" y="1588.0" type="line" smooth="yes"/>
      <point x="486.0" y="1579.0"/>
      <point x="477.0" y="1576.0"/>
      <point x="466.0" y="1575.0" type="curve" smooth="yes"/>
      <point x="415.0" y="1569.0"/>
      <point x="387.0" y="1556.0"/>
      <point x="360.0" y="1439.0" type="curve" smooth="yes"/>
      <point x="210.0" y="788.0" type="line" smooth="yes"/>
      <point x="189.0" y="696.0"/>
      <point x="160.0" y="644.0"/>
      <point x="96.0" y="620.0" type="curve"/>
      <point x="148.0" y="596.0"/>
      <point x="153.0" y="544.0"/>
      <point x="132.0" y="452.0" type="curve" smooth="yes"/>
      <point x="-18.0" y="-199.0" type="line" smooth="yes"/>
      <point x="-42.0" y="-305.0"/>
      <point x="-22.0" y="-327.0"/>
      <point x="24.0" y="-335.0" type="curve" smooth="yes"/>
      <point x="35.0" y="-337.0"/>
      <point x="42.0" y="-340.0"/>
      <point x="40.0" y="-349.0" type="curve" smooth="yes"/>
      <point x="40.0" y="-350.0" type="line" smooth="yes"/>
      <point x="38.0" y="-359.0"/>
      <point x="30.0" y="-361.0"/>
      <point x="19.0" y="-360.0" type="curve" smooth="yes"/>
      <point x="-72.0" y="-354.0"/>
      <point x="-74.0" y="-313.0"/>
      <point x="-48.0" y="-199.0" type="curve" smooth="yes"/>
      <point x="102.0" y="452.0" type="line" smooth="yes"/>
      <point x="122.0" y="538.0"/>
      <point x="114.0" y="587.0"/>
      <point x="75.0" y="604.0" type="curve" smooth="yes"/>
      <point x="66.0" y="608.0"/>
      <point x="63.0" y="613.0"/>
      <point x="65.0" y="620.0" type="curve" smooth="yes"/>
      <point x="65.0" y="621.0" type="line" smooth="yes"/>
      <point x="67.0" y="628.0"/>
      <point x="72.0" y="632.0"/>
      <point x="82.0" y="636.0" type="curve" smooth="yes"/>
      <point x="131.0" y="653.0"/>
      <point x="160.0" y="701.0"/>
      <point x="180.0" y="788.0" type="curve" smooth="yes"/>
    </contour>
  </outline>
</glyph>
<glyph name="bar" format="2">
  <advance height="1920" width="285"/>
  <unicode hex="007C"/>
  <outline>
    <contour>
      <point x="392.0" y="1603.0" type="curve" smooth="yes"/>
      <point x="394.0" y="1603.0" type="line" smooth="yes"/>
      <point x="405.0" y="1603.0"/>
      <point x="406.0" y="1593.0"/>
      <point x="403.0" y="1580.0" type="curve" smooth="yes"/>
      <point x="-40.0" y="-340.0" type="line" smooth="yes"/>
      <point x="-43.0" y="-353.0"/>
      <point x="-49.0" y="-363.0"/>
      <point x="-60.0" y="-363.0" type="curve" smooth="yes"/>
      <point x="-62.0" y="-363.0" type="line" smooth="yes"/>
      <point x="-73.0" y="-363.0"/>
      <point x="-73.0" y="-353.0"/>
      <point x="-70.0" y="-340.0" type="curve" smooth="yes"/>
      <point x="373.0" y="1580.0" type="line" smooth="yes"/>
      <point x="376.0" y="1593.0"/>
      <point x="381.0" y="1603.0"/>
    </contour>
  </outline>
</glyph>
<glyph name="braceright" format="2">
  <advance height="2048" width="288"/>
  <unicode hex="007D"/>
  <outline>
    <contour>
      <point x="4.0" y="-199.0" type="line" smooth="yes"/>
      <point x="-22.0" y="-313.0"/>
      <point x="-42.0" y="-354.0"/>
      <point x="-137.0" y="-360.0" type="curve" smooth="yes"/>
      <point x="-148.0" y="-361.0"/>
      <point x="-156.0" y="-358.0"/>
      <point x="-154.0" y="-349.0" type="curve" smooth="yes"/>
      <point x="-153.0" y="-348.0" type="line" smooth="yes"/>
      <point x="-151.0" y="-339.0"/>
      <point x="-142.0" y="-336.0"/>
      <point x="-131.0" y="-335.0" type="curve" smooth="yes"/>
      <point x="-80.0" y="-329.0"/>
      <point x="-53.0" y="-316.0"/>
      <point x="-26.0" y="-199.0" type="curve" smooth="yes"/>
      <point x="124.0" y="452.0" type="line" smooth="yes"/>
      <point x="145.0" y="544.0"/>
      <point x="174.0" y="596.0"/>
      <point x="238.0" y="620.0" type="curve"/>
      <point x="186.0" y="644.0"/>
      <point x="181.0" y="696.0"/>
      <point x="202.0" y="788.0" type="curve" smooth="yes"/>
      <point x="352.0" y="1439.0" type="line" smooth="yes"/>
      <point x="376.0" y="1545.0"/>
      <point x="357.0" y="1567.0"/>
      <point x="311.0" y="1575.0" type="curve" smooth="yes"/>
      <point x="300.0" y="1577.0"/>
      <point x="292.0" y="1580.0"/>
      <point x="294.0" y="1589.0" type="curve" smooth="yes"/>
      <point x="294.0" y="1590.0" type="line" smooth="yes"/>
      <point x="296.0" y="1599.0"/>
      <point x="304.0" y="1601.0"/>
      <point x="315.0" y="1600.0" type="curve" smooth="yes"/>
      <point x="406.0" y="1594.0"/>
      <point x="408.0" y="1553.0"/>
      <point x="382.0" y="1439.0" type="curve" smooth="yes"/>
      <point x="232.0" y="788.0" type="line" smooth="yes"/>
      <point x="212.0" y="702.0"/>
      <point x="220.0" y="653.0"/>
      <point x="259.0" y="636.0" type="curve" smooth="yes"/>
      <point x="268.0" y="632.0"/>
      <point x="271.0" y="627.0"/>
      <point x="269.0" y="620.0" type="curve" smooth="yes"/>
      <point x="269.0" y="619.0" type="line" smooth="yes"/>
      <point x="267.0" y="612.0"/>
      <point x="262.0" y="608.0"/>
      <point x="252.0" y="604.0" type="curve" smooth="yes"/>
      <point x="203.0" y="587.0"/>
      <point x="174.0" y="539.0"/>
      <point x="154.0" y="452.0" type="curve" smooth="yes"/>
    </contour>
  </outline>
</glyph>
<glyph name="asciitilde" format="2">
  <advance height="2048" width="664"/>
  <unicode hex="007E"/>
  <outline>
    <contour>
      <point x="243.0" y="677.0" type="curve" smooth="yes"/>
      <point x="187.0" y="677.0"/>
      <point x="145.0" y="617.0"/>
      <point x="124.0" y="536.0" type="curve" smooth="yes"/>
      <point x="121.0" y="526.0"/>
      <point x="112.0" y="518.0"/>
      <point x="105.0" y="518.0" type="curve" smooth="yes"/>
      <point x="103.0" y="518.0" type="line" smooth="yes"/>
      <point x="95.0" y="518.0"/>
      <point x="91.0" y="526.0"/>
      <point x="94.0" y="536.0" type="curve" smooth="yes"/>
      <point x="120.0" y="630.0"/>
      <point x="168.0" y="707.0"/>
      <point x="253.0" y="707.0" type="curve" smooth="yes"/>
      <point x="368.0" y="707.0"/>
      <point x="364.0" y="534.0"/>
      <point x="460.0" y="534.0" type="curve" smooth="yes"/>
      <point x="516.0" y="534.0"/>
      <point x="560.0" y="593.0"/>
      <point x="581.0" y="674.0" type="curve" smooth="yes"/>
      <point x="584.0" y="685.0"/>
      <point x="590.0" y="692.0"/>
      <point x="598.0" y="692.0" type="curve" smooth="yes"/>
      <point x="600.0" y="692.0" type="line" smooth="yes"/>
      <point x="609.0" y="692.0"/>
      <point x="613.0" y="685.0"/>
      <point x="610.0" y="674.0" type="curve" smooth="yes"/>
      <point x="584.0" y="580.0"/>
      <point x="535.0" y="504.0"/>
      <point x="450.0" y="504.0" type="curve" smooth="yes"/>
      <point x="335.0" y="504.0"/>
      <point x="339.0" y="677.0"/>
    </contour>
  </outline>
</glyph>
<glyph name="exclamdown" format="2">
  <advance height="1920" width="275"/>
  <unicode hex="00A1"/>
  <outline>
    <contour>
      <point x="257.0" y="1053.0" type="curve" smooth="yes"/>
      <point x="261.0" y="1053.0" type="line" smooth="yes"/>
      <point x="274.0" y="1053.0"/>
      <point x="281.0" y="1044.0"/>
      <point x="278.0" y="1032.0" type="curve" smooth="yes"/>
      <point x="238.0" y="858.0" type="line" smooth="yes"/>
      <point x="235.0" y="846.0"/>
      <point x="224.0" y="837.0"/>
      <point x="211.0" y="837.0" type="curve" smooth="yes"/>
      <point x="207.0" y="837.0" type="line" smooth="yes"/>
      <point x="194.0" y="837.0"/>
      <point x="189.0" y="846.0"/>
      <point x="192.0" y="858.0" type="curve" smooth="yes"/>
      <point x="232.0" y="1032.0" type="line" smooth="yes"/>
      <point x="235.0" y="1044.0"/>
      <point x="244.0" y="1053.0"/>
    </contour>
    <contour>
      <point x="55.0" y="100.0" type="curve" smooth="yes"/>
      <point x="-57.0" y="-385.0" type="line" smooth="yes"/>
      <point x="-59.0" y="-394.0"/>
      <point x="-65.0" y="-403.0"/>
      <point x="-75.0" y="-403.0" type="curve" smooth="yes"/>
      <point x="-77.0" y="-403.0" type="line" smooth="yes"/>
      <point x="-87.0" y="-403.0"/>
      <point x="-89.0" y="-394.0"/>
      <point x="-87.0" y="-385.0" type="curve" smooth="yes"/>
      <point x="25.0" y="100.0" type="line" smooth="yes"/>
      <point x="27.0" y="107.0"/>
      <point x="46.0" y="193.0"/>
      <point x="48.0" y="200.0" type="curve" smooth="yes"/>
      <point x="147.0" y="610.0" type="line" smooth="yes"/>
      <point x="149.0" y="617.0"/>
      <point x="154.0" y="623.0"/>
      <point x="161.0" y="623.0" type="curve" smooth="yes"/>
      <point x="162.0" y="623.0" type="line" smooth="yes"/>
      <point x="169.0" y="623.0"/>
      <point x="171.0" y="617.0"/>
      <point x="169.0" y="610.0" type="curve" smooth="yes"/>
      <point x="76.0" y="200.0" type="line" smooth="yes"/>
      <point x="74.0" y="193.0"/>
      <point x="57.0" y="107.0"/>
    </contour>
  </outline>
</glyph>
<glyph name="cent" format="2">
  <advance height="1920" width="284"/>
  <unicode hex="00A2"/>
  <outline>
    <contour>
      <point x="321.03125" y="1243.0" type="curve" smooth="yes"/>
      <point x="323.03125" y="1243.0" type="line" smooth="yes"/>
      <point x="330.03125" y="1243.0"/>
      <point x="330.03125" y="1235.0"/>
      <point x="328.03125" y="1226.0" type="curve" smooth="yes"/>
      <point x="4.03125" y="-176.0" type="line" smooth="yes"/>
      <point x="1.03125" y="-187.0"/>
      <point x="-2.96875" y="-193.0"/>
      <point x="-8.96875" y="-193.0" type="curve" smooth="yes"/>
      <point x="-10.96875" y="-193.0" type="line" smooth="yes"/>
      <point x="-17.96875" y="-193.0"/>
      <point x="-18.96875" y="-187.0"/>
      <point x="-15.96875" y="-176.0" type="curve" smooth="yes"/>
      <point x="308.03125" y="1226.0" type="line" smooth="yes"/>
      <point x="310.03125" y="1235.0"/>
      <point x="314.03125" y="1243.0"/>
    </contour>
    <component base="c"/>
  </outline>
</glyph>
<glyph name="sterling" format="2">
  <advance height="1920" width="470"/>
  <unicode hex="00A3"/>
  <outline>
    <contour>
      <point x="103.0" y="699.0" type="curve" smooth="yes"/>
      <point x="104.0" y="700.0" type="line" smooth="yes"/>
      <point x="106.0" y="709.0"/>
      <point x="116.0" y="715.0"/>
      <point x="125.0" y="715.0" type="curve" smooth="yes"/>
      <point x="345.0" y="715.0" type="line" smooth="yes"/>
      <point x="354.0" y="715.0"/>
      <point x="362.0" y="709.0"/>
      <point x="360.0" y="700.0" type="curve" smooth="yes"/>
      <point x="359.0" y="699.0" type="line" smooth="yes"/>
      <point x="357.0" y="690.0"/>
      <point x="347.0" y="685.0"/>
      <point x="338.0" y="685.0" type="curve" smooth="yes"/>
      <point x="118.0" y="685.0" type="line" smooth="yes"/>
      <point x="109.0" y="685.0"/>
      <point x="101.0" y="690.0"/>
    </contour>
    <contour>
      <point x="-26.0" y="34.0" type="curve" smooth="yes"/>
      <point x="39.0" y="89.0"/>
      <point x="168.0" y="362.0"/>
      <point x="222.0" y="597.0" type="curve" smooth="yes"/>
      <point x="268.0" y="796.0"/>
      <point x="199.0" y="907.0"/>
      <point x="253.0" y="1141.0" type="curve" smooth="yes"/>
      <point x="291.0" y="1306.0"/>
      <point x="331.0" y="1417.0"/>
      <point x="445.0" y="1417.0" type="curve" smooth="yes"/>
      <point x="562.0" y="1417.0"/>
      <point x="541.0" y="1285.0"/>
      <point x="471.0" y="977.0" type="curve" smooth="yes"/>
      <point x="468.0" y="966.0"/>
      <point x="460.0" y="957.0"/>
      <point x="451.0" y="957.0" type="curve" smooth="yes"/>
      <point x="449.0" y="957.0" type="line" smooth="yes"/>
      <point x="441.0" y="957.0"/>
      <point x="437.0" y="966.0"/>
      <point x="439.0" y="977.0" type="curve" smooth="yes"/>
      <point x="492.0" y="1218.0"/>
      <point x="535.0" y="1387.0"/>
      <point x="438.0" y="1387.0" type="curve" smooth="yes"/>
      <point x="351.0" y="1387.0"/>
      <point x="316.0" y="1281.0"/>
      <point x="286.0" y="1151.0" type="curve" smooth="yes"/>
      <point x="232.0" y="915.0"/>
      <point x="301.0" y="810.0"/>
      <point x="252.0" y="597.0" type="curve" smooth="yes"/>
      <point x="201.0" y="376.0"/>
      <point x="65.0" y="73.0"/>
      <point x="-4.0" y="30.0" type="curve"/>
      <point x="292.0" y="30.0" type="line" smooth="yes"/>
      <point x="303.0" y="30.0"/>
      <point x="308.0" y="24.0"/>
      <point x="306.0" y="15.0" type="curve" smooth="yes"/>
      <point x="306.0" y="14.0" type="line" smooth="yes"/>
      <point x="304.0" y="5.0"/>
      <point x="296.0" y="0.0"/>
      <point x="285.0" y="0.0" type="curve" smooth="yes"/>
      <point x="-25.0" y="0.0" type="line" smooth="yes"/>
      <point x="-34.0" y="0.0"/>
      <point x="-42.0" y="6.0"/>
      <point x="-40.0" y="15.0" type="curve" smooth="yes"/>
      <point x="-39.0" y="16.0" type="line" smooth="yes"/>
      <point x="-38.0" y="22.0"/>
      <point x="-32.0" y="29.0"/>
    </contour>
  </outline>
</glyph>
<glyph name="currency" format="2">
  <advance width="1112"/>
  <unicode hex="00A4"/>
  <outline>
    <contour>
      <point x="873.0" y="936.0" type="curve" smooth="yes"/>
      <point x="874.0" y="935.0" type="line" smooth="yes"/>
      <point x="877.0" y="931.0"/>
      <point x="876.0" y="921.0"/>
      <point x="869.0" y="915.0" type="curve" smooth="yes"/>
      <point x="800.0" y="858.0" type="line" smooth="yes"/>
      <point x="798.0" y="856.0"/>
      <point x="795.0" y="856.0"/>
      <point x="793.0" y="858.0" type="curve" smooth="yes"/>
      <point x="782.0" y="872.0" type="line" smooth="yes"/>
      <point x="780.0" y="874.0"/>
      <point x="782.0" y="878.0"/>
      <point x="784.0" y="880.0" type="curve" smooth="yes"/>
      <point x="853.0" y="936.0" type="line" smooth="yes"/>
      <point x="860.0" y="942.0"/>
      <point x="870.0" y="940.0"/>
    </contour>
    <contour>
      <point x="394.0" y="557.0" type="curve" smooth="yes"/>
      <point x="404.0" y="543.0" type="line" smooth="yes"/>
      <point x="406.0" y="541.0"/>
      <point x="405.0" y="537.0"/>
      <point x="403.0" y="535.0" type="curve" smooth="yes"/>
      <point x="340.0" y="484.0" type="line" smooth="yes"/>
      <point x="330.0" y="476.0"/>
      <point x="318.0" y="474.0"/>
      <point x="314.0" y="479.0" type="curve" smooth="yes"/>
      <point x="313.0" y="480.0" type="line" smooth="yes"/>
      <point x="309.0" y="485.0"/>
      <point x="314.0" y="496.0"/>
      <point x="324.0" y="505.0" type="curve" smooth="yes"/>
      <point x="387.0" y="557.0" type="line" smooth="yes"/>
      <point x="389.0" y="559.0"/>
      <point x="392.0" y="559.0"/>
    </contour>
    <contour>
      <point x="419.0" y="936.0" type="curve" smooth="yes"/>
      <point x="420.0" y="937.0" type="line" smooth="yes"/>
      <point x="426.0" y="941.0"/>
      <point x="435.0" y="942.0"/>
      <point x="439.0" y="936.0" type="curve" smooth="yes"/>
      <point x="482.0" y="880.0" type="line" smooth="yes"/>
      <point x="484.0" y="878.0"/>
      <point x="482.0" y="874.0"/>
      <point x="480.0" y="872.0" type="curve" smooth="yes"/>
      <point x="463.0" y="858.0" type="line" smooth="yes"/>
      <point x="461.0" y="856.0"/>
      <point x="458.0" y="856.0"/>
      <point x="456.0" y="858.0" type="curve" smooth="yes"/>
      <point x="413.0" y="915.0" type="line" smooth="yes"/>
      <point x="409.0" y="921.0"/>
      <point x="413.0" y="932.0"/>
    </contour>
    <contour>
      <point x="706.0" y="543.0" type="curve" smooth="yes"/>
      <point x="724.0" y="557.0" type="line" smooth="yes"/>
      <point x="726.0" y="559.0"/>
      <point x="729.0" y="559.0"/>
      <point x="731.0" y="557.0" type="curve" smooth="yes"/>
      <point x="773.0" y="500.0" type="line" smooth="yes"/>
      <point x="777.0" y="494.0"/>
      <point x="775.0" y="484.0"/>
      <point x="769.0" y="480.0" type="curve" smooth="yes"/>
      <point x="768.0" y="479.0" type="line" smooth="yes"/>
      <point x="762.0" y="475.0"/>
      <point x="752.0" y="473.0"/>
      <point x="748.0" y="479.0" type="curve" smooth="yes"/>
      <point x="705.0" y="535.0" type="line" smooth="yes"/>
      <point x="703.0" y="537.0"/>
      <point x="704.0" y="541.0"/>
    </contour>
    <contour>
      <point x="350.0" y="709.0" type="curve" smooth="yes"/>
      <point x="381.0" y="843.0"/>
      <point x="518.0" y="954.0"/>
      <point x="652.0" y="954.0" type="curve" smooth="yes"/>
      <point x="786.0" y="954.0"/>
      <point x="871.0" y="843.0"/>
      <point x="840.0" y="709.0" type="curve" smooth="yes"/>
      <point x="809.0" y="575.0"/>
      <point x="673.0" y="464.0"/>
      <point x="539.0" y="464.0" type="curve" smooth="yes"/>
      <point x="405.0" y="464.0"/>
      <point x="319.0" y="575.0"/>
    </contour>
    <contour>
      <point x="380.0" y="709.0" type="curve" smooth="yes"/>
      <point x="354.0" y="595.0"/>
      <point x="422.0" y="494.0"/>
      <point x="546.0" y="494.0" type="curve" smooth="yes"/>
      <point x="670.0" y="494.0"/>
      <point x="784.0" y="595.0"/>
      <point x="810.0" y="709.0" type="curve" smooth="yes"/>
      <point x="836.0" y="823.0"/>
      <point x="769.0" y="924.0"/>
      <point x="645.0" y="924.0" type="curve" smooth="yes"/>
      <point x="521.0" y="924.0"/>
      <point x="406.0" y="823.0"/>
    </contour>
  </outline>
</glyph>
<glyph name="yen" format="2">
  <advance height="1920" width="374"/>
  <unicode hex="00A5"/>
  <outline>
    <contour>
      <point x="2.0" y="499.0" type="curve" smooth="yes"/>
      <point x="2.0" y="500.0" type="line" smooth="yes"/>
      <point x="4.0" y="509.0"/>
      <point x="13.0" y="514.0"/>
      <point x="24.0" y="514.0" type="curve" smooth="yes"/>
      <point x="364.0" y="514.0" type="line" smooth="yes"/>
      <point x="375.0" y="514.0"/>
      <point x="380.0" y="508.0"/>
      <point x="378.0" y="499.0" type="curve" smooth="yes"/>
      <point x="378.0" y="498.0" type="line" smooth="yes"/>
      <point x="376.0" y="489.0"/>
      <point x="368.0" y="484.0"/>
      <point x="357.0" y="484.0" type="curve" smooth="yes"/>
      <point x="17.0" y="484.0" type="line" smooth="yes"/>
      <point x="6.0" y="484.0"/>
      <point x="0.0" y="490.0"/>
    </contour>
    <contour>
      <point x="32.0" y="626.0" type="curve" smooth="yes"/>
      <point x="32.0" y="627.0" type="line" smooth="yes"/>
      <point x="34.0" y="636.0"/>
      <point x="42.0" y="641.0"/>
      <point x="53.0" y="641.0" type="curve" smooth="yes"/>
      <point x="393.0" y="641.0" type="line" smooth="yes"/>
      <point x="404.0" y="641.0"/>
      <point x="410.0" y="635.0"/>
      <point x="408.0" y="626.0" type="curve" smooth="yes"/>
      <point x="407.0" y="625.0" type="line" smooth="yes"/>
      <point x="405.0" y="616.0"/>
      <point x="397.0" y="611.0"/>
      <point x="386.0" y="611.0" type="curve" smooth="yes"/>
      <point x="46.0" y="611.0" type="line" smooth="yes"/>
      <point x="35.0" y="611.0"/>
      <point x="30.0" y="617.0"/>
    </contour>
    <component base="Y"/>
  </outline>
</glyph>
<glyph name="brokenbar" format="2">
  <advance height="1920" width="365"/>
  <unicode hex="00A6"/>
  <outline>
    <contour>
      <point x="162.0" y="433.0" type="curve" smooth="yes"/>
      <point x="164.0" y="433.0" type="line" smooth="yes"/>
      <point x="173.0" y="433.0"/>
      <point x="176.0" y="424.0"/>
      <point x="173.0" y="410.0" type="curve" smooth="yes"/>
      <point x="-0.0" y="-340.0" type="line" smooth="yes"/>
      <point x="-3.0" y="-354.0"/>
      <point x="-11.0" y="-363.0"/>
      <point x="-20.0" y="-363.0" type="curve" smooth="yes"/>
      <point x="-22.0" y="-363.0" type="line" smooth="yes"/>
      <point x="-31.0" y="-363.0"/>
      <point x="-33.0" y="-354.0"/>
      <point x="-30.0" y="-340.0" type="curve" smooth="yes"/>
      <point x="143.0" y="410.0" type="line" smooth="yes"/>
      <point x="146.0" y="424.0"/>
      <point x="153.0" y="433.0"/>
    </contour>
    <contour>
      <point x="432.0" y="1603.0" type="curve" smooth="yes"/>
      <point x="434.0" y="1603.0" type="line" smooth="yes"/>
      <point x="443.0" y="1603.0"/>
      <point x="446.0" y="1593.0"/>
      <point x="443.0" y="1580.0" type="curve" smooth="yes"/>
      <point x="270.0" y="830.0" type="line" smooth="yes"/>
      <point x="267.0" y="816.0"/>
      <point x="259.0" y="807.0"/>
      <point x="250.0" y="807.0" type="curve" smooth="yes"/>
      <point x="248.0" y="807.0" type="line" smooth="yes"/>
      <point x="239.0" y="807.0"/>
      <point x="237.0" y="816.0"/>
      <point x="240.0" y="830.0" type="curve" smooth="yes"/>
      <point x="413.0" y="1580.0" type="line" smooth="yes"/>
      <point x="416.0" y="1593.0"/>
      <point x="423.0" y="1603.0"/>
    </contour>
  </outline>
</glyph>
<glyph name="section" format="2">
  <advance height="1920" width="568"/>
  <unicode hex="00A7"/>
  <outline>
    <contour>
      <point x="339.0" y="890.0" type="line"/>
      <point x="267.0" y="890.0"/>
      <point x="178.0" y="776.0"/>
      <point x="137.0" y="598.0" type="curve" smooth="yes"/>
      <point x="98.0" y="431.0"/>
      <point x="127.0" y="344.0"/>
      <point x="194.0" y="241.0" type="curve" smooth="yes"/>
      <point x="283.0" y="105.0"/>
      <point x="301.0" y="47.0"/>
      <point x="269.0" y="-93.0" type="curve" smooth="yes"/>
      <point x="229.0" y="-265.0"/>
      <point x="158.0" y="-370.0"/>
      <point x="64.0" y="-370.0" type="curve" smooth="yes"/>
      <point x="-33.0" y="-370.0"/>
      <point x="-41.0" y="-267.0"/>
      <point x="-3.0" y="-67.0" type="curve" smooth="yes"/>
      <point x="-1.0" y="-56.0"/>
      <point x="9.0" y="-45.0"/>
      <point x="18.0" y="-45.0" type="curve" smooth="yes"/>
      <point x="19.0" y="-45.0" type="line" smooth="yes"/>
      <point x="28.0" y="-45.0"/>
      <point x="30.0" y="-56.0"/>
      <point x="28.0" y="-68.0" type="curve" smooth="yes"/>
      <point x="-3.0" y="-238.0"/>
      <point x="-1.0" y="-340.0"/>
      <point x="71.0" y="-340.0" type="curve" smooth="yes"/>
      <point x="145.0" y="-340.0"/>
      <point x="204.0" y="-243.0"/>
      <point x="239.0" y="-93.0" type="curve" smooth="yes"/>
      <point x="271.0" y="45.0"/>
      <point x="232.0" y="121.0"/>
      <point x="171.0" y="212.0" type="curve" smooth="yes"/>
      <point x="80.0" y="347.0"/>
      <point x="75.0" y="456.0"/>
      <point x="107.0" y="593.0" type="curve" smooth="yes"/>
      <point x="154.0" y="795.0"/>
      <point x="246.0" y="900.0"/>
      <point x="348.0" y="900.0" type="curve"/>
    </contour>
    <contour>
      <point x="227.0" y="145.0" type="line"/>
      <point x="299.0" y="145.0"/>
      <point x="389.0" y="259.0"/>
      <point x="430.0" y="437.0" type="curve" smooth="yes"/>
      <point x="469.0" y="604.0"/>
      <point x="440.0" y="691.0"/>
      <point x="373.0" y="794.0" type="curve" smooth="yes"/>
      <point x="284.0" y="930.0"/>
      <point x="266.0" y="988.0"/>
      <point x="298.0" y="1128.0" type="curve" smooth="yes"/>
      <point x="338.0" y="1300.0"/>
      <point x="409.0" y="1405.0"/>
      <point x="503.0" y="1405.0" type="curve" smooth="yes"/>
      <point x="600.0" y="1405.0"/>
      <point x="608.0" y="1302.0"/>
      <point x="570.0" y="1102.0" type="curve" smooth="yes"/>
      <point x="568.0" y="1091.0"/>
      <point x="559.0" y="1080.0"/>
      <point x="550.0" y="1080.0" type="curve" smooth="yes"/>
      <point x="549.0" y="1080.0" type="line" smooth="yes"/>
      <point x="540.0" y="1080.0"/>
      <point x="537.0" y="1091.0"/>
      <point x="539.0" y="1103.0" type="curve" smooth="yes"/>
      <point x="570.0" y="1273.0"/>
      <point x="568.0" y="1375.0"/>
      <point x="496.0" y="1375.0" type="curve" smooth="yes"/>
      <point x="422.0" y="1375.0"/>
      <point x="363.0" y="1278.0"/>
      <point x="328.0" y="1128.0" type="curve" smooth="yes"/>
      <point x="296.0" y="990.0"/>
      <point x="335.0" y="914.0"/>
      <point x="396.0" y="823.0" type="curve" smooth="yes"/>
      <point x="487.0" y="688.0"/>
      <point x="492.0" y="579.0"/>
      <point x="460.0" y="442.0" type="curve" smooth="yes"/>
      <point x="413.0" y="240.0"/>
      <point x="321.0" y="135.0"/>
      <point x="219.0" y="135.0" type="curve"/>
    </contour>
  </outline>
</glyph>
<glyph name="copyright" format="2">
  <advance width="844"/>
  <unicode hex="00A9"/>
  <outline>
    <contour>
      <point x="532.0" y="606.0" type="curve" smooth="yes"/>
      <point x="467.0" y="324.0"/>
      <point x="446.0" y="247.0"/>
      <point x="351.0" y="247.0" type="curve" smooth="yes"/>
      <point x="268.0" y="247.0"/>
      <point x="282.0" y="327.0"/>
      <point x="314.0" y="465.0" type="curve" smooth="yes"/>
      <point x="409.0" y="875.0" type="line" smooth="yes"/>
      <point x="444.0" y="1025.0"/>
      <point x="481.0" y="1093.0"/>
      <point x="555.0" y="1093.0" type="curve" smooth="yes"/>
      <point x="634.0" y="1093.0"/>
      <point x="620.0" y="997.0"/>
      <point x="570.0" y="782.0" type="curve" smooth="yes"/>
      <point x="568.0" y="774.0"/>
      <point x="564.0" y="765.0"/>
      <point x="557.0" y="765.0" type="curve" smooth="yes"/>
      <point x="556.0" y="765.0" type="line" smooth="yes"/>
      <point x="549.0" y="765.0"/>
      <point x="550.0" y="774.0"/>
      <point x="552.0" y="782.0" type="curve" smooth="yes"/>
      <point x="598.0" y="988.0"/>
      <point x="610.0" y="1075.0"/>
      <point x="551.0" y="1075.0" type="curve" smooth="yes"/>
      <point x="480.0" y="1075.0"/>
      <point x="455.0" y="995.0"/>
      <point x="428.0" y="878.0" type="curve" smooth="yes"/>
      <point x="332.0" y="462.0" type="line" smooth="yes"/>
      <point x="306.0" y="351.0"/>
      <point x="288.0" y="265.0"/>
      <point x="355.0" y="265.0" type="curve" smooth="yes"/>
      <point x="431.0" y="265.0"/>
      <point x="451.0" y="332.0"/>
      <point x="514.0" y="606.0" type="curve" smooth="yes"/>
      <point x="516.0" y="613.0"/>
      <point x="519.0" y="617.0"/>
      <point x="524.0" y="617.0" type="curve" smooth="yes"/>
      <point x="525.0" y="617.0" type="line" smooth="yes"/>
      <point x="530.0" y="617.0"/>
      <point x="534.0" y="613.0"/>
    </contour>
    <contour>
      <point x="803.0" y="668.0" type="curve" smooth="yes"/>
      <point x="714.0" y="284.0"/>
      <point x="609.0" y="-28.0"/>
      <point x="295.0" y="-28.0" type="curve" smooth="yes"/>
      <point x="-19.0" y="-28.0"/>
      <point x="20.0" y="284.0"/>
      <point x="109.0" y="668.0" type="curve" smooth="yes"/>
      <point x="198.0" y="1052.0"/>
      <point x="302.0" y="1366.0"/>
      <point x="616.0" y="1366.0" type="curve" smooth="yes"/>
      <point x="930.0" y="1366.0"/>
      <point x="892.0" y="1052.0"/>
    </contour>
    <contour>
      <point x="773.0" y="668.0" type="curve" smooth="yes"/>
      <point x="851.0" y="1006.0"/>
      <point x="917.0" y="1336.0"/>
      <point x="609.0" y="1336.0" type="curve" smooth="yes"/>
      <point x="301.0" y="1336.0"/>
      <point x="217.0" y="1006.0"/>
      <point x="139.0" y="668.0" type="curve" smooth="yes"/>
      <point x="61.0" y="330.0"/>
      <point x="-7.0" y="2.0"/>
      <point x="301.0" y="2.0" type="curve" smooth="yes"/>
      <point x="609.0" y="2.0"/>
      <point x="695.0" y="330.0"/>
    </contour>
  </outline>
</glyph>
<glyph name="ordfeminine" format="2">
  <advance height="1920" width="364"/>
  <unicode hex="00AA"/>
  <outline>
    <contour>
      <point x="178.0" y="834.0" type="curve" smooth="yes"/>
      <point x="154.0" y="730.0"/>
      <point x="153.0" y="669.0"/>
      <point x="187.0" y="669.0" type="curve" smooth="yes"/>
      <point x="229.0" y="669.0"/>
      <point x="295.0" y="806.0"/>
      <point x="329.0" y="952.0" type="curve"/>
      <point x="327.0" y="902.0" type="line"/>
      <point x="294.0" y="759.0"/>
      <point x="237.0" y="639.0"/>
      <point x="181.0" y="639.0" type="curve" smooth="yes"/>
      <point x="129.0" y="639.0"/>
      <point x="117.0" y="699.0"/>
      <point x="148.0" y="834.0" type="curve" smooth="yes"/>
      <point x="183.0" y="985.0"/>
      <point x="210.0" y="1035.0"/>
      <point x="293.0" y="1096.0" type="curve" smooth="yes"/>
      <point x="336.0" y="1128.0"/>
      <point x="377.0" y="1159.0"/>
      <point x="396.0" y="1242.0" type="curve"/>
      <point x="397.0" y="1202.0" type="line"/>
      <point x="382.0" y="1139.0"/>
      <point x="349.0" y="1113.0"/>
      <point x="295.0" y="1071.0" type="curve" smooth="yes"/>
      <point x="247.0" y="1034.0"/>
      <point x="208.0" y="964.0"/>
    </contour>
    <contour>
      <point x="306.0" y="852.0" type="curve" smooth="yes"/>
      <point x="400.0" y="1262.0" type="line" smooth="yes"/>
      <point x="418.0" y="1342.0"/>
      <point x="444.0" y="1459.0"/>
      <point x="396.0" y="1459.0" type="curve" smooth="yes"/>
      <point x="346.0" y="1459.0"/>
      <point x="325.0" y="1362.0"/>
      <point x="296.0" y="1236.0" type="curve" smooth="yes"/>
      <point x="293.0" y="1223.0"/>
      <point x="285.0" y="1214.0"/>
      <point x="276.0" y="1214.0" type="curve" smooth="yes"/>
      <point x="274.0" y="1214.0" type="line" smooth="yes"/>
      <point x="265.0" y="1214.0"/>
      <point x="262.0" y="1223.0"/>
      <point x="266.0" y="1236.0" type="curve" smooth="yes"/>
      <point x="310.0" y="1379.0"/>
      <point x="315.0" y="1489.0"/>
      <point x="403.0" y="1489.0" type="curve" smooth="yes"/>
      <point x="478.0" y="1489.0"/>
      <point x="461.0" y="1395.0"/>
      <point x="413.0" y="1187.0" type="curve" smooth="yes"/>
      <point x="336.0" y="852.0" type="line" smooth="yes"/>
      <point x="314.0" y="758.0"/>
      <point x="312.0" y="705.0"/>
      <point x="317.0" y="661.0" type="curve" smooth="yes"/>
      <point x="318.0" y="650.0"/>
      <point x="310.0" y="641.0"/>
      <point x="302.0" y="641.0" type="curve" smooth="yes"/>
      <point x="301.0" y="641.0" type="line" smooth="yes"/>
      <point x="291.0" y="641.0"/>
      <point x="287.0" y="650.0"/>
      <point x="286.0" y="660.0" type="curve" smooth="yes"/>
      <point x="281.0" y="705.0"/>
      <point x="284.0" y="757.0"/>
    </contour>
  </outline>
</glyph>
<glyph name="logicalnot" format="2">
  <advance height="2048" width="600"/>
  <unicode hex="00AC"/>
  <outline>
    <contour>
      <point x="109.0" y="679.0" type="curve" smooth="yes"/>
      <point x="109.0" y="681.0" type="line" smooth="yes"/>
      <point x="112.0" y="693.0"/>
      <point x="122.0" y="695.0"/>
      <point x="131.0" y="695.0" type="curve" smooth="yes"/>
      <point x="500.0" y="695.0" type="line" smooth="yes"/>
      <point x="517.0" y="695.0"/>
      <point x="523.0" y="682.0"/>
      <point x="519.0" y="665.0" type="curve" smooth="yes"/>
      <point x="442.0" y="335.0" type="line" smooth="yes"/>
      <point x="439.0" y="321.0"/>
      <point x="432.0" y="312.0"/>
      <point x="423.0" y="312.0" type="curve" smooth="yes"/>
      <point x="421.0" y="312.0" type="line" smooth="yes"/>
      <point x="412.0" y="312.0"/>
      <point x="409.0" y="321.0"/>
      <point x="412.0" y="335.0" type="curve" smooth="yes"/>
      <point x="489.0" y="665.0" type="line"/>
      <point x="125.0" y="665.0" type="line" smooth="yes"/>
      <point x="116.0" y="665.0"/>
      <point x="106.0" y="667.0"/>
    </contour>
  </outline>
</glyph>
<glyph name="registered" format="2">
  <advance width="844"/>
  <unicode hex="00AE"/>
  <outline>
    <contour>
      <point x="499.0" y="1102.0" type="line"/>
      <point x="409.0" y="712.0" type="line"/>
      <point x="448.0" y="712.0" type="line" smooth="yes"/>
      <point x="487.0" y="712.0"/>
      <point x="529.0" y="748.0"/>
      <point x="547.0" y="826.0" type="curve" smooth="yes"/>
      <point x="582.0" y="977.0" type="line" smooth="yes"/>
      <point x="599.0" y="1049.0"/>
      <point x="601.0" y="1102.0"/>
      <point x="538.0" y="1102.0" type="curve" smooth="yes"/>
    </contour>
    <contour>
      <point x="543.0" y="1120.0" type="line" smooth="yes"/>
      <point x="617.0" y="1120.0"/>
      <point x="622.0" y="1073.0"/>
      <point x="598.0" y="971.0" type="curve" smooth="yes"/>
      <point x="567.0" y="838.0" type="line" smooth="yes"/>
      <point x="542.0" y="730.0"/>
      <point x="487.0" y="703.0"/>
      <point x="446.0" y="703.0" type="curve"/>
      <point x="447.0" y="706.0" type="line"/>
      <point x="488.0" y="706.0"/>
      <point x="529.0" y="689.0"/>
      <point x="512.0" y="617.0" type="curve" smooth="yes"/>
      <point x="467.0" y="421.0" type="line" smooth="yes"/>
      <point x="451.0" y="350.0"/>
      <point x="454.0" y="318.0"/>
      <point x="463.0" y="298.0" type="curve" smooth="yes"/>
      <point x="464.0" y="294.0"/>
      <point x="465.0" y="291.0"/>
      <point x="464.0" y="286.0" type="curve" smooth="yes"/>
      <point x="464.0" y="285.0" type="line" smooth="yes"/>
      <point x="463.0" y="281.0"/>
      <point x="459.0" y="279.0"/>
      <point x="455.0" y="279.0" type="curve" smooth="yes"/>
      <point x="454.0" y="279.0" type="line" smooth="yes"/>
      <point x="449.0" y="279.0"/>
      <point x="448.0" y="281.0"/>
      <point x="446.0" y="283.0" type="curve" smooth="yes"/>
      <point x="435.0" y="307.0"/>
      <point x="429.0" y="335.0"/>
      <point x="449.0" y="421.0" type="curve" smooth="yes"/>
      <point x="497.0" y="626.0" type="line" smooth="yes"/>
      <point x="507.0" y="668.0"/>
      <point x="490.0" y="697.0"/>
      <point x="445.0" y="697.0" type="curve" smooth="yes"/>
      <point x="406.0" y="697.0" type="line"/>
      <point x="312.0" y="289.0" type="line" smooth="yes"/>
      <point x="311.0" y="284.0"/>
      <point x="307.0" y="279.0"/>
      <point x="301.0" y="279.0" type="curve" smooth="yes"/>
      <point x="299.0" y="279.0" type="line" smooth="yes"/>
      <point x="293.0" y="279.0"/>
      <point x="293.0" y="284.0"/>
      <point x="294.0" y="289.0" type="curve" smooth="yes"/>
      <point x="482.0" y="1105.0" type="line" smooth="yes"/>
      <point x="484.0" y="1115.0"/>
      <point x="491.0" y="1120.0"/>
      <point x="501.0" y="1120.0" type="curve" smooth="yes"/>
    </contour>
    <contour>
      <point x="803.0" y="668.0" type="curve" smooth="yes"/>
      <point x="714.0" y="284.0"/>
      <point x="609.0" y="-28.0"/>
      <point x="295.0" y="-28.0" type="curve" smooth="yes"/>
      <point x="-19.0" y="-28.0"/>
      <point x="20.0" y="284.0"/>
      <point x="109.0" y="668.0" type="curve" smooth="yes"/>
      <point x="198.0" y="1052.0"/>
      <point x="302.0" y="1366.0"/>
      <point x="616.0" y="1366.0" type="curve" smooth="yes"/>
      <point x="930.0" y="1366.0"/>
      <point x="892.0" y="1052.0"/>
    </contour>
    <contour>
      <point x="773.0" y="668.0" type="curve" smooth="yes"/>
      <point x="851.0" y="1006.0"/>
      <point x="917.0" y="1336.0"/>
      <point x="609.0" y="1336.0" type="curve" smooth="yes"/>
      <point x="301.0" y="1336.0"/>
      <point x="217.0" y="1006.0"/>
      <point x="139.0" y="668.0" type="curve" smooth="yes"/>
      <point x="61.0" y="330.0"/>
      <point x="-7.0" y="2.0"/>
      <point x="301.0" y="2.0" type="curve" smooth="yes"/>
      <point x="609.0" y="2.0"/>
      <point x="695.0" y="330.0"/>
    </contour>
  </outline>
</glyph>
